<svg width="90" height="40" viewBox="0 0 90 40" fill="none" xmlns="http://www.w3.org/2000/svg">
<mask id="path-1-inside-1_38_17849" fill="white">
<path fill-rule="evenodd" clip-rule="evenodd" d="M-0.000488281 40H14.9995H74.9995H89.9995V32L84.9995 27V13L89.9995 8V0H74.9995H14.9995H-0.000488281V8L4.99951 13V27L-0.000488281 32V40Z"/>
</mask>
<path fill-rule="evenodd" clip-rule="evenodd" d="M-0.000488281 40H14.9995H74.9995H89.9995V32L84.9995 27V13L89.9995 8V0H74.9995H14.9995H-0.000488281V8L4.99951 13V27L-0.000488281 32V40Z" fill="#FF4654" fill-opacity="0.2"/>
<path d="M-0.000488281 40H-1.00049C-1.00049 40.5523 -0.552773 41 -0.000488281 41L-0.000488281 40ZM89.9995 40V41C90.5518 41 90.9995 40.5523 90.9995 40H89.9995ZM89.9995 32H90.9995C90.9995 31.7348 90.8942 31.4804 90.7066 31.2929L89.9995 32ZM84.9995 27H83.9995C83.9995 27.2652 84.1049 27.5196 84.2924 27.7071L84.9995 27ZM84.9995 13L84.2924 12.2929C84.1049 12.4804 83.9995 12.7348 83.9995 13H84.9995ZM89.9995 8L90.7066 8.70711C90.8942 8.51957 90.9995 8.26522 90.9995 8H89.9995ZM89.9995 0H90.9995C90.9995 -0.552285 90.5518 -1 89.9995 -1V0ZM-0.000488281 0V-1C-0.552773 -1 -1.00049 -0.552285 -1.00049 0L-0.000488281 0ZM-0.000488281 8H-1.00049C-1.00049 8.26522 -0.895131 8.51957 -0.707595 8.70711L-0.000488281 8ZM4.99951 13H5.99951C5.99951 12.7348 5.89416 12.4804 5.70662 12.2929L4.99951 13ZM4.99951 27L5.70662 27.7071C5.89416 27.5196 5.99951 27.2652 5.99951 27H4.99951ZM-0.000488281 32L-0.707595 31.2929C-0.895131 31.4804 -1.00049 31.7348 -1.00049 32H-0.000488281ZM14.9995 39H-0.000488281V41H14.9995V39ZM14.9995 41H74.9995V39H14.9995V41ZM74.9995 41H89.9995V39H74.9995V41ZM90.9995 40V32H88.9995V40H90.9995ZM90.7066 31.2929L85.7066 26.2929L84.2924 27.7071L89.2924 32.7071L90.7066 31.2929ZM85.9995 27V13H83.9995V27H85.9995ZM85.7066 13.7071L90.7066 8.70711L89.2924 7.29289L84.2924 12.2929L85.7066 13.7071ZM90.9995 8V0H88.9995V8H90.9995ZM89.9995 -1H74.9995V1H89.9995V-1ZM74.9995 -1H14.9995V1H74.9995V-1ZM-0.000488281 1H14.9995V-1H-0.000488281V1ZM0.999512 8V0H-1.00049V8H0.999512ZM5.70662 12.2929L0.706618 7.29289L-0.707595 8.70711L4.29241 13.7071L5.70662 12.2929ZM5.99951 27V13H3.99951V27H5.99951ZM0.706618 32.7071L5.70662 27.7071L4.29241 26.2929L-0.707595 31.2929L0.706618 32.7071ZM0.999512 40V32H-1.00049V40H0.999512Z" fill="#FF4654" mask="url(#path-1-inside-1_38_17849)"/>
</svg>
