<svg width="40" height="40" viewBox="0 0 40 40" fill="none" xmlns="http://www.w3.org/2000/svg">
<circle cx="20" cy="20" r="19" fill="#FF4654" fill-opacity="0.2" stroke="white" stroke-width="2"/>
<path d="M13.9543 16.8478C14.0453 17.8828 14.2542 19.3005 14.7268 20.7891C15.7306 23.9503 17.5038 26.198 19.9999 27.4754C22.4961 26.198 24.2693 23.9503 25.273 20.7891C25.7456 19.3006 25.9544 17.8829 26.0455 16.8478L19.9999 13.9727L13.9543 16.8478Z" fill="white"/>
<path d="M30.1497 14.862C30.1371 14.6314 29.9951 14.4251 29.778 14.3219L20.3015 9.81499C20.1117 9.72476 19.8884 9.72476 19.6986 9.81499L10.222 14.3219C10.0049 14.4251 9.86293 14.6314 9.85034 14.862C9.84315 14.9932 9.68731 18.1177 10.8063 21.7453C11.4685 23.8917 12.4424 25.7663 13.701 27.3172C15.2872 29.2716 17.3258 30.7093 19.7603 31.5905C19.8375 31.6184 19.9187 31.6324 20 31.6324C20.0813 31.6324 20.1625 31.6184 20.2398 31.5905C22.6743 30.7093 24.7129 29.2716 26.299 27.3172C27.5577 25.7663 28.5316 23.8916 29.1937 21.7453C30.3128 18.1177 30.1569 14.9932 30.1497 14.862ZM20.2988 28.7716C20.2046 28.8159 20.1023 28.838 20 28.838C19.8977 28.838 19.7954 28.8159 19.7013 28.7716C16.6997 27.36 14.5919 24.799 13.4364 21.1598C12.8585 19.3397 12.6498 17.6245 12.5766 16.5062C12.5597 16.2494 12.706 16.008 12.9479 15.8929L19.6986 12.6824C19.8884 12.5922 20.1117 12.5922 20.3015 12.6824L27.0523 15.8929C27.2942 16.0079 27.4405 16.2495 27.4236 16.5063C27.3503 17.6246 27.1417 19.3398 26.5638 21.1598C25.4082 24.799 23.3004 27.3599 20.2988 28.7716Z" fill="white"/>
</svg>
