<svg width="20" height="20" viewBox="0 0 20 20" fill="none" xmlns="http://www.w3.org/2000/svg">
<g clip-path="url(#clip0_21_14808)">
<path d="M12.7811 9.08516C11.9963 8.65144 11.1619 8.32099 10.3358 7.97814C9.85661 7.77987 9.39811 7.54855 8.99331 7.22636C8.19609 6.59024 8.34892 5.55757 9.28245 5.14864C9.54681 5.03298 9.82357 4.9958 10.1045 4.97928C11.1867 4.92145 12.2152 5.11972 13.1942 5.59062C13.6816 5.82607 13.8427 5.75172 14.0079 5.24364C14.1814 4.70666 14.326 4.16141 14.4871 3.62029C14.5945 3.2568 14.4623 3.01722 14.1195 2.86438C13.4916 2.58763 12.8472 2.38936 12.1698 2.28196C11.2858 2.14565 11.2858 2.14152 11.2817 1.25343C11.2776 0.00183587 11.2776 0.00183585 10.0218 0.00183585C9.84009 0.00183585 9.65834 -0.00229481 9.47659 0.00183585C8.89004 0.0183585 8.7909 0.121625 8.77438 0.71231C8.76612 0.976672 8.77438 1.24103 8.77025 1.50953C8.76612 2.29435 8.76199 2.28196 8.01021 2.55458C6.19272 3.21549 5.06918 4.45469 4.94939 6.43741C4.84199 8.19294 5.759 9.37844 7.2006 10.2417C8.08869 10.7746 9.07179 11.0885 10.0136 11.5057C10.3812 11.6668 10.7323 11.8527 11.038 12.1088C11.9426 12.8565 11.7774 14.0998 10.7034 14.5707C10.1292 14.8226 9.52203 14.8846 8.8983 14.8061C7.93586 14.6863 7.01472 14.4344 6.14728 13.9841C5.63921 13.7198 5.4905 13.79 5.31702 14.3394C5.16831 14.8144 5.03613 15.2935 4.90395 15.7727C4.72633 16.4171 4.79242 16.5699 5.40789 16.8715C6.19272 17.2515 7.03124 17.4456 7.88629 17.5819C8.55546 17.6893 8.57611 17.7182 8.58437 18.4122C8.5885 18.7261 8.5885 19.0442 8.59263 19.3581C8.59676 19.7547 8.78677 19.986 9.19571 19.9942C9.65834 20.0025 10.1251 20.0025 10.5877 19.9901C10.9678 19.9818 11.1619 19.7753 11.1619 19.3912C11.1619 18.9616 11.1826 18.5279 11.166 18.0983C11.1454 17.6604 11.3354 17.4374 11.7567 17.3217C12.7274 17.0573 13.5536 16.5369 14.1897 15.7603C15.9576 13.6124 15.2843 10.4689 12.7811 9.08516Z" fill="white"/>
</g>
<defs>
<clipPath id="clip0_21_14808">
<rect width="20" height="20" fill="white"/>
</clipPath>
</defs>
</svg>
