<svg width="18" height="14" viewBox="0 0 18 14" fill="none" xmlns="http://www.w3.org/2000/svg">
<path d="M15.7252 0.407471H2.27485C1.02052 0.407471 0 1.42799 0 2.68232V11.3175C0 12.5718 1.02052 13.5924 2.27485 13.5924H15.7252C16.9795 13.5924 18 12.5718 18 11.3175V2.68232C18 1.42799 16.9795 0.407471 15.7252 0.407471ZM15.3698 1.87486L9 6.79542L2.63025 1.87486H15.3698ZM15.7252 12.1251H2.27485C1.82964 12.1251 1.46739 11.7628 1.46739 11.3176V2.83082L8.55147 8.30321C8.68353 8.40524 8.84181 8.45621 9 8.45621C9.15819 8.45621 9.31647 8.40524 9.44853 8.30321L16.5326 2.83082V11.3175C16.5326 11.7628 16.1704 12.1251 15.7252 12.1251Z" fill="white"/>
</svg>
