<svg width="20" height="20" viewBox="0 0 20 20" fill="none" xmlns="http://www.w3.org/2000/svg">
<path fill-rule="evenodd" clip-rule="evenodd" d="M2 1H18V19H2V1ZM6 5C6 5.55228 5.55228 6 5 6C4.44772 6 4 5.55228 4 5C4 4.44772 4.44772 4 5 4C5.55228 4 6 4.44772 6 5ZM5 11C5.55228 11 6 10.5523 6 10C6 9.44771 5.55228 9 5 9C4.44772 9 4 9.44771 4 10C4 10.5523 4.44772 11 5 11ZM6 15C6 15.5523 5.55228 16 5 16C4.44772 16 4 15.5523 4 15C4 14.4477 4.44772 14 5 14C5.55228 14 6 14.4477 6 15ZM16 4H7V6H16V4ZM7 9H16V11H7V9ZM16 14H7V16H16V14Z" fill="white"/>
</svg>
