<svg width="120" height="30" viewBox="0 0 120 30" fill="none" xmlns="http://www.w3.org/2000/svg">
<mask id="path-1-inside-1_1_3634" fill="white">
<path fill-rule="evenodd" clip-rule="evenodd" d="M120 0V21L111 30H66.1417H61.4173H0V9L9 0H61.4173H66.1417H120Z"/>
</mask>
<path fill-rule="evenodd" clip-rule="evenodd" d="M120 0V21L111 30H66.1417H61.4173H0V9L9 0H61.4173H66.1417H120Z" fill="white" fill-opacity="0.12"/>
<path d="M120 21H121C121 21.2652 120.895 21.5196 120.707 21.7071L120 21ZM120 0V-1C120.552 -1 121 -0.552285 121 0L120 0ZM111 30L111.707 30.7071C111.52 30.8946 111.265 31 111 31V30ZM0 30V31C-0.552284 31 -1 30.5523 -1 30H0ZM0 9H-1C-1 8.73478 -0.894646 8.48043 -0.707108 8.29289L0 9ZM9 0L8.29289 -0.707107C8.48043 -0.894643 8.73479 -1 9 -1V0ZM119 21V0H121V21H119ZM110.293 29.2929L119.293 20.2929L120.707 21.7071L111.707 30.7071L110.293 29.2929ZM66.1417 29H111V31H66.1417V29ZM61.4173 29H66.1417V31H61.4173V29ZM0 29H61.4173V31H0V29ZM1 9V30H-1V9H1ZM9.70711 0.707107L0.707108 9.70711L-0.707108 8.29289L8.29289 -0.707107L9.70711 0.707107ZM61.4173 1H9V-1H61.4173V1ZM66.1417 1H61.4173V-1H66.1417V1ZM120 1H66.1417V-1H120V1Z" fill="white" mask="url(#path-1-inside-1_1_3634)"/>
</svg>
