<svg width="16" height="20" viewBox="0 0 16 20" fill="none" xmlns="http://www.w3.org/2000/svg">
<path d="M1 9C1 5.13401 4.13401 2 8 2C11.866 2 15 5.13401 15 9V13L16 16H0L1 13V9Z" fill="#C5D1DC"/>
<path d="M11 17C11 17.394 10.9224 17.7841 10.7716 18.1481C10.6209 18.512 10.3999 18.8427 10.1213 19.1213C9.84274 19.3999 9.51203 19.6209 9.14805 19.7716C8.78407 19.9224 8.39397 20 8 20C7.60603 20 7.21593 19.9224 6.85195 19.7716C6.48797 19.6209 6.15726 19.3999 5.87868 19.1213C5.6001 18.8427 5.37913 18.512 5.22836 18.1481C5.0776 17.7841 5 17.394 5 17L8 17H11Z" fill="#C5D1DC"/>
<path d="M6 2C6 0.89543 6.89543 0 8 0C9.10457 0 10 0.895431 10 2V4C10 5.10457 9.10457 6 8 6C6.89543 6 6 5.10457 6 4V2Z" fill="#C5D1DC"/>
</svg>
