<svg width="206" height="224" viewBox="0 0 206 224" fill="none" xmlns="http://www.w3.org/2000/svg">
    <g class="label-0">
        <path class="d d-0" opacity="0.4" d="M122.198 209.951V223.957L136.153 209.951H122.198Z" fill="#676863"/>
        <path class="d d-1" opacity="0.4" d="M104.485 209.682L104.754 223.687H118.709V209.682H104.485Z" fill="#676863"/>
        <path class="d d-2" opacity="0.4" d="M87.3098 209.682V223.687H101.265V209.682H87.3098Z" fill="#52544C"/>
        <path class="d d-3" opacity="0.4" d="M83.821 209.951H69.8657L83.821 223.957V209.951Z" fill="#52544C"/>
    </g>
    <g class="label-1">
        <path class="d d-0" opacity="0.4" d="M139.373 192.445L139.642 206.45L153.329 192.445H139.373Z" fill="#676863"/>
        <path class="d d-1" opacity="0.4" d="M136.153 206.45L135.885 192.445L122.198 206.45H136.153Z" fill="#676863"/>
        <path class="d d-1" d="M121.93 192.445V206.181L135.885 192.445H121.93Z" fill="#CACEC8"/>
        <path class="d d-2" d="M118.709 206.181L118.441 192.445L104.485 206.181H118.709Z" fill="#CACEC8"/>
        <path class="d d-2" d="M104.485 192.445L104.754 206.181L118.709 192.445H104.485Z" fill="#52544C"/>
        <path class="d d-3" d="M101.265 192.445H87.3098L100.997 206.181L101.265 192.445Z" fill="#52544C"/>
        <path class="d d-3" d="M83.821 192.445H69.8657L83.821 206.181V192.445Z" fill="#B2B2B2"/>
        <path class="d d-4" d="M87.3098 206.181H101.265L87.3098 192.445V206.181Z" fill="#B2B2B2"/>
        <path class="d d-4" opacity="0.4" d="M69.8657 206.45H83.821L69.8657 192.445V206.45Z" fill="#52544C"/>
        <path class="d d-5" opacity="0.4" d="M66.3768 192.445H52.4216L66.3768 206.45V192.445Z" fill="#52544C"/>
    </g>
    <g class="label-2">
        <path class="d d-0" opacity="0.4" d="M156.818 174.939V188.944L170.773 174.939H156.818Z" fill="#676863"/>
        <path class="d d-1" opacity="0.4" d="M153.329 188.944V174.939L139.373 188.944H153.329Z" fill="#676863"/>
        <path class="d d-1" d="M139.373 174.939V188.944L153.329 174.939H139.373Z" fill="#CACEC8"/>
        <path class="d d-2" d="M136.153 188.944L135.885 174.939L122.198 188.944H136.153Z" fill="#CACEC8"/>
        <path class="d d-2" d="M121.93 174.939V188.944L135.885 174.939H121.93Z" fill="#52544C"/>
        <path class="d d-3" d="M118.709 188.944L118.441 174.939L104.485 188.944H118.709Z" fill="#52544C"/>
        <path class="d d-4" d="M87.3098 188.944H101.265L87.3098 174.939V188.944Z" fill="#52544C"/>
        <path class="d d-5" d="M83.821 174.939H69.8657L83.821 188.944V174.939Z" fill="#52544C"/>
        <path class="d d-5" d="M69.8657 188.944H83.821L69.8657 174.939V188.944Z" fill="#B2B2B2"/>
        <path class="d d-6" d="M66.3768 174.939H52.4216L66.3768 188.944V174.939Z" fill="#B2B2B2"/>
        <path class="d d-6" opacity="0.4" d="M52.4216 188.944H66.3768L52.4216 174.939V188.944Z" fill="#52544C"/>
        <path class="d d-7" opacity="0.4" d="M48.9329 174.939H34.9777L48.9329 188.944V174.939Z" fill="#52544C"/>
    </g>
    <g class="label-3">
        <path class="d d-0" opacity="0.4" d="M174.262 157.433V171.438L188.217 157.433H174.262Z" fill="#676863"/>
        <path class="d d-1" opacity="0.4" d="M170.773 171.438V157.433L156.818 171.438H170.773Z" fill="#676863"/>
        <path class="d d-1" d="M156.818 157.433V171.438L170.773 157.433H156.818Z" fill="#FBD052"/>
        <path class="d d-2" d="M153.597 171.438L153.329 157.433L139.642 171.438H153.597Z" fill="#FBD052"/>
        <path class="d d-2" d="M139.373 157.433V171.438L153.329 157.433H139.373Z" fill="#52544C"/>
        <path class="d d-3" d="M135.885 171.438V157.433L121.93 171.438H135.885Z" fill="#52544C"/>
        <path class="d d-4" d="M104.485 157.433L104.754 171.438H118.709V157.433H104.485Z" fill="#FBD052"/>
        <path class="d d-5" d="M101.265 157.433H87.3098V171.438H100.997L101.265 157.433Z" fill="#E88718"/>
        <path class="d d-6" d="M69.8657 171.438H83.821L69.8657 157.433V171.438Z" fill="#52544C"/>
        <path class="d d-7" d="M66.3768 157.433H52.4216L66.3768 171.438V157.433Z" fill="#52544C"/>
        <path class="d d-7" d="M52.4216 171.438H66.3768L52.4216 157.433V171.438Z" fill="#985905"/>
        <path class="d d-8" d="M48.9329 157.433H34.9777L48.9329 171.438V157.433Z" fill="#985905"/>
        <path class="d d-8" opacity="0.4" d="M34.9777 171.438H48.9329L35.246 157.433L34.9777 171.438Z" fill="#52544C"/>
        <path class="d d-9" opacity="0.4" d="M31.4887 157.433H17.5334L31.4887 171.438V157.433Z" fill="#52544C"/>
    </g>
    <g class="label-4">
        <path class="d d-0" opacity="0.4" d="M191.705 139.926V153.931L205.661 139.926H191.705Z" fill="#676863"/>
        <path class="d d-1" opacity="0.4" d="M188.217 153.931V139.926L174.262 153.931H188.217Z" fill="#676863"/>
        <path class="d d-1" d="M174.262 139.926V153.931L188.217 139.926H174.262Z" fill="#FBD052"/>
        <path class="d d-2" d="M170.773 153.931V139.926L156.818 153.931H170.773Z" fill="#FBD052"/>
        <path class="d d-2" d="M153.329 153.931V139.926L139.373 153.931H153.329Z" fill="#52544C"/>
        <path class="d d-3" d="M156.818 139.926V153.931L170.773 139.926H156.818Z" fill="#52544C"/>
        <path class="d d-4" d="M121.93 139.926V153.931H135.885V139.926H121.93Z" fill="#FBD052"/>
        <path class="d d-5" d="M104.485 139.926L104.754 153.931H118.709V139.926H104.485Z" fill="#985905"/>
        <path class="d d-6" d="M101.265 139.926H87.3098V153.931H100.997L101.265 139.926Z" fill="#985905"/>
        <path class="d d-7" d="M83.821 139.926H69.8657V153.931H83.821V139.926Z" fill="#E88718"/>
        <path class="d d-8" d="M52.4216 153.931H66.3768L52.4216 139.926V153.931Z" fill="#52544C"/>
        <path class="d d-9" d="M48.9329 139.926H34.9777L48.9329 153.931V139.926Z" fill="#52544C"/>
        <path class="d d-9" d="M34.9777 153.931H48.9329L35.246 139.926L34.9777 153.931Z" fill="#985905"/>
        <path class="d d-10" d="M31.7572 139.926H17.802L31.7572 153.931V139.926Z" fill="#985905"/>
        <path class="d d-10" opacity="0.4" d="M17.5334 153.931H31.4887L17.8018 139.926L17.5334 153.931Z" fill="#52544C"/>
        <path class="d d-11" opacity="0.4" d="M14.3131 139.926H0.35791L14.3131 153.931V139.926Z" fill="#52544C"/>
    </g>
    <g class="label-5">
        <path class="d d-1" opacity="0.4" d="M191.705 122.419V136.425H205.661V122.419H191.705Z" fill="#676863"/>
        <path class="d d-2" d="M188.217 136.425V122.689L174.262 136.425H188.217Z" fill="#FBD052"/>
        <path class="d d-2" d="M174.262 122.419V136.425L188.217 122.419H174.262Z" fill="#52544C"/>
        <path class="d d-3" d="M170.773 136.425V122.419L156.818 136.425H170.773Z" fill="#52544C"/>
        <path class="d d-4" d="M139.373 122.419V136.425H153.329V122.419H139.373Z" fill="#FBD052"/>
        <path class="d d-5" d="M121.93 122.419V136.425L135.885 122.419H121.93Z" fill="#BE6D01"/>
        <path class="d d-6" d="M104.485 122.419L104.754 136.425L118.709 122.419H104.485Z" fill="#CACEC8"/>
        <path class="d d-7" d="M101.265 122.419H87.3098L101.265 136.425V122.419Z" fill="#939393"/>
        <path class="d d-8" d="M83.821 122.419H69.8657L83.821 136.425V122.419Z" fill="#B56308"/>
        <path class="d d-9" d="M52.4216 122.419V136.425H66.3768V122.419H52.4216Z" fill="#E88718"/>
        <path class="d d-10" d="M31.7572 122.419H17.802L31.4888 136.425L31.7572 122.419Z" fill="#52544C"/>
        <path class="d d-11" d="M34.9777 136.425H48.9329L34.9777 122.419V136.425Z" fill="#52544C"/>
        <path class="d d-11" d="M17.5334 136.425H31.7571L17.8018 122.689L17.5334 136.425Z" fill="#985905"/>
        <path class="d d-12" opacity="0.4" d="M0.35791 122.419V136.425H14.3131V122.419H0.35791Z" fill="#52544C"/>
    </g>
    <g class="label-6">
        <path class="d d-2" opacity="0.4" d="M191.705 104.913V118.918H205.661V104.913H191.705Z" fill="#676863"/>
        <path class="d d-3" d="M174.262 104.913V118.918H188.217V104.913H174.262Z" fill="#B2B2B2"/>
        <path class="d d-4" d="M170.773 104.913L156.818 105.182V118.918L170.773 104.913Z" fill="#FBD052"/>
        <path class="d d-5" d="M139.373 104.913V118.918L153.329 104.913H139.373Z" fill="#D47325"/>
        <path class="d d-6" d="M121.93 104.913V118.918L135.885 104.913H121.93Z" fill="#CACEC8"/>
        <path class="d d-7" d="M104.485 104.913L104.754 118.918H118.709V104.913H104.485Z" fill="#CACEC8"/>
        <path class="d d-8" d="M86.6111 104.913V118.918H100.566V104.913H86.6111Z" fill="#939393"/>
        <path class="d d-9" d="M83.821 104.913H69.8657L83.821 118.918V104.913Z" fill="#939393"/>
        <path class="d d-10" d="M66.3768 104.913H52.4216L66.3768 118.918V104.913Z" fill="#E88718"/>
        <path class="d d-11" d="M48.9329 118.918V105.182L34.9777 104.913L48.9329 118.918Z" fill="#E88718"/>
        <path class="d d-12" d="M17.5334 104.913L17.8018 118.918H31.4887V104.913H17.5334Z" fill="#B2B2B2"/>
        <path class="d d-13" opacity="0.4" d="M0.35791 104.913V118.918H14.3131V104.913H0.35791Z" fill="#52544C"/>

    </g>
    <g class="label-7">
        <path class="d d-3" opacity="0.4" d="M205.393 87.4065H191.437V101.412H205.393V87.4065Z" fill="#676863"/>
        <path class="d d-4" d="M188.217 87.6763H174.262L188.217 101.681V87.6763Z" fill="#EEE6AA"/>
        <path class="d d-4" d="M174.262 87.6763V101.412H188.217L174.262 87.6763Z" fill="#52544C"/>
        <path class="d d-5" d="M156.818 87.6763L170.773 101.412V87.6763H156.818Z" fill="#52544C"/>
        <path class="d d-5" d="M156.818 87.4065V101.412H170.773L156.818 87.4065Z" fill="#EEE6AA"/>
        <path class="d d-6" d="M139.373 87.6763V101.412H153.329V87.6763H139.373Z" fill="#EEE6AA"/>
        <path class="d d-7" d="M121.93 101.681L135.885 101.412L121.93 87.6763V101.681Z" fill="#E6EAE5"/>
        <path class="d d-8" d="M104.485 87.6763L104.754 101.412H118.709V87.6763H104.485Z" fill="#E6EAE5"/>
        <path class="d d-9" d="M86.6111 87.6763V101.412H100.566V87.6763H86.6111Z" fill="#B2B2B2"/>
        <path class="d d-10" d="M83.821 101.412V87.6763L69.8657 101.412H83.821Z" fill="#B2B2B2"/>
        <path class="d d-11" d="M52.4216 87.6763V101.412H66.3768V87.6763H52.4216Z" fill="#E88718"/>
        <path class="d d-12" d="M34.9777 101.412H48.9329V87.6763L34.9777 101.412Z" fill="#E88718"/>
        <path class="d d-12" d="M48.9329 87.6763H34.9777V101.412L48.9329 87.6763Z" fill="#52544C"/>
        <path class="d d-13" d="M17.802 101.412H31.4888L31.7572 87.4065L17.802 101.412Z" fill="#52544C"/>
        <path class="d d-13" d="M17.802 87.6763V101.681L31.7572 87.6763H17.802Z" fill="#E88718"/>
        <path class="d d-14" opacity="0.4" d="M0.35791 87.4065V101.412H14.3131V87.4065H0.35791Z" fill="#52544C"/>
    </g>
    <g class="label-8">
        <path class="d d-4" opacity="0.4" d="M188.217 70.1692H174.262L188.217 84.1743V70.1692Z" fill="#676863"/>
        <path class="d d-5" opacity="0.4" d="M191.437 84.1743H205.393L191.706 70.1692L191.437 84.1743Z" fill="#676863"/>
        <path class="d d-5" d="M174.262 84.1743H188.217L174.262 70.1692V84.1743Z" fill="#EEE6AA"/>
        <path class="d d-6" d="M156.818 70.1692V84.1743H170.773V70.1692H156.818Z" fill="#52544C"/>
        <path class="d d-7" d="M139.373 70.1692V84.1743H153.329V70.1692H139.373Z" fill="#EEE6AA"/>
        <path class="d d-8" d="M121.93 84.1743H135.885L121.93 70.1692V84.1743Z" fill="#D47325"/>
        <path class="d d-9" d="M104.754 84.1743H118.441L104.754 70.1692V84.1743Z" fill="#E6EAE5"/>
        <path class="d d-10" d="M101.265 84.1743V70.1692L87.3098 84.1743H101.265Z" fill="#B2B2B2"/>
        <path class="d d-11" d="M83.821 84.1743V70.1692L69.8657 84.1743H83.821Z" fill="#B56308"/>
        <path class="d d-12" d="M52.4216 70.1692V84.1743H66.3768V70.1692H52.4216Z" fill="#E88718"/>
        <path class="d d-13" d="M48.9329 70.1692H34.9777V84.1743H48.9329V70.1692Z" fill="#52544C"/>
        <path class="d d-14" d="M31.7572 84.1743V70.1692L17.802 84.1743H31.7572Z" fill="#E88718"/>
        <path class="d d-14" opacity="0.4" d="M17.5334 70.1692L17.8018 84.1743L31.4887 70.1692H17.5334Z" fill="#52544C"/>
        <path class="d d-15" opacity="0.4" d="M14.3131 84.1743V70.1692L0.35791 84.1743H14.3131Z" fill="#52544C"/>
        <path class="d d-15" opacity="0.4" d="M14.3131 84.1743V70.1692L0.35791 84.1743H14.3131Z" fill="#52544C"/>
    </g>
    <g class="label-9">
        <path class="d d-6" opacity="0.4" d="M188.217 52.6631H174.262V66.6682H188.217V52.6631Z" fill="#676863"/>
        <path class="d d-7" d="M170.773 52.6631H156.818L170.773 66.6682V52.6631Z" fill="#EEE6AA"/>
        <path class="d d-7" d="M156.818 52.6631V66.6682H170.773L156.818 52.6631Z" fill="#52544C"/>
        <path class="d d-8" d="M139.373 66.6682H153.329L139.373 52.6631V66.6682Z" fill="#EEE6AA"/>
        <path class="d d-9" d="M121.93 52.6631V66.6682H135.885V52.6631H121.93Z" fill="#EEE6AA"/>
        <path class="d d-10" d="M104.485 52.6631L104.754 66.6682H118.709V52.6631H104.485Z" fill="#E9C37F"/>
        <path class="d d-11" d="M87.3098 52.6631V66.6682H101.265V52.6631H87.3098Z" fill="#E88718"/>
        <path class="d d-12" d="M69.8657 52.6631V66.6682H83.821V52.6631H69.8657Z" fill="#E88718"/>
        <path class="d d-13" d="M66.3768 66.6682V52.6631L52.4216 66.6682H66.3768Z" fill="#E88718"/>
        <path class="d d-14" d="M34.9777 66.6682H48.9329V52.6631L34.9777 66.6682Z" fill="#52544C"/>
        <path class="d d-14" d="M34.9777 52.6631V66.6682L48.9329 52.6631H34.9777Z" fill="#E88718"/>
        <path class="d d-15" opacity="0.4" d="M17.5334 52.6631L17.8018 66.6682H31.4887V52.6631H17.5334Z" fill="#52544C"/>
    </g>

    <g class="label-10">
        <path class="d d-7" opacity="0.4" d="M174.262 35.1567V49.1619H188.217L174.262 35.1567Z" fill="#676863"/>
        <path class="d d-8" opacity="0.4" d="M170.773 49.1619V35.1567H156.818L170.773 49.1619Z" fill="#676863"/>
        <path class="d d-8" d="M156.818 49.1619H170.773L156.818 35.1567V49.1619Z" fill="#EEE6AA"/>
        <path class="d d-9" d="M139.373 35.1567V49.1619H153.329V35.1567H139.373Z" fill="#52544C"/>
        <path class="d d-10" d="M121.93 35.1567V49.1619H135.885V35.1567H121.93Z" fill="#52544C"/>
        <path class="d d-11" d="M104.485 35.1567L104.754 49.1619H118.709V35.1567H104.485Z" fill="#52544C"/>
        <path class="d d-12" d="M87.3098 35.1567V49.1619H101.265V35.1567H87.3098Z" fill="#52544C"/>
        <path class="d d-13" d="M69.8657 35.1567V49.1619H83.821V35.1567H69.8657Z" fill="#52544C"/>
        <path class="d d-14" d="M52.4216 35.1567V49.1619H66.3768V35.1567H52.4216Z" fill="#52544C"/>
        <path class="d d-15" d="M48.9329 49.1619V35.1567L34.9777 49.1619H48.9329Z" fill="#E88718"/>
        <path class="d d-15" opacity="0.4" d="M48.9329 35.1567H34.9777V49.1619L48.9329 35.1567Z" fill="#52544C"/>
        <path class="d d-16" opacity="0.4" d="M17.802 49.1619H31.4888L31.7572 35.1567L17.802 49.1619Z" fill="#52544C"/>
    </g>
    <g class="label-11">
        <path class="d d-8" opacity="0.4" d="M156.818 17.6501V31.6553H170.773V17.6501H156.818Z" fill="#676863"/>
        <path class="d d-9" d="M139.373 17.6501V31.6553H153.329V17.6501H139.373Z" fill="#C1C1C1"/>
        <path class="d d-10" d="M121.93 17.6501V31.6553H135.885V17.6501H121.93Z" fill="#C1C1C1"/>
        <path class="d d-11" d="M104.485 17.6501L104.754 31.6553H118.709V17.6501H104.485Z" fill="#C1C1C1"/>
        <path class="d d-12" d="M87.3098 17.6501V31.6553H101.265V17.6501H87.3098Z" fill="#9B9B9B"/>
        <path class="d d-13" d="M69.8657 17.6501V31.6553H83.821V17.6501H69.8657Z" fill="#9B9B9B"/>
        <path class="d d-14" d="M52.4216 17.6501V31.6553H66.3768V17.6501H52.4216Z" fill="#9B9B9B"/>
        <path class="d d-15" opacity="0.4" d="M34.9777 17.6501V31.6553H48.9329V17.6501H34.9777Z" fill="#52544C"/>
    </g>
    <g class="label-12">
        <path class="d d-9" opacity="0.4" d="M139.373 0.143799V14.1489H153.329V0.143799H139.373Z" fill="#676863"/>
        <path class="d d-10" opacity="0.4" d="M121.93 0.143799V14.1489H135.885V0.143799H121.93Z" fill="#676863"/>
        <path class="d d-11" opacity="0.4" d="M104.485 0.143799L104.754 14.1489H118.709V0.143799H104.485Z" fill="#676863"/>
        <path class="d d-12" opacity="0.4" d="M87.3098 0.143799V14.1489H101.265V0.143799H87.3098Z" fill="#52544C"/>
        <path class="d d-13" opacity="0.4" d="M69.8657 0.143799V14.1489H83.821V0.143799H69.8657Z" fill="#52544C"/>
        <path class="d d-14" opacity="0.4" d="M52.4216 0.143799V14.1489H66.3768V0.143799H52.4216Z" fill="#52544C"/>
    </g>
</svg>
