<svg width="533" height="756" viewBox="0 0 533 756" fill="none" xmlns="http://www.w3.org/2000/svg">
<path d="M58.8652 750.607L58.8538 750.596L58.8421 750.586L38.264 731.741C35.2203 728.939 33.5018 724.901 33.5018 720.728V78.2895V78.2784L33.5016 78.2672C33.38 70.1125 40.0745 63.5 48.2784 63.5H499.583C503.481 63.5 507.272 65.0858 510.091 67.9067L526.098 83.927C528.917 86.748 530.502 90.5423 530.502 94.4445V628.645C530.502 632.547 528.917 636.342 526.098 639.163L479.555 685.743C476.724 688.577 475.081 692.456 475.081 696.496V709.689C475.081 713.591 473.496 717.386 470.677 720.207L440.704 750.205C440.7 750.208 440.696 750.212 440.691 750.216C437.866 752.915 434.068 754.5 430.172 754.5H68.8595C65.1783 754.5 61.5235 753.147 58.8652 750.607Z" fill="#121E2B" fill-opacity="0.3" stroke="#FF4654" stroke-width="3"/>
<path d="M531 247H525V281H531V247Z" fill="#FF4654"/>
<path d="M40 312H34V328H40V312Z" fill="#FF4654"/>
<path d="M40 203H34V219H40V203Z" fill="#FF4654"/>
<path d="M40 363H34V423H40V363Z" fill="#FF4654"/>
<path d="M531 191H525V225H531V191Z" fill="#FF4654"/>
<path d="M0 521.459L25 514V529.541L0 537V521.459Z" fill="#FF4654"/>
<path d="M0 500.459L25 493V508.541L0 516V500.459Z" fill="#FF4654"/>
<path d="M0 479.459L25 472V487.541L0 495V479.459Z" fill="#FF4654"/>
<path d="M0 543.459L25 536V551.541L0 559V543.459Z" fill="#FF4654"/>
<path d="M59.5 15C59.5 7.54416 65.5442 1.5 73 1.5H313.565C322.725 1.5 331.12 6.61023 335.328 14.7473L360.536 63.5H59.5V15Z" fill="#FF4654" fill-opacity="0.56" stroke="#FF4654" stroke-width="3"/>
<path d="M61 38L70 48V63H61V38Z" fill="#FF4654"/>
<path d="M110 0L118.917 9H210V0H110Z" fill="#FF4654"/>
</svg>
