<svg width="284" height="600" viewBox="0 0 284 600" fill="none" xmlns="http://www.w3.org/2000/svg">
<path d="M15.3473 596.861L15.3549 596.868C16.8342 598.256 18.8747 599 20.9361 599H226.161C228.339 599 230.462 598.13 232.039 596.652C232.042 596.649 232.044 596.646 232.047 596.644L249.07 579.918C250.642 578.374 251.521 576.301 251.521 574.175V566.818C251.521 564.515 252.475 562.309 254.112 560.7L280.549 534.725C282.121 533.181 283 531.108 283 528.982V18.0922C283 15.9666 282.121 13.894 280.549 12.3494L271.456 3.41588L272.155 2.70518L271.456 3.41588C269.884 1.87087 267.766 1 265.586 1H9.24608C4.64823 1 0.933534 4.63306 1.00091 9.06846L1.00103 9.07606V9.08365V580.331C1.00103 582.607 1.95525 584.812 3.64941 586.344L15.3473 596.861ZM15.3473 596.861L15.3394 596.854L3.65141 586.346L15.3473 596.861Z" fill="#121E2B" fill-opacity="0.3" stroke="#FF4654" stroke-width="2"/>
<path d="M281.468 102.892H278.153V121.873H281.468V102.892Z" fill="#FF4654"/>
<path d="M5.27554 139.18H1.96094V148.112H5.27554V139.18Z" fill="#FF4654"/>
<path d="M5.27554 78.3286H1.96094V87.2609H5.27554V78.3286Z" fill="#FF4654"/>
<path d="M5.27554 167.651H1.96094V201.147H5.27554V167.651Z" fill="#FF4654"/>
<path d="M281.468 71.6294H278.153V90.6105H281.468V71.6294Z" fill="#FF4654"/>
</svg>
