<svg width="284" height="591" viewBox="0 0 284 591" fill="none" xmlns="http://www.w3.org/2000/svg">
<path d="M15.3473 587.861L15.3549 587.868C16.8342 589.256 18.8747 590 20.9361 590H226.161C228.339 590 230.462 589.13 232.039 587.652C232.042 587.649 232.044 587.646 232.047 587.644L249.07 570.918C250.642 569.374 251.521 567.301 251.521 565.175V557.818C251.521 555.515 252.475 553.309 254.112 551.7L280.549 525.725C282.121 524.181 283 522.108 283 519.982V53.0922C283 50.9666 282.121 48.894 280.549 47.3494L271.456 38.4159L272.155 37.7052L271.456 38.4159C269.884 36.8709 267.766 36 265.586 36H9.24608C4.64823 36 0.933534 39.6331 1.00091 44.0685L1.00103 44.0761V44.0837V571.331C1.00103 573.607 1.95525 575.812 3.64941 577.344L15.3473 587.861ZM15.3473 587.861L15.3394 587.854L3.65141 577.346L15.3473 587.861Z" fill="#121E2B" fill-opacity="0.3" stroke="#FF4654" stroke-width="2"/>
<path d="M281.468 137.892H278.153V156.873H281.468V137.892Z" fill="#FF4654"/>
<path d="M5.2751 174.18H1.9605V183.112H5.2751V174.18Z" fill="#FF4654"/>
<path d="M5.2751 113.329H1.9605V122.261H5.2751V113.329Z" fill="#FF4654"/>
<path d="M5.2751 202.652H1.9605V236.148H5.2751V202.652Z" fill="#FF4654"/>
<path d="M281.468 106.629H278.153V125.61H281.468V106.629Z" fill="#FF4654"/>
<path d="M21 9C21 4.58172 24.5817 1 29 1H160.64C166.248 1 171.387 4.12761 173.963 9.1081L187.357 35H21V9Z" fill="#FF4654" fill-opacity="0.56" stroke="#FF4654" stroke-width="2"/>
<path d="M21 21L25.9719 26.5827V34.9567H21V21Z" fill="#FF4654"/>
<path d="M50.8722 2L55.7983 7.02442H106.115V2H50.8722Z" fill="#FF4654"/>
</svg>
