<svg width="533" height="555" viewBox="0 0 533 555" fill="none" xmlns="http://www.w3.org/2000/svg">
<path d="M58.8652 549.607L58.8538 549.596L58.8421 549.586L38.264 530.741C38.2631 530.74 38.2622 530.74 38.2613 530.739C35.2193 527.936 33.5018 523.9 33.5018 519.728V78.2895V78.2784L33.5016 78.2672C33.38 70.1125 40.0745 63.5 48.2784 63.5H499.583C503.481 63.5 507.272 65.0858 510.091 67.9067L526.098 83.927C528.917 86.748 530.502 90.5423 530.502 94.4445V427.645C530.502 431.548 528.917 435.342 526.098 438.163L479.555 484.743C476.724 487.577 475.081 491.456 475.081 495.496V508.689C475.081 512.591 473.496 516.386 470.677 519.207L440.704 549.205C440.7 549.208 440.696 549.212 440.691 549.216C437.866 551.915 434.068 553.5 430.172 553.5H68.8595C65.1783 553.5 61.5234 552.147 58.8652 549.607Z" fill="#121E2B" fill-opacity="0.3" stroke="#FF4654" stroke-width="3"/>
<path d="M531 247H525V281H531V247Z" fill="#FF4654"/>
<path d="M40 312H34V328H40V312Z" fill="#FF4654"/>
<path d="M40 203H34V219H40V203Z" fill="#FF4654"/>
<path d="M40 363H34V423H40V363Z" fill="#FF4654"/>
<path d="M531 191H525V225H531V191Z" fill="#FF4654"/>
<path d="M0 423.459L25 416V431.541L0 439V423.459Z" fill="#FF4654"/>
<path d="M0 402.459L25 395V410.541L0 418V402.459Z" fill="#FF4654"/>
<path d="M0 381.459L25 374V389.541L0 397V381.459Z" fill="#FF4654"/>
<path d="M0 445.459L25 438V453.541L0 461V445.459Z" fill="#FF4654"/>
<path d="M59.5 15C59.5 7.54416 65.5442 1.5 73 1.5H313.565C322.725 1.5 331.12 6.61023 335.328 14.7473L360.536 63.5H59.5V15Z" fill="#FF4654" fill-opacity="0.56" stroke="#FF4654" stroke-width="3"/>
<path d="M61 38L70 48V63H61V38Z" fill="#FF4654"/>
<path d="M110 0L118.917 9H210V0H110Z" fill="#FF4654"/>
</svg>
