<svg width="573" height="678" viewBox="0 0 573 678" fill="none" xmlns="http://www.w3.org/2000/svg">
<path d="M58.8652 672.607L58.8538 672.596L58.8421 672.586L38.264 653.741C35.2203 650.939 33.5018 646.901 33.5018 642.728V16.2895V16.2784L33.5016 16.2672C33.38 8.11252 40.0745 1.5 48.2784 1.5H539.583C543.481 1.5 547.272 3.08577 550.091 5.90671L566.098 21.927C568.917 24.748 570.502 28.5424 570.502 32.4445V291.545V550.645C570.502 554.547 568.917 558.342 566.098 561.163L519.555 607.743C516.724 610.577 515.081 614.456 515.081 618.496V631.689C515.081 635.591 513.496 639.386 510.677 642.207L480.704 672.205C480.7 672.208 480.696 672.212 480.691 672.216C477.866 674.915 474.068 676.5 470.172 676.5H68.8595C65.1783 676.5 61.5235 675.147 58.8652 672.607Z" fill="#121E2B" fill-opacity="0.3" stroke="#FF4654" stroke-width="3"/>
<path d="M571 185H565V219H571V185Z" fill="#FF4654"/>
<path d="M40 250H34V266H40V250Z" fill="#FF4654"/>
<path d="M40 141H34V157H40V141Z" fill="#FF4654"/>
<path d="M40 301H34V361H40V301Z" fill="#FF4654"/>
<path d="M571 129H565V163H571V129Z" fill="#FF4654"/>
<path d="M0 459.459L25 452V467.541L0 475V459.459Z" fill="#FF4654"/>
<path d="M0 438.459L25 431V446.541L0 454V438.459Z" fill="#FF4654"/>
<path d="M0 417.459L25 410V425.541L0 433V417.459Z" fill="#FF4654"/>
<path d="M0 481.459L25 474V489.541L0 497V481.459Z" fill="#FF4654"/>
</svg>
