<svg width="284" height="453" viewBox="0 0 284 453" fill="none" xmlns="http://www.w3.org/2000/svg">
<path d="M15.355 449.868L15.3473 449.861L15.3394 449.854L3.65141 439.346C1.95599 437.813 1.00103 435.608 1.00103 433.331V44.0837V44.0761L1.00091 44.0685C0.933534 39.6331 4.64823 36 9.24608 36H265.586C267.766 36 269.884 36.8709 271.456 38.4159L272.156 37.7039L271.456 38.4159L280.549 47.3494C282.121 48.894 283 50.9666 283 53.0922V381.982C283 384.108 282.121 386.181 280.549 387.725L254.112 413.7C252.475 415.309 251.521 417.515 251.521 419.818V427.175C251.521 429.301 250.642 431.374 249.07 432.918L232.047 449.644C232.044 449.646 232.042 449.649 232.039 449.651C230.462 451.13 228.339 452 226.161 452H20.9361C18.8747 452 16.8342 451.256 15.355 449.868Z" fill="#121E2B" fill-opacity="0.3" stroke="#FF4654" stroke-width="2"/>
<path d="M281.467 137.892H278.153V156.873H281.467V137.892Z" fill="#FF4654"/>
<path d="M5.27505 174.18H1.96045V183.112H5.27505V174.18Z" fill="#FF4654"/>
<path d="M5.27505 113.329H1.96045V122.261H5.27505V113.329Z" fill="#FF4654"/>
<path d="M5.27505 202.651H1.96045V236.147H5.27505V202.651Z" fill="#FF4654"/>
<path d="M281.467 106.629H278.153V125.611H281.467V106.629Z" fill="#FF4654"/>
<path d="M21 9C21 4.58172 24.5817 1 29 1H160.64C166.248 1 171.387 4.12761 173.963 9.1081L187.357 35H21V9Z" fill="#FF4654" fill-opacity="0.56" stroke="#FF4654" stroke-width="2"/>
<path d="M21.9998 21L26.9717 26.5827V34.9567H21.9998V21Z" fill="#FF4654"/>
<path d="M50.8724 2L55.7986 7.02442H106.116V2H50.8724Z" fill="#FF4654"/>
</svg>
