<svg width="386" height="448" viewBox="0 0 386 448" fill="none" xmlns="http://www.w3.org/2000/svg">
<path d="M368 443.002H18C10.268 443.002 4 436.734 4 429.002V54.7994C4 49.4522 6.25317 44.3526 10.2065 40.7521L45.1225 8.95268C48.6214 5.76612 53.1835 4 57.916 4H368C375.732 4 382 10.268 382 18V429.002C382 436.734 375.732 443.002 368 443.002Z" fill="#111F2F"/>
<g filter="url(#filter0_d_488_8672)">
<path d="M18 442.5H368C374.904 442.5 380.5 436.904 380.5 430V18C380.5 11.0964 374.904 5.5 368 5.5H57.9283C53.5627 5.5 49.3546 7.13177 46.1303 10.075L11.2019 41.958C7.56952 45.2737 5.5 49.9648 5.5 54.883V430C5.5 436.904 11.0964 442.5 18 442.5Z" stroke="#2EFDC5" stroke-width="3"/>
</g>
<defs>
<filter id="filter0_d_488_8672" x="0" y="0" width="386" height="448" filterUnits="userSpaceOnUse" color-interpolation-filters="sRGB">
<feFlood flood-opacity="0" result="BackgroundImageFix"/>
<feColorMatrix in="SourceAlpha" type="matrix" values="0 0 0 0 0 0 0 0 0 0 0 0 0 0 0 0 0 0 127 0" result="hardAlpha"/>
<feOffset/>
<feGaussianBlur stdDeviation="2"/>
<feColorMatrix type="matrix" values="0 0 0 0 0.180392 0 0 0 0 0.992157 0 0 0 0 0.772549 0 0 0 0.56 0"/>
<feBlend mode="normal" in2="BackgroundImageFix" result="effect1_dropShadow_488_8672"/>
<feBlend mode="normal" in="SourceGraphic" in2="effect1_dropShadow_488_8672" result="shape"/>
</filter>
</defs>
</svg>
