<svg width="16" height="18" viewBox="0 0 16 18" fill="none" xmlns="http://www.w3.org/2000/svg">
<path d="M15.1719 12.7266C15.5602 12.7266 15.875 12.4118 15.875 12.0234V9.42188C15.875 7.87106 14.6133 6.60938 13.0625 6.60938H12.2174V4.12966C12.2174 1.85256 10.3249 0 7.9987 0C5.67248 0 3.77995 1.85256 3.77995 4.12966V6.60938H2.9375C1.38669 6.60938 0.125 7.87106 0.125 9.42188V15.1875C0.125 16.7383 1.38669 18 2.9375 18H13.0625C14.6133 18 15.875 16.7383 15.875 15.1875C15.875 14.7992 15.5602 14.4844 15.1719 14.4844C14.7835 14.4844 14.4688 14.7992 14.4688 15.1875C14.4688 15.9629 13.8379 16.5938 13.0625 16.5938H2.9375C2.16209 16.5938 1.53125 15.9629 1.53125 15.1875V9.42188C1.53125 8.64647 2.16209 8.01562 2.9375 8.01562H13.0625C13.8379 8.01562 14.4688 8.64647 14.4688 9.42188V12.0234C14.4688 12.4118 14.7835 12.7266 15.1719 12.7266ZM10.8112 6.60938H5.1862V4.12966C5.1862 2.62796 6.44789 1.40625 7.9987 1.40625C9.54951 1.40625 10.8112 2.62796 10.8112 4.12966V6.60938Z" fill="white"/>
</svg>
