<svg width="51" height="51" viewBox="0 0 51 51" fill="none" xmlns="http://www.w3.org/2000/svg">
<g opacity="0.5">
<path d="M9.14098 20.8455C8.97405 20.5106 8.70999 20.2344 8.38219 20.027C8.04023 19.8176 7.63655 19.6709 7.1752 19.5838C6.70576 19.4989 6.16348 19.4604 5.5352 19.4543L2.63458 19.4564C2.33309 19.4604 2.03767 19.6951 1.96685 19.9865L0.0152301 28.487C-0.0555906 28.7743 0.133602 29.0151 0.435096 29.0151H1.82419C2.12569 29.0151 2.42414 28.7814 2.49092 28.487L2.96744 26.4231C3.03118 26.1358 3.32863 25.896 3.63316 25.896H4.03076C5.72945 25.894 7.04469 25.5469 7.98964 24.8519C8.93965 24.1558 9.40808 23.2362 9.40808 22.097C9.40706 21.5982 9.32511 21.1793 9.14098 20.8455ZM6.14527 23.6227C5.7254 23.9302 5.14164 24.084 4.38891 24.084H4.04897C3.74647 24.084 3.56132 23.8452 3.62708 23.5539L4.04493 21.7489C4.10361 21.4596 4.40814 21.2198 4.70659 21.2218L5.16187 21.2188C5.69303 21.2188 6.09873 21.3109 6.36987 21.4889C6.63798 21.665 6.77253 21.9452 6.77051 22.3165C6.7786 22.8811 6.56311 23.3151 6.14527 23.6227Z" fill="white"/>
<path d="M48.7398 20.1201L48.6527 20.1464L48.5364 20.1626L48.3937 20.1403L48.3209 20.0695L48.2875 19.9582L48.2855 19.7913V19.1731H48.7499V18.9819H48.2855V18.5964H48.0558V18.9819H47.9V19.1731H48.0558V19.8925L48.1631 20.2486L48.4787 20.3619L48.6113 20.3508L48.7519 20.3234V20.1201H48.7398Z" fill="white"/>
<path d="M50.8937 19.0802L50.5619 18.9436L50.317 18.9932L50.0681 19.1611L49.9235 19.0003L49.6887 18.9446L49.4631 18.9942L49.2497 19.1318V18.982H49.024V20.3327H49.2487V19.324L49.4378 19.2067L49.626 19.1601L49.7798 19.1874L49.8557 19.2653L49.8891 19.3948L49.9002 19.5618V20.3337H50.1258V19.4697L50.1218 19.3979L50.1177 19.3321L50.3099 19.2097L50.5002 19.1621L50.6489 19.1895L50.7298 19.2674L50.7581 19.3979L50.7733 19.5628V20.3347H50.9999V19.4576L50.8937 19.0802Z" fill="white"/>
<path d="M15.8395 22.0606C15.3155 21.7651 14.4879 21.6174 13.3568 21.6174C12.7973 21.6174 12.2398 21.6609 11.6763 21.7479C11.2605 21.8117 11.22 21.8238 10.9641 21.8795C10.4359 21.9948 10.353 22.5219 10.353 22.5219L10.183 23.221C10.0869 23.6672 10.3439 23.65 10.4511 23.6126C10.6818 23.5438 10.8103 23.4729 11.2817 23.3677C11.7319 23.2655 12.2064 23.1886 12.5828 23.1937C13.1382 23.1937 13.5632 23.2524 13.8465 23.3718C14.1257 23.4932 14.2653 23.7016 14.2653 24.0031L14.241 24.1994L14.0407 24.3228C13.2526 24.3724 12.683 24.4452 11.992 24.5454C11.3161 24.6395 10.7233 24.8044 10.2306 25.03C9.70142 25.2627 9.30887 25.5753 9.03469 25.9729C8.76962 26.3725 8.63708 26.8572 8.63708 27.4257C8.63708 27.9609 8.82931 28.4031 9.20264 28.745C9.57799 29.0809 10.0737 29.2448 10.6666 29.2448C11.042 29.2428 11.3323 29.2135 11.5387 29.1639L12.2115 28.9322L12.7811 28.6165L13.3052 28.2705L13.3123 28.2806L13.2597 28.5032L13.2566 28.5123V28.5144C13.2 28.7855 13.3639 29.0081 13.6279 29.0344L13.633 29.0405H13.6573H14.7226H14.9229L14.9411 29.0324C15.2183 29 15.4784 28.7774 15.5391 28.5123L16.5518 24.1285L16.6044 23.7714L16.6287 23.4365C16.6327 22.8153 16.3646 22.355 15.8395 22.0606ZM13.5996 26.9897L13.3831 27.275L12.8368 27.5573C12.5798 27.6615 12.3359 27.7141 12.1103 27.7141C11.7684 27.7141 11.5003 27.6645 11.3192 27.5633L11.0511 27.0423C11.0511 26.76 11.1158 26.5364 11.2544 26.3644L11.8432 25.9638C12.0952 25.8788 12.4027 25.807 12.7588 25.7574C13.0765 25.7179 13.7038 25.6461 13.7857 25.6441L13.8819 25.8131C13.8626 25.9092 13.6846 26.6538 13.5996 26.9897Z" fill="white"/>
<path d="M41.0699 22.0667C40.5428 21.7713 39.7162 21.6226 38.5881 21.6226C38.0287 21.6226 37.4702 21.6661 36.9087 21.7561C36.4918 21.8168 36.4504 21.83 36.1934 21.8846C35.6663 21.9989 35.5843 22.5281 35.5843 22.5281L35.4144 23.2261C35.3193 23.6723 35.5702 23.6521 35.6875 23.6177C35.9192 23.5489 36.0437 23.4811 36.5111 23.3718C36.9593 23.2707 37.4378 23.1958 37.8152 23.1978C38.3686 23.1978 38.7935 23.2575 39.0758 23.3769C39.357 23.4983 39.4946 23.7087 39.4946 24.0072L39.4734 24.2025L39.2751 24.3289C38.4789 24.3765 37.9083 24.4493 37.2243 24.5495C36.5505 24.6436 35.9556 24.8075 35.4619 25.0341C34.9348 25.2678 34.5372 25.5804 34.2661 25.979C33.9979 26.3787 33.8674 26.8623 33.8674 27.4258C33.8674 27.9651 34.0576 28.4072 34.436 28.7471C34.8134 29.082 35.3041 29.2499 35.8969 29.2499C36.2703 29.2459 36.5606 29.2216 36.768 29.168L37.4388 28.9394L38.0135 28.6237L38.5335 28.2736L38.5426 28.2848L38.4951 28.5094L38.49 28.5134L38.492 28.5175C38.4293 28.7886 38.5942 29.0132 38.8613 29.0375L38.8633 29.0425H38.8876C39.0626 29.0425 39.6676 29.0425 39.956 29.0425H40.1523L40.1735 29.0355C40.4477 29.0021 40.7067 28.7795 40.7644 28.5114L41.7801 24.1337L41.8337 23.7745L41.8631 23.4386C41.8641 22.8194 41.599 22.3611 41.0699 22.0667ZM38.835 26.9958L38.6094 27.2842L38.0681 27.5644C37.8111 27.6676 37.5663 27.7212 37.3447 27.7212C36.9916 27.7212 36.7306 27.6706 36.5546 27.5695L36.2834 27.0505C36.2834 26.7672 36.3492 26.5456 36.4817 26.3706C36.6163 26.2057 36.8217 26.0701 37.0766 25.971C37.3255 25.886 37.6331 25.8172 37.9912 25.7656C38.3069 25.7261 38.9321 25.6523 39.0131 25.6512L39.1112 25.8202C39.097 25.9163 38.918 26.6579 38.835 26.9958Z" fill="white"/>
<path d="M34.3672 20.877C34.1932 20.5401 33.9322 20.2679 33.6023 20.0555C33.2644 19.845 32.8638 19.6973 32.3954 19.6123C31.935 19.5304 31.3857 19.4859 30.7614 19.4849L27.8568 19.4869C27.5543 19.4919 27.2639 19.7267 27.1941 20.015L25.2404 28.5196C25.1696 28.8079 25.3639 29.0467 25.6593 29.0467L27.0504 29.0446C27.3458 29.0467 27.6483 28.8099 27.7182 28.5185L28.1886 26.4536C28.2574 26.1663 28.5559 25.9245 28.8563 25.9265H29.2539C30.9547 25.9265 32.2729 25.5765 33.2219 24.8834C34.1598 24.1823 34.6343 23.2647 34.6343 22.1245C34.6292 21.6277 34.5432 21.2078 34.3672 20.877ZM31.3715 23.6582C30.9526 23.9597 30.3679 24.1135 29.6192 24.1135H29.2732C28.9747 24.1165 28.7815 23.8737 28.8482 23.5844L29.2691 21.7825C29.3308 21.4941 29.6323 21.2523 29.9328 21.2554L30.383 21.2523C30.9172 21.2554 31.3179 21.3434 31.591 21.5215C31.8632 21.6995 31.9917 21.9788 31.9947 22.3491C31.9977 22.9136 31.7883 23.3486 31.3715 23.6582Z" fill="white"/>
<path d="M46.2783 20.0826C46.342 19.7923 46.1599 19.5566 45.8615 19.5606H44.617C44.3621 19.5606 44.1324 19.7498 44.0201 19.9825L43.9513 20.0897L43.8886 20.3649L42.1494 28.2705L42.0928 28.5133L42.0948 28.5194C42.0371 28.7794 42.197 28.9757 42.4438 29.0131L42.4651 29.0425H43.7571C44.01 29.0425 44.2477 28.8502 44.356 28.6135L44.4228 28.5123L46.2823 20.0837L46.2783 20.0826Z" fill="white"/>
<path d="M25.279 21.7237C24.9501 21.7278 23.6137 21.7237 23.6137 21.7237C23.3142 21.7237 22.9297 21.9656 22.7395 22.2539C22.7395 22.2539 20.7505 25.6674 20.5572 26.0104L20.3266 26.0074L19.7074 22.2772C19.6386 21.9838 19.332 21.7329 18.9506 21.7329L17.7062 21.7349C17.4067 21.7349 17.2226 21.9736 17.2904 22.265C17.2904 22.265 18.2353 27.6423 18.4245 28.908C18.5125 29.6061 18.4134 29.7305 18.4134 29.7305L17.1831 31.8734C17.001 32.1647 17.0992 32.4025 17.3976 32.4025L18.8363 32.4005C19.1358 32.4005 19.5293 32.1647 19.7074 31.8724L25.2415 22.5119C25.2415 22.5129 25.7737 21.7126 25.279 21.7237Z" fill="white"/>
</g>
</svg>
