<svg width="680" height="300" viewBox="0 0 680 300" fill="none" xmlns="http://www.w3.org/2000/svg">
<path d="M0 0V3.49776H3.48168V0H0ZM17.1406 0V3.49776H20.6223V0H17.1406ZM34.549 0V3.49776H38.0307V0H34.549ZM51.9575 0V3.49776H55.4392V0H51.9575ZM69.3659 0V3.49776H72.8476V0H69.3659ZM86.5065 0V3.49776H89.9882V0H86.5065ZM103.915 0V3.49776H107.397V0H103.915ZM121.323 0V3.49776H124.805V0H121.323ZM138.732 0V3.49776H142.213V0H138.732ZM156.14 0V3.49776H159.622V0H156.14ZM173.281 0V3.49776H176.763V0H173.281ZM190.689 0V3.49776H194.171V0H190.689ZM208.098 0V3.49776H211.579V0H208.098ZM225.506 0V3.49776H228.988V0H225.506ZM242.915 0V3.49776H246.396V0H242.915ZM260.055 0V3.49776H263.537V0H260.055ZM277.464 0V3.49776H280.945V0H277.464ZM294.872 0V3.49776H298.354V0H294.872ZM312.28 0V3.49776H315.762V0H312.28ZM329.421 0V3.49776H332.903V0H329.421ZM346.829 0V3.49776H350.311V0H346.829ZM364.238 0V3.49776H367.72V0H364.238ZM381.646 0V3.49776H385.128V0H381.646ZM399.055 0V3.49776H402.536V0H399.055ZM416.195 0V3.49776H419.677V0H416.195ZM433.604 0V3.49776H437.086V0H433.604ZM451.012 0V3.49776H454.494V0H451.012ZM468.421 0V3.49776H471.902V0H468.421ZM485.561 0V3.49776H489.043V0H485.561ZM502.97 0V3.49776H506.451V0H502.97ZM520.378 0V3.49776H523.86V0H520.378ZM537.787 0V3.49776H541.268V0H537.787ZM555.195 0V3.49776H558.677V0H555.195ZM572.336 0V3.49776H575.817V0H572.336ZM589.744 0V3.49776H593.226V0H589.744ZM607.152 0V3.49776H610.634V0H607.152ZM624.561 0V3.49776H628.042V0H624.561ZM641.701 0V3.49776H645.183V0H641.701ZM659.11 0V3.49776H662.592V0H659.11ZM676.518 0V3.49776H680V0H676.518ZM0 17.4888V20.9865H3.48168V17.4888H0ZM17.1406 17.4888V20.9865H20.6223V17.4888H17.1406ZM34.549 17.4888V20.9865H38.0307V17.4888H34.549ZM51.9575 17.4888V20.9865H55.4392V17.4888H51.9575ZM69.3659 17.4888V20.9865H72.8476V17.4888H69.3659ZM86.5065 17.4888V20.9865H89.9882V17.4888H86.5065ZM103.915 17.4888V20.9865H107.397V17.4888H103.915ZM121.323 17.4888V20.9865H124.805V17.4888H121.323ZM138.732 17.4888V20.9865H142.213V17.4888H138.732ZM156.14 17.4888V20.9865H159.622V17.4888H156.14ZM173.281 17.4888V20.9865H176.763V17.4888H173.281ZM190.689 17.4888V20.9865H194.171V17.4888H190.689ZM208.098 17.4888V20.9865H211.579V17.4888H208.098ZM225.506 17.4888V20.9865H228.988V17.4888H225.506ZM242.915 17.4888V20.9865H246.396V17.4888H242.915ZM260.055 17.4888V20.9865H263.537V17.4888H260.055ZM277.464 17.4888V20.9865H280.945V17.4888H277.464ZM294.872 17.4888V20.9865H298.354V17.4888H294.872ZM312.28 17.4888V20.9865H315.762V17.4888H312.28ZM329.421 17.4888V20.9865H332.903V17.4888H329.421ZM346.829 17.4888V20.9865H350.311V17.4888H346.829ZM364.238 17.4888V20.9865H367.72V17.4888H364.238ZM381.646 17.4888V20.9865H385.128V17.4888H381.646ZM399.055 17.4888V20.9865H402.536V17.4888H399.055ZM416.195 17.4888V20.9865H419.677V17.4888H416.195ZM433.604 17.4888V20.9865H437.086V17.4888H433.604ZM451.012 17.4888V20.9865H454.494V17.4888H451.012ZM468.421 17.4888V20.9865H471.902V17.4888H468.421ZM485.561 17.4888V20.9865H489.043V17.4888H485.561ZM502.97 17.4888V20.9865H506.451V17.4888H502.97ZM520.378 17.4888V20.9865H523.86V17.4888H520.378ZM537.787 17.4888V20.9865H541.268V17.4888H537.787ZM555.195 17.4888V20.9865H558.677V17.4888H555.195ZM572.336 17.4888V20.9865H575.817V17.4888H572.336ZM589.744 17.4888V20.9865H593.226V17.4888H589.744ZM607.152 17.4888V20.9865H610.634V17.4888H607.152ZM624.561 17.4888V20.9865H628.042V17.4888H624.561ZM641.701 17.4888V20.9865H645.183V17.4888H641.701ZM659.11 17.4888V20.9865H662.592V17.4888H659.11ZM676.518 17.4888V20.9865H680V17.4888H676.518ZM0 34.9776V38.4753H3.48168V34.9776H0ZM17.1406 34.9776V38.4753H20.6223V34.9776H17.1406ZM34.549 34.9776V38.4753H38.0307V34.9776H34.549ZM51.9575 34.9776V38.4753H55.4392V34.9776H51.9575ZM69.3659 34.9776V38.4753H72.8476V34.9776H69.3659ZM86.5065 34.9776V38.4753H89.9882V34.9776H86.5065ZM103.915 34.9776V38.4753H107.397V34.9776H103.915ZM121.323 34.9776V38.4753H124.805V34.9776H121.323ZM138.732 34.9776V38.4753H142.213V34.9776H138.732ZM156.14 34.9776V38.4753H159.622V34.9776H156.14ZM173.281 34.9776V38.4753H176.763V34.9776H173.281ZM190.689 34.9776V38.4753H194.171V34.9776H190.689ZM208.098 34.9776V38.4753H211.579V34.9776H208.098ZM225.506 34.9776V38.4753H228.988V34.9776H225.506ZM242.915 34.9776V38.4753H246.396V34.9776H242.915ZM260.055 34.9776V38.4753H263.537V34.9776H260.055ZM277.464 34.9776V38.4753H280.945V34.9776H277.464ZM294.872 34.9776V38.4753H298.354V34.9776H294.872ZM312.28 34.9776V38.4753H315.762V34.9776H312.28ZM329.421 34.9776V38.4753H332.903V34.9776H329.421ZM346.829 34.9776V38.4753H350.311V34.9776H346.829ZM364.238 34.9776V38.4753H367.72V34.9776H364.238ZM381.646 34.9776V38.4753H385.128V34.9776H381.646ZM399.055 34.9776V38.4753H402.536V34.9776H399.055ZM416.195 34.9776V38.4753H419.677V34.9776H416.195ZM433.604 34.9776V38.4753H437.086V34.9776H433.604ZM451.012 34.9776V38.4753H454.494V34.9776H451.012ZM468.421 34.9776V38.4753H471.902V34.9776H468.421ZM485.561 34.9776V38.4753H489.043V34.9776H485.561ZM502.97 34.9776V38.4753H506.451V34.9776H502.97ZM520.378 34.9776V38.4753H523.86V34.9776H520.378ZM537.787 34.9776V38.4753H541.268V34.9776H537.787ZM555.195 34.9776V38.4753H558.677V34.9776H555.195ZM572.336 34.9776V38.4753H575.817V34.9776H572.336ZM589.744 34.9776V38.4753H593.226V34.9776H589.744ZM607.152 34.9776V38.4753H610.634V34.9776H607.152ZM624.561 34.9776V38.4753H628.042V34.9776H624.561ZM641.701 34.9776V38.4753H645.183V34.9776H641.701ZM659.11 34.9776V38.4753H662.592V34.9776H659.11ZM676.518 34.9776V38.4753H680V34.9776H676.518ZM0 52.1973V55.6951H3.48168V52.1973H0ZM17.1406 52.1973V55.6951H20.6223V52.1973H17.1406ZM34.549 52.1973V55.6951H38.0307V52.1973H34.549ZM51.9575 52.1973V55.6951H55.4392V52.1973H51.9575ZM69.3659 52.1973V55.6951H72.8476V52.1973H69.3659ZM86.5065 52.1973V55.6951H89.9882V52.1973H86.5065ZM103.915 52.1973V55.6951H107.397V52.1973H103.915ZM121.323 52.1973V55.6951H124.805V52.1973H121.323ZM138.732 52.1973V55.6951H142.213V52.1973H138.732ZM156.14 52.1973V55.6951H159.622V52.1973H156.14ZM173.281 52.1973V55.6951H176.763V52.1973H173.281ZM190.689 52.1973V55.6951H194.171V52.1973H190.689ZM208.098 52.1973V55.6951H211.579V52.1973H208.098ZM225.506 52.1973V55.6951H228.988V52.1973H225.506ZM242.915 52.1973V55.6951H246.396V52.1973H242.915ZM260.055 52.1973V55.6951H263.537V52.1973H260.055ZM277.464 52.1973V55.6951H280.945V52.1973H277.464ZM294.872 52.1973V55.6951H298.354V52.1973H294.872ZM312.28 52.1973V55.6951H315.762V52.1973H312.28ZM329.421 52.1973V55.6951H332.903V52.1973H329.421ZM346.829 52.1973V55.6951H350.311V52.1973H346.829ZM364.238 52.1973V55.6951H367.72V52.1973H364.238ZM381.646 52.1973V55.6951H385.128V52.1973H381.646ZM399.055 52.1973V55.6951H402.536V52.1973H399.055ZM416.195 52.1973V55.6951H419.677V52.1973H416.195ZM433.604 52.1973V55.6951H437.086V52.1973H433.604ZM451.012 52.1973V55.6951H454.494V52.1973H451.012ZM468.421 52.1973V55.6951H471.902V52.1973H468.421ZM485.561 52.1973V55.6951H489.043V52.1973H485.561ZM502.97 52.1973V55.6951H506.451V52.1973H502.97ZM520.378 52.1973V55.6951H523.86V52.1973H520.378ZM537.787 52.1973V55.6951H541.268V52.1973H537.787ZM555.195 52.1973V55.6951H558.677V52.1973H555.195ZM572.336 52.1973V55.6951H575.817V52.1973H572.336ZM589.744 52.1973V55.6951H593.226V52.1973H589.744ZM607.152 52.1973V55.6951H610.634V52.1973H607.152ZM624.561 52.1973V55.6951H628.042V52.1973H624.561ZM641.701 52.1973V55.6951H645.183V52.1973H641.701ZM659.11 52.1973V55.6951H662.592V52.1973H659.11ZM676.518 52.1973V55.6951H680V52.1973H676.518ZM0 69.6861V73.1839H3.48168V69.6861H0ZM17.1406 69.6861V73.1839H20.6223V69.6861H17.1406ZM34.549 69.6861V73.1839H38.0307V69.6861H34.549ZM51.9575 69.6861V73.1839H55.4392V69.6861H51.9575ZM69.3659 69.6861V73.1839H72.8476V69.6861H69.3659ZM86.5065 69.6861V73.1839H89.9882V69.6861H86.5065ZM103.915 69.6861V73.1839H107.397V69.6861H103.915ZM121.323 69.6861V73.1839H124.805V69.6861H121.323ZM138.732 69.6861V73.1839H142.213V69.6861H138.732ZM156.14 69.6861V73.1839H159.622V69.6861H156.14ZM173.281 69.6861V73.1839H176.763V69.6861H173.281ZM190.689 69.6861V73.1839H194.171V69.6861H190.689ZM208.098 69.6861V73.1839H211.579V69.6861H208.098ZM225.506 69.6861V73.1839H228.988V69.6861H225.506ZM242.915 69.6861V73.1839H246.396V69.6861H242.915ZM260.055 69.6861V73.1839H263.537V69.6861H260.055ZM277.464 69.6861V73.1839H280.945V69.6861H277.464ZM294.872 69.6861V73.1839H298.354V69.6861H294.872ZM312.28 69.6861V73.1839H315.762V69.6861H312.28ZM329.421 69.6861V73.1839H332.903V69.6861H329.421ZM346.829 69.6861V73.1839H350.311V69.6861H346.829ZM364.238 69.6861V73.1839H367.72V69.6861H364.238ZM381.646 69.6861V73.1839H385.128V69.6861H381.646ZM399.055 69.6861V73.1839H402.536V69.6861H399.055ZM416.195 69.6861V73.1839H419.677V69.6861H416.195ZM433.604 69.6861V73.1839H437.086V69.6861H433.604ZM451.012 69.6861V73.1839H454.494V69.6861H451.012ZM468.421 69.6861V73.1839H471.902V69.6861H468.421ZM485.561 69.6861V73.1839H489.043V69.6861H485.561ZM502.97 69.6861V73.1839H506.451V69.6861H502.97ZM520.378 69.6861V73.1839H523.86V69.6861H520.378ZM537.787 69.6861V73.1839H541.268V69.6861H537.787ZM555.195 69.6861V73.1839H558.677V69.6861H555.195ZM572.336 69.6861V73.1839H575.817V69.6861H572.336ZM589.744 69.6861V73.1839H593.226V69.6861H589.744ZM607.152 69.6861V73.1839H610.634V69.6861H607.152ZM624.561 69.6861V73.1839H628.042V69.6861H624.561ZM641.701 69.6861V73.1839H645.183V69.6861H641.701ZM659.11 69.6861V73.1839H662.592V69.6861H659.11ZM676.518 69.6861V73.1839H680V69.6861H676.518ZM0 87.1749V90.6727H3.48168V87.1749H0ZM17.1406 87.1749V90.6727H20.6223V87.1749H17.1406ZM34.549 87.1749V90.6727H38.0307V87.1749H34.549ZM51.9575 87.1749V90.6727H55.4392V87.1749H51.9575ZM69.3659 87.1749V90.6727H72.8476V87.1749H69.3659ZM86.5065 87.1749V90.6727H89.9882V87.1749H86.5065ZM103.915 87.1749V90.6727H107.397V87.1749H103.915ZM121.323 87.1749V90.6727H124.805V87.1749H121.323ZM138.732 87.1749V90.6727H142.213V87.1749H138.732ZM156.14 87.1749V90.6727H159.622V87.1749H156.14ZM173.281 87.1749V90.6727H176.763V87.1749H173.281ZM190.689 87.1749V90.6727H194.171V87.1749H190.689ZM208.098 87.1749V90.6727H211.579V87.1749H208.098ZM225.506 87.1749V90.6727H228.988V87.1749H225.506ZM242.915 87.1749V90.6727H246.396V87.1749H242.915ZM260.055 87.1749V90.6727H263.537V87.1749H260.055ZM277.464 87.1749V90.6727H280.945V87.1749H277.464ZM294.872 87.1749V90.6727H298.354V87.1749H294.872ZM312.28 87.1749V90.6727H315.762V87.1749H312.28ZM329.421 87.1749V90.6727H332.903V87.1749H329.421ZM346.829 87.1749V90.6727H350.311V87.1749H346.829ZM364.238 87.1749V90.6727H367.72V87.1749H364.238ZM381.646 87.1749V90.6727H385.128V87.1749H381.646ZM399.055 87.1749V90.6727H402.536V87.1749H399.055ZM416.195 87.1749V90.6727H419.677V87.1749H416.195ZM433.604 87.1749V90.6727H437.086V87.1749H433.604ZM451.012 87.1749V90.6727H454.494V87.1749H451.012ZM468.421 87.1749V90.6727H471.902V87.1749H468.421ZM485.561 87.1749V90.6727H489.043V87.1749H485.561ZM502.97 87.1749V90.6727H506.451V87.1749H502.97ZM520.378 87.1749V90.6727H523.86V87.1749H520.378ZM537.787 87.1749V90.6727H541.268V87.1749H537.787ZM555.195 87.1749V90.6727H558.677V87.1749H555.195ZM572.336 87.1749V90.6727H575.817V87.1749H572.336ZM589.744 87.1749V90.6727H593.226V87.1749H589.744ZM607.152 87.1749V90.6727H610.634V87.1749H607.152ZM624.561 87.1749V90.6727H628.042V87.1749H624.561ZM641.701 87.1749V90.6727H645.183V87.1749H641.701ZM659.11 87.1749V90.6727H662.592V87.1749H659.11ZM676.518 87.1749V90.6727H680V87.1749H676.518ZM0 104.664V108.161H3.48168V104.664H0ZM17.1406 104.664V108.161H20.6223V104.664H17.1406ZM34.549 104.664V108.161H38.0307V104.664H34.549ZM51.9575 104.664V108.161H55.4392V104.664H51.9575ZM69.3659 104.664V108.161H72.8476V104.664H69.3659ZM86.5065 104.664V108.161H89.9882V104.664H86.5065ZM103.915 104.664V108.161H107.397V104.664H103.915ZM121.323 104.664V108.161H124.805V104.664H121.323ZM138.732 104.664V108.161H142.213V104.664H138.732ZM156.14 104.664V108.161H159.622V104.664H156.14ZM173.281 104.664V108.161H176.763V104.664H173.281ZM190.689 104.664V108.161H194.171V104.664H190.689ZM208.098 104.664V108.161H211.579V104.664H208.098ZM225.506 104.664V108.161H228.988V104.664H225.506ZM242.915 104.664V108.161H246.396V104.664H242.915ZM260.055 104.664V108.161H263.537V104.664H260.055ZM277.464 104.664V108.161H280.945V104.664H277.464ZM294.872 104.664V108.161H298.354V104.664H294.872ZM312.28 104.664V108.161H315.762V104.664H312.28ZM329.421 104.664V108.161H332.903V104.664H329.421ZM346.829 104.664V108.161H350.311V104.664H346.829ZM364.238 104.664V108.161H367.72V104.664H364.238ZM381.646 104.664V108.161H385.128V104.664H381.646ZM399.055 104.664V108.161H402.536V104.664H399.055ZM416.195 104.664V108.161H419.677V104.664H416.195ZM433.604 104.664V108.161H437.086V104.664H433.604ZM451.012 104.664V108.161H454.494V104.664H451.012ZM468.421 104.664V108.161H471.902V104.664H468.421ZM485.561 104.664V108.161H489.043V104.664H485.561ZM502.97 104.664V108.161H506.451V104.664H502.97ZM520.378 104.664V108.161H523.86V104.664H520.378ZM537.787 104.664V108.161H541.268V104.664H537.787ZM555.195 104.664V108.161H558.677V104.664H555.195ZM572.336 104.664V108.161H575.817V104.664H572.336ZM589.744 104.664V108.161H593.226V104.664H589.744ZM607.152 104.664V108.161H610.634V104.664H607.152ZM624.561 104.664V108.161H628.042V104.664H624.561ZM641.701 104.664V108.161H645.183V104.664H641.701ZM659.11 104.664V108.161H662.592V104.664H659.11ZM676.518 104.664V108.161H680V104.664H676.518ZM0 122.152V125.65H3.48168V122.152H0ZM17.1406 122.152V125.65H20.6223V122.152H17.1406ZM34.549 122.152V125.65H38.0307V122.152H34.549ZM51.9575 122.152V125.65H55.4392V122.152H51.9575ZM69.3659 122.152V125.65H72.8476V122.152H69.3659ZM86.5065 122.152V125.65H89.9882V122.152H86.5065ZM103.915 122.152V125.65H107.397V122.152H103.915ZM121.323 122.152V125.65H124.805V122.152H121.323ZM138.732 122.152V125.65H142.213V122.152H138.732ZM156.14 122.152V125.65H159.622V122.152H156.14ZM173.281 122.152V125.65H176.763V122.152H173.281ZM190.689 122.152V125.65H194.171V122.152H190.689ZM208.098 122.152V125.65H211.579V122.152H208.098ZM225.506 122.152V125.65H228.988V122.152H225.506ZM242.915 122.152V125.65H246.396V122.152H242.915ZM260.055 122.152V125.65H263.537V122.152H260.055ZM277.464 122.152V125.65H280.945V122.152H277.464ZM294.872 122.152V125.65H298.354V122.152H294.872ZM312.28 122.152V125.65H315.762V122.152H312.28ZM329.421 122.152V125.65H332.903V122.152H329.421ZM346.829 122.152V125.65H350.311V122.152H346.829ZM364.238 122.152V125.65H367.72V122.152H364.238ZM381.646 122.152V125.65H385.128V122.152H381.646ZM399.055 122.152V125.65H402.536V122.152H399.055ZM416.195 122.152V125.65H419.677V122.152H416.195ZM433.604 122.152V125.65H437.086V122.152H433.604ZM451.012 122.152V125.65H454.494V122.152H451.012ZM468.421 122.152V125.65H471.902V122.152H468.421ZM485.561 122.152V125.65H489.043V122.152H485.561ZM502.97 122.152V125.65H506.451V122.152H502.97ZM520.378 122.152V125.65H523.86V122.152H520.378ZM537.787 122.152V125.65H541.268V122.152H537.787ZM555.195 122.152V125.65H558.677V122.152H555.195ZM572.336 122.152V125.65H575.817V122.152H572.336ZM589.744 122.152V125.65H593.226V122.152H589.744ZM607.152 122.152V125.65H610.634V122.152H607.152ZM624.561 122.152V125.65H628.042V122.152H624.561ZM641.701 122.152V125.65H645.183V122.152H641.701ZM659.11 122.152V125.65H662.592V122.152H659.11ZM676.518 122.152V125.65H680V122.152H676.518ZM0 139.641V143.139H3.48168V139.641H0ZM17.1406 139.641V143.139H20.6223V139.641H17.1406ZM34.549 139.641V143.139H38.0307V139.641H34.549ZM51.9575 139.641V143.139H55.4392V139.641H51.9575ZM69.3659 139.641V143.139H72.8476V139.641H69.3659ZM86.5065 139.641V143.139H89.9882V139.641H86.5065ZM103.915 139.641V143.139H107.397V139.641H103.915ZM121.323 139.641V143.139H124.805V139.641H121.323ZM138.732 139.641V143.139H142.213V139.641H138.732ZM156.14 139.641V143.139H159.622V139.641H156.14ZM173.281 139.641V143.139H176.763V139.641H173.281ZM190.689 139.641V143.139H194.171V139.641H190.689ZM208.098 139.641V143.139H211.579V139.641H208.098ZM225.506 139.641V143.139H228.988V139.641H225.506ZM242.915 139.641V143.139H246.396V139.641H242.915ZM260.055 139.641V143.139H263.537V139.641H260.055ZM277.464 139.641V143.139H280.945V139.641H277.464ZM294.872 139.641V143.139H298.354V139.641H294.872ZM312.28 139.641V143.139H315.762V139.641H312.28ZM329.421 139.641V143.139H332.903V139.641H329.421ZM346.829 139.641V143.139H350.311V139.641H346.829ZM364.238 139.641V143.139H367.72V139.641H364.238ZM381.646 139.641V143.139H385.128V139.641H381.646ZM399.055 139.641V143.139H402.536V139.641H399.055ZM416.195 139.641V143.139H419.677V139.641H416.195ZM433.604 139.641V143.139H437.086V139.641H433.604ZM451.012 139.641V143.139H454.494V139.641H451.012ZM468.421 139.641V143.139H471.902V139.641H468.421ZM485.561 139.641V143.139H489.043V139.641H485.561ZM502.97 139.641V143.139H506.451V139.641H502.97ZM520.378 139.641V143.139H523.86V139.641H520.378ZM537.787 139.641V143.139H541.268V139.641H537.787ZM555.195 139.641V143.139H558.677V139.641H555.195ZM572.336 139.641V143.139H575.817V139.641H572.336ZM589.744 139.641V143.139H593.226V139.641H589.744ZM607.152 139.641V143.139H610.634V139.641H607.152ZM624.561 139.641V143.139H628.042V139.641H624.561ZM641.701 139.641V143.139H645.183V139.641H641.701ZM659.11 139.641V143.139H662.592V139.641H659.11ZM676.518 139.641V143.139H680V139.641H676.518ZM0 156.861V160.359H3.48168V156.861H0ZM17.1406 156.861V160.359H20.6223V156.861H17.1406ZM34.549 156.861V160.359H38.0307V156.861H34.549ZM51.9575 156.861V160.359H55.4392V156.861H51.9575ZM69.3659 156.861V160.359H72.8476V156.861H69.3659ZM86.5065 156.861V160.359H89.9882V156.861H86.5065ZM103.915 156.861V160.359H107.397V156.861H103.915ZM121.323 156.861V160.359H124.805V156.861H121.323ZM138.732 156.861V160.359H142.213V156.861H138.732ZM156.14 156.861V160.359H159.622V156.861H156.14ZM173.281 156.861V160.359H176.763V156.861H173.281ZM190.689 156.861V160.359H194.171V156.861H190.689ZM208.098 156.861V160.359H211.579V156.861H208.098ZM225.506 156.861V160.359H228.988V156.861H225.506ZM242.915 156.861V160.359H246.396V156.861H242.915ZM260.055 156.861V160.359H263.537V156.861H260.055ZM277.464 156.861V160.359H280.945V156.861H277.464ZM294.872 156.861V160.359H298.354V156.861H294.872ZM312.28 156.861V160.359H315.762V156.861H312.28ZM329.421 156.861V160.359H332.903V156.861H329.421ZM346.829 156.861V160.359H350.311V156.861H346.829ZM364.238 156.861V160.359H367.72V156.861H364.238ZM381.646 156.861V160.359H385.128V156.861H381.646ZM399.055 156.861V160.359H402.536V156.861H399.055ZM416.195 156.861V160.359H419.677V156.861H416.195ZM433.604 156.861V160.359H437.086V156.861H433.604ZM451.012 156.861V160.359H454.494V156.861H451.012ZM468.421 156.861V160.359H471.902V156.861H468.421ZM485.561 156.861V160.359H489.043V156.861H485.561ZM502.97 156.861V160.359H506.451V156.861H502.97ZM520.378 156.861V160.359H523.86V156.861H520.378ZM537.787 156.861V160.359H541.268V156.861H537.787ZM555.195 156.861V160.359H558.677V156.861H555.195ZM572.336 156.861V160.359H575.817V156.861H572.336ZM589.744 156.861V160.359H593.226V156.861H589.744ZM607.152 156.861V160.359H610.634V156.861H607.152ZM624.561 156.861V160.359H628.042V156.861H624.561ZM641.701 156.861V160.359H645.183V156.861H641.701ZM659.11 156.861V160.359H662.592V156.861H659.11ZM676.518 156.861V160.359H680V156.861H676.518ZM0 174.35V177.848H3.48168V174.35H0ZM17.1406 174.35V177.848H20.6223V174.35H17.1406ZM34.549 174.35V177.848H38.0307V174.35H34.549ZM51.9575 174.35V177.848H55.4392V174.35H51.9575ZM69.3659 174.35V177.848H72.8476V174.35H69.3659ZM86.5065 174.35V177.848H89.9882V174.35H86.5065ZM103.915 174.35V177.848H107.397V174.35H103.915ZM121.323 174.35V177.848H124.805V174.35H121.323ZM138.732 174.35V177.848H142.213V174.35H138.732ZM156.14 174.35V177.848H159.622V174.35H156.14ZM173.281 174.35V177.848H176.763V174.35H173.281ZM190.689 174.35V177.848H194.171V174.35H190.689ZM208.098 174.35V177.848H211.579V174.35H208.098ZM225.506 174.35V177.848H228.988V174.35H225.506ZM242.915 174.35V177.848H246.396V174.35H242.915ZM260.055 174.35V177.848H263.537V174.35H260.055ZM277.464 174.35V177.848H280.945V174.35H277.464ZM294.872 174.35V177.848H298.354V174.35H294.872ZM312.28 174.35V177.848H315.762V174.35H312.28ZM329.421 174.35V177.848H332.903V174.35H329.421ZM346.829 174.35V177.848H350.311V174.35H346.829ZM364.238 174.35V177.848H367.72V174.35H364.238ZM381.646 174.35V177.848H385.128V174.35H381.646ZM399.055 174.35V177.848H402.536V174.35H399.055ZM416.195 174.35V177.848H419.677V174.35H416.195ZM433.604 174.35V177.848H437.086V174.35H433.604ZM451.012 174.35V177.848H454.494V174.35H451.012ZM468.421 174.35V177.848H471.902V174.35H468.421ZM485.561 174.35V177.848H489.043V174.35H485.561ZM502.97 174.35V177.848H506.451V174.35H502.97ZM520.378 174.35V177.848H523.86V174.35H520.378ZM537.787 174.35V177.848H541.268V174.35H537.787ZM555.195 174.35V177.848H558.677V174.35H555.195ZM572.336 174.35V177.848H575.817V174.35H572.336ZM589.744 174.35V177.848H593.226V174.35H589.744ZM607.152 174.35V177.848H610.634V174.35H607.152ZM624.561 174.35V177.848H628.042V174.35H624.561ZM641.701 174.35V177.848H645.183V174.35H641.701ZM659.11 174.35V177.848H662.592V174.35H659.11ZM676.518 174.35V177.848H680V174.35H676.518ZM0 191.839V195.336H3.48168V191.839H0ZM17.1406 191.839V195.336H20.6223V191.839H17.1406ZM34.549 191.839V195.336H38.0307V191.839H34.549ZM51.9575 191.839V195.336H55.4392V191.839H51.9575ZM69.3659 191.839V195.336H72.8476V191.839H69.3659ZM86.5065 191.839V195.336H89.9882V191.839H86.5065ZM103.915 191.839V195.336H107.397V191.839H103.915ZM121.323 191.839V195.336H124.805V191.839H121.323ZM138.732 191.839V195.336H142.213V191.839H138.732ZM156.14 191.839V195.336H159.622V191.839H156.14ZM173.281 191.839V195.336H176.763V191.839H173.281ZM190.689 191.839V195.336H194.171V191.839H190.689ZM208.098 191.839V195.336H211.579V191.839H208.098ZM225.506 191.839V195.336H228.988V191.839H225.506ZM242.915 191.839V195.336H246.396V191.839H242.915ZM260.055 191.839V195.336H263.537V191.839H260.055ZM277.464 191.839V195.336H280.945V191.839H277.464ZM294.872 191.839V195.336H298.354V191.839H294.872ZM312.28 191.839V195.336H315.762V191.839H312.28ZM329.421 191.839V195.336H332.903V191.839H329.421ZM346.829 191.839V195.336H350.311V191.839H346.829ZM364.238 191.839V195.336H367.72V191.839H364.238ZM381.646 191.839V195.336H385.128V191.839H381.646ZM399.055 191.839V195.336H402.536V191.839H399.055ZM416.195 191.839V195.336H419.677V191.839H416.195ZM433.604 191.839V195.336H437.086V191.839H433.604ZM451.012 191.839V195.336H454.494V191.839H451.012ZM468.421 191.839V195.336H471.902V191.839H468.421ZM485.561 191.839V195.336H489.043V191.839H485.561ZM502.97 191.839V195.336H506.451V191.839H502.97ZM520.378 191.839V195.336H523.86V191.839H520.378ZM537.787 191.839V195.336H541.268V191.839H537.787ZM555.195 191.839V195.336H558.677V191.839H555.195ZM572.336 191.839V195.336H575.817V191.839H572.336ZM589.744 191.839V195.336H593.226V191.839H589.744ZM607.152 191.839V195.336H610.634V191.839H607.152ZM624.561 191.839V195.336H628.042V191.839H624.561ZM641.701 191.839V195.336H645.183V191.839H641.701ZM659.11 191.839V195.336H662.592V191.839H659.11ZM676.518 191.839V195.336H680V191.839H676.518ZM0 209.327V212.825H3.48168V209.327H0ZM17.1406 209.327V212.825H20.6223V209.327H17.1406ZM34.549 209.327V212.825H38.0307V209.327H34.549ZM51.9575 209.327V212.825H55.4392V209.327H51.9575ZM69.3659 209.327V212.825H72.8476V209.327H69.3659ZM86.5065 209.327V212.825H89.9882V209.327H86.5065ZM103.915 209.327V212.825H107.397V209.327H103.915ZM121.323 209.327V212.825H124.805V209.327H121.323ZM138.732 209.327V212.825H142.213V209.327H138.732ZM156.14 209.327V212.825H159.622V209.327H156.14ZM173.281 209.327V212.825H176.763V209.327H173.281ZM190.689 209.327V212.825H194.171V209.327H190.689ZM208.098 209.327V212.825H211.579V209.327H208.098ZM225.506 209.327V212.825H228.988V209.327H225.506ZM242.915 209.327V212.825H246.396V209.327H242.915ZM260.055 209.327V212.825H263.537V209.327H260.055ZM277.464 209.327V212.825H280.945V209.327H277.464ZM294.872 209.327V212.825H298.354V209.327H294.872ZM312.28 209.327V212.825H315.762V209.327H312.28ZM329.421 209.327V212.825H332.903V209.327H329.421ZM346.829 209.327V212.825H350.311V209.327H346.829ZM364.238 209.327V212.825H367.72V209.327H364.238ZM381.646 209.327V212.825H385.128V209.327H381.646ZM399.055 209.327V212.825H402.536V209.327H399.055ZM416.195 209.327V212.825H419.677V209.327H416.195ZM433.604 209.327V212.825H437.086V209.327H433.604ZM451.012 209.327V212.825H454.494V209.327H451.012ZM468.421 209.327V212.825H471.902V209.327H468.421ZM485.561 209.327V212.825H489.043V209.327H485.561ZM502.97 209.327V212.825H506.451V209.327H502.97ZM520.378 209.327V212.825H523.86V209.327H520.378ZM537.787 209.327V212.825H541.268V209.327H537.787ZM555.195 209.327V212.825H558.677V209.327H555.195ZM572.336 209.327V212.825H575.817V209.327H572.336ZM589.744 209.327V212.825H593.226V209.327H589.744ZM607.152 209.327V212.825H610.634V209.327H607.152ZM624.561 209.327V212.825H628.042V209.327H624.561ZM641.701 209.327V212.825H645.183V209.327H641.701ZM659.11 209.327V212.825H662.592V209.327H659.11ZM676.518 209.327V212.825H680V209.327H676.518ZM0 226.816V230.314H3.48168V226.816H0ZM17.1406 226.816V230.314H20.6223V226.816H17.1406ZM34.549 226.816V230.314H38.0307V226.816H34.549ZM51.9575 226.816V230.314H55.4392V226.816H51.9575ZM69.3659 226.816V230.314H72.8476V226.816H69.3659ZM86.5065 226.816V230.314H89.9882V226.816H86.5065ZM103.915 226.816V230.314H107.397V226.816H103.915ZM121.323 226.816V230.314H124.805V226.816H121.323ZM138.732 226.816V230.314H142.213V226.816H138.732ZM156.14 226.816V230.314H159.622V226.816H156.14ZM173.281 226.816V230.314H176.763V226.816H173.281ZM190.689 226.816V230.314H194.171V226.816H190.689ZM208.098 226.816V230.314H211.579V226.816H208.098ZM225.506 226.816V230.314H228.988V226.816H225.506ZM242.915 226.816V230.314H246.396V226.816H242.915ZM260.055 226.816V230.314H263.537V226.816H260.055ZM277.464 226.816V230.314H280.945V226.816H277.464ZM294.872 226.816V230.314H298.354V226.816H294.872ZM312.28 226.816V230.314H315.762V226.816H312.28ZM329.421 226.816V230.314H332.903V226.816H329.421ZM346.829 226.816V230.314H350.311V226.816H346.829ZM364.238 226.816V230.314H367.72V226.816H364.238ZM381.646 226.816V230.314H385.128V226.816H381.646ZM399.055 226.816V230.314H402.536V226.816H399.055ZM416.195 226.816V230.314H419.677V226.816H416.195ZM433.604 226.816V230.314H437.086V226.816H433.604ZM451.012 226.816V230.314H454.494V226.816H451.012ZM468.421 226.816V230.314H471.902V226.816H468.421ZM485.561 226.816V230.314H489.043V226.816H485.561ZM502.97 226.816V230.314H506.451V226.816H502.97ZM520.378 226.816V230.314H523.86V226.816H520.378ZM537.787 226.816V230.314H541.268V226.816H537.787ZM555.195 226.816V230.314H558.677V226.816H555.195ZM572.336 226.816V230.314H575.817V226.816H572.336ZM589.744 226.816V230.314H593.226V226.816H589.744ZM607.152 226.816V230.314H610.634V226.816H607.152ZM624.561 226.816V230.314H628.042V226.816H624.561ZM641.701 226.816V230.314H645.183V226.816H641.701ZM659.11 226.816V230.314H662.592V226.816H659.11ZM676.518 226.816V230.314H680V226.816H676.518ZM0 244.305V247.803H3.48168V244.305H0ZM17.1406 244.305V247.803H20.6223V244.305H17.1406ZM34.549 244.305V247.803H38.0307V244.305H34.549ZM51.9575 244.305V247.803H55.4392V244.305H51.9575ZM69.3659 244.305V247.803H72.8476V244.305H69.3659ZM86.5065 244.305V247.803H89.9882V244.305H86.5065ZM103.915 244.305V247.803H107.397V244.305H103.915ZM121.323 244.305V247.803H124.805V244.305H121.323ZM138.732 244.305V247.803H142.213V244.305H138.732ZM156.14 244.305V247.803H159.622V244.305H156.14ZM173.281 244.305V247.803H176.763V244.305H173.281ZM190.689 244.305V247.803H194.171V244.305H190.689ZM208.098 244.305V247.803H211.579V244.305H208.098ZM225.506 244.305V247.803H228.988V244.305H225.506ZM242.915 244.305V247.803H246.396V244.305H242.915ZM260.055 244.305V247.803H263.537V244.305H260.055ZM277.464 244.305V247.803H280.945V244.305H277.464ZM294.872 244.305V247.803H298.354V244.305H294.872ZM312.28 244.305V247.803H315.762V244.305H312.28ZM329.421 244.305V247.803H332.903V244.305H329.421ZM346.829 244.305V247.803H350.311V244.305H346.829ZM364.238 244.305V247.803H367.72V244.305H364.238ZM381.646 244.305V247.803H385.128V244.305H381.646ZM399.055 244.305V247.803H402.536V244.305H399.055ZM416.195 244.305V247.803H419.677V244.305H416.195ZM433.604 244.305V247.803H437.086V244.305H433.604ZM451.012 244.305V247.803H454.494V244.305H451.012ZM468.421 244.305V247.803H471.902V244.305H468.421ZM485.561 244.305V247.803H489.043V244.305H485.561ZM502.97 244.305V247.803H506.451V244.305H502.97ZM520.378 244.305V247.803H523.86V244.305H520.378ZM537.787 244.305V247.803H541.268V244.305H537.787ZM555.195 244.305V247.803H558.677V244.305H555.195ZM572.336 244.305V247.803H575.817V244.305H572.336ZM589.744 244.305V247.803H593.226V244.305H589.744ZM607.152 244.305V247.803H610.634V244.305H607.152ZM624.561 244.305V247.803H628.042V244.305H624.561ZM641.701 244.305V247.803H645.183V244.305H641.701ZM659.11 244.305V247.803H662.592V244.305H659.11ZM676.518 244.305V247.803H680V244.305H676.518ZM0 261.525V265.022H3.48168V261.525H0ZM17.1406 261.525V265.022H20.6223V261.525H17.1406ZM34.549 261.525V265.022H38.0307V261.525H34.549ZM51.9575 261.525V265.022H55.4392V261.525H51.9575ZM69.3659 261.525V265.022H72.8476V261.525H69.3659ZM86.5065 261.525V265.022H89.9882V261.525H86.5065ZM103.915 261.525V265.022H107.397V261.525H103.915ZM121.323 261.525V265.022H124.805V261.525H121.323ZM138.732 261.525V265.022H142.213V261.525H138.732ZM156.14 261.525V265.022H159.622V261.525H156.14ZM173.281 261.525V265.022H176.763V261.525H173.281ZM190.689 261.525V265.022H194.171V261.525H190.689ZM208.098 261.525V265.022H211.579V261.525H208.098ZM225.506 261.525V265.022H228.988V261.525H225.506ZM242.915 261.525V265.022H246.396V261.525H242.915ZM260.055 261.525V265.022H263.537V261.525H260.055ZM277.464 261.525V265.022H280.945V261.525H277.464ZM294.872 261.525V265.022H298.354V261.525H294.872ZM312.28 261.525V265.022H315.762V261.525H312.28ZM329.421 261.525V265.022H332.903V261.525H329.421ZM346.829 261.525V265.022H350.311V261.525H346.829ZM364.238 261.525V265.022H367.72V261.525H364.238ZM381.646 261.525V265.022H385.128V261.525H381.646ZM399.055 261.525V265.022H402.536V261.525H399.055ZM416.195 261.525V265.022H419.677V261.525H416.195ZM433.604 261.525V265.022H437.086V261.525H433.604ZM451.012 261.525V265.022H454.494V261.525H451.012ZM468.421 261.525V265.022H471.902V261.525H468.421ZM485.561 261.525V265.022H489.043V261.525H485.561ZM502.97 261.525V265.022H506.451V261.525H502.97ZM520.378 261.525V265.022H523.86V261.525H520.378ZM537.787 261.525V265.022H541.268V261.525H537.787ZM555.195 261.525V265.022H558.677V261.525H555.195ZM572.336 261.525V265.022H575.817V261.525H572.336ZM589.744 261.525V265.022H593.226V261.525H589.744ZM607.152 261.525V265.022H610.634V261.525H607.152ZM624.561 261.525V265.022H628.042V261.525H624.561ZM641.701 261.525V265.022H645.183V261.525H641.701ZM659.11 261.525V265.022H662.592V261.525H659.11ZM676.518 261.525V265.022H680V261.525H676.518ZM0 279.013V282.511H3.48168V279.013H0ZM17.1406 279.013V282.511H20.6223V279.013H17.1406ZM34.549 279.013V282.511H38.0307V279.013H34.549ZM51.9575 279.013V282.511H55.4392V279.013H51.9575ZM69.3659 279.013V282.511H72.8476V279.013H69.3659ZM86.5065 279.013V282.511H89.9882V279.013H86.5065ZM103.915 279.013V282.511H107.397V279.013H103.915ZM121.323 279.013V282.511H124.805V279.013H121.323ZM138.732 279.013V282.511H142.213V279.013H138.732ZM156.14 279.013V282.511H159.622V279.013H156.14ZM173.281 279.013V282.511H176.763V279.013H173.281ZM190.689 279.013V282.511H194.171V279.013H190.689ZM208.098 279.013V282.511H211.579V279.013H208.098ZM225.506 279.013V282.511H228.988V279.013H225.506ZM242.915 279.013V282.511H246.396V279.013H242.915ZM260.055 279.013V282.511H263.537V279.013H260.055ZM277.464 279.013V282.511H280.945V279.013H277.464ZM294.872 279.013V282.511H298.354V279.013H294.872ZM312.28 279.013V282.511H315.762V279.013H312.28ZM329.421 279.013V282.511H332.903V279.013H329.421ZM346.829 279.013V282.511H350.311V279.013H346.829ZM364.238 279.013V282.511H367.72V279.013H364.238ZM381.646 279.013V282.511H385.128V279.013H381.646ZM399.055 279.013V282.511H402.536V279.013H399.055ZM416.195 279.013V282.511H419.677V279.013H416.195ZM433.604 279.013V282.511H437.086V279.013H433.604ZM451.012 279.013V282.511H454.494V279.013H451.012ZM468.421 279.013V282.511H471.902V279.013H468.421ZM485.561 279.013V282.511H489.043V279.013H485.561ZM502.97 279.013V282.511H506.451V279.013H502.97ZM520.378 279.013V282.511H523.86V279.013H520.378ZM537.787 279.013V282.511H541.268V279.013H537.787ZM555.195 279.013V282.511H558.677V279.013H555.195ZM572.336 279.013V282.511H575.817V279.013H572.336ZM589.744 279.013V282.511H593.226V279.013H589.744ZM607.152 279.013V282.511H610.634V279.013H607.152ZM624.561 279.013V282.511H628.042V279.013H624.561ZM641.701 279.013V282.511H645.183V279.013H641.701ZM659.11 279.013V282.511H662.592V279.013H659.11ZM676.518 279.013V282.511H680V279.013H676.518ZM0 296.502V300H3.48168V296.502H0ZM17.1406 296.502V300H20.6223V296.502H17.1406ZM34.549 296.502V300H38.0307V296.502H34.549ZM51.9575 296.502V300H55.4392V296.502H51.9575ZM69.3659 296.502V300H72.8476V296.502H69.3659ZM86.5065 296.502V300H89.9882V296.502H86.5065ZM103.915 296.502V300H107.397V296.502H103.915ZM121.323 296.502V300H124.805V296.502H121.323ZM138.732 296.502V300H142.213V296.502H138.732ZM156.14 296.502V300H159.622V296.502H156.14ZM173.281 296.502V300H176.763V296.502H173.281ZM190.689 296.502V300H194.171V296.502H190.689ZM208.098 296.502V300H211.579V296.502H208.098ZM225.506 296.502V300H228.988V296.502H225.506ZM242.915 296.502V300H246.396V296.502H242.915ZM260.055 296.502V300H263.537V296.502H260.055ZM277.464 296.502V300H280.945V296.502H277.464ZM294.872 296.502V300H298.354V296.502H294.872ZM312.28 296.502V300H315.762V296.502H312.28ZM329.421 296.502V300H332.903V296.502H329.421ZM346.829 296.502V300H350.311V296.502H346.829ZM364.238 296.502V300H367.72V296.502H364.238ZM381.646 296.502V300H385.128V296.502H381.646ZM399.055 296.502V300H402.536V296.502H399.055ZM416.195 296.502V300H419.677V296.502H416.195ZM433.604 296.502V300H437.086V296.502H433.604ZM451.012 296.502V300H454.494V296.502H451.012ZM468.421 296.502V300H471.902V296.502H468.421ZM485.561 296.502V300H489.043V296.502H485.561ZM502.97 296.502V300H506.451V296.502H502.97ZM520.378 296.502V300H523.86V296.502H520.378ZM537.787 296.502V300H541.268V296.502H537.787ZM555.195 296.502V300H558.677V296.502H555.195ZM572.336 296.502V300H575.817V296.502H572.336ZM589.744 296.502V300H593.226V296.502H589.744ZM607.152 296.502V300H610.634V296.502H607.152ZM624.561 296.502V300H628.042V296.502H624.561ZM641.701 296.502V300H645.183V296.502H641.701ZM659.11 296.502V300H662.592V296.502H659.11ZM676.518 296.502V300H680V296.502H676.518Z" fill="#FF4654" fill-opacity="0.47"/>
</svg>
