<svg width="690" height="283" viewBox="0 0 690 283" fill="none" xmlns="http://www.w3.org/2000/svg">
<g clip-path="url(#clip0_1:10247)">
<path d="M-22.6973 0V2.95502H-19.7466V0H-22.6973ZM-7.94397 0V2.95502H-4.99332V0H-7.94397ZM6.80932 0V2.95502H9.75998V0H6.80932ZM21.3356 0V2.95502H24.2863V0H21.3356ZM36.0889 0V2.95502H39.0396V0H36.0889ZM50.8422 0V2.95502H53.7929V0H50.8422ZM65.5955 0V2.95502H68.5462V0H65.5955ZM80.1218 0V2.95502H83.0725V0H80.1218ZM94.8751 0V2.95502H97.8258V0H94.8751ZM109.628 0V2.95502H112.579V0H109.628ZM124.382 0V2.95502H127.332V0H124.382ZM139.135 0V2.95502H142.086V0H139.135ZM153.661 0V2.95502H156.612V0H153.661ZM168.415 0V2.95502H171.365V0H168.415ZM183.168 0V2.95502H186.119V0H183.168ZM197.921 0V2.95502H200.872V0H197.921ZM212.674 0V2.95502H215.625V0H212.674ZM227.201 0V2.95502H230.151V0H227.201ZM241.954 0V2.95502H244.905V0H241.954ZM256.707 0V2.95502H259.658V0H256.707ZM271.461 0V2.95502H274.411V0H271.461ZM285.987 0V2.95502H288.938V0H285.987ZM300.74 0V2.95502H303.691V0H300.74ZM315.494 0V2.95502H318.444V0H315.494ZM330.247 0V2.95502H333.198V0H330.247ZM345 0V2.95502H347.951V0H345ZM359.526 0V2.95502H362.477V0H359.526ZM374.28 0V2.95502H377.23V0H374.28ZM389.033 0V2.95502H391.984V0H389.033ZM403.786 0V2.95502H406.737V0H403.786ZM418.54 0V2.95502H421.49V0H418.54ZM433.066 0V2.95502H436.017V0H433.066ZM447.819 0V2.95502H450.77V0H447.819ZM462.573 0V2.95502H465.523V0H462.573ZM477.326 0V2.95502H480.276V0H477.326ZM491.852 0V2.95502H494.803V0H491.852ZM506.605 0V2.95502H509.556V0H506.605ZM521.359 0V2.95502H524.309V0H521.359ZM536.112 0V2.95502H539.063V0H536.112ZM550.638 0V2.95502H553.589V0H550.638ZM565.392 0V2.95502H568.342V0H565.392ZM580.145 0V2.95502H583.096V0H580.145ZM594.898 0V2.95502H597.849V0H594.898ZM609.651 0V2.95502H612.602V0H609.651ZM624.178 0V2.95502H627.128V0H624.178ZM638.931 0V2.95502H641.882V0H638.931ZM-22.6973 14.7751V17.7301H-19.7466V14.7751H-22.6973ZM-7.94397 14.7751V17.7301H-4.99332V14.7751H-7.94397ZM6.80932 14.7751V17.7301H9.75998V14.7751H6.80932ZM21.3356 14.7751V17.7301H24.2863V14.7751H21.3356ZM36.0889 14.7751V17.7301H39.0396V14.7751H36.0889ZM50.8422 14.7751V17.7301H53.7929V14.7751H50.8422ZM65.5955 14.7751V17.7301H68.5462V14.7751H65.5955ZM80.1218 14.7751V17.7301H83.0725V14.7751H80.1218ZM94.8751 14.7751V17.7301H97.8258V14.7751H94.8751ZM109.628 14.7751V17.7301H112.579V14.7751H109.628ZM124.382 14.7751V17.7301H127.332V14.7751H124.382ZM139.135 14.7751V17.7301H142.086V14.7751H139.135ZM153.661 14.7751V17.7301H156.612V14.7751H153.661ZM168.415 14.7751V17.7301H171.365V14.7751H168.415ZM183.168 14.7751V17.7301H186.119V14.7751H183.168ZM197.921 14.7751V17.7301H200.872V14.7751H197.921ZM212.674 14.7751V17.7301H215.625V14.7751H212.674ZM227.201 14.7751V17.7301H230.151V14.7751H227.201ZM241.954 14.7751V17.7301H244.905V14.7751H241.954ZM256.707 14.7751V17.7301H259.658V14.7751H256.707ZM271.461 14.7751V17.7301H274.411V14.7751H271.461ZM285.987 14.7751V17.7301H288.938V14.7751H285.987ZM300.74 14.7751V17.7301H303.691V14.7751H300.74ZM315.494 14.7751V17.7301H318.444V14.7751H315.494ZM330.247 14.7751V17.7301H333.198V14.7751H330.247ZM345 14.7751V17.7301H347.951V14.7751H345ZM359.526 14.7751V17.7301H362.477V14.7751H359.526ZM374.28 14.7751V17.7301H377.23V14.7751H374.28ZM389.033 14.7751V17.7301H391.984V14.7751H389.033ZM403.786 14.7751V17.7301H406.737V14.7751H403.786ZM418.313 14.7751V17.7301H421.263V14.7751H418.313ZM433.066 14.7751V17.7301H436.017V14.7751H433.066ZM447.819 14.7751V17.7301H450.77V14.7751H447.819ZM462.573 14.7751V17.7301H465.523V14.7751H462.573ZM477.326 14.7751V17.7301H480.276V14.7751H477.326ZM491.852 14.7751V17.7301H494.803V14.7751H491.852ZM506.605 14.7751V17.7301H509.556V14.7751H506.605ZM521.359 14.7751V17.7301H524.309V14.7751H521.359ZM536.112 14.7751V17.7301H539.063V14.7751H536.112ZM550.638 14.7751V17.7301H553.589V14.7751H550.638ZM565.392 14.7751V17.7301H568.342V14.7751H565.392ZM580.145 14.7751V17.7301H583.096V14.7751H580.145ZM594.898 14.7751V17.7301H597.849V14.7751H594.898ZM609.651 14.7751V17.7301H612.602V14.7751H609.651ZM624.178 14.7751V17.7301H627.128V14.7751H624.178ZM638.931 14.7751V17.7301H641.882V14.7751H638.931ZM-22.6973 29.5502V32.5052H-19.7466V29.5502H-22.6973ZM-7.94397 29.5502V32.5052H-4.99332V29.5502H-7.94397ZM6.80932 29.5502V32.5052H9.75998V29.5502H6.80932ZM21.3356 29.5502V32.5052H24.2863V29.5502H21.3356ZM36.0889 29.5502V32.5052H39.0396V29.5502H36.0889ZM50.8422 29.5502V32.5052H53.7929V29.5502H50.8422ZM65.5955 29.5502V32.5052H68.5462V29.5502H65.5955ZM80.1218 29.5502V32.5052H83.0725V29.5502H80.1218ZM94.8751 29.5502V32.5052H97.8258V29.5502H94.8751ZM109.628 29.5502V32.5052H112.579V29.5502H109.628ZM124.382 29.5502V32.5052H127.332V29.5502H124.382ZM139.135 29.5502V32.5052H142.086V29.5502H139.135ZM153.661 29.5502V32.5052H156.612V29.5502H153.661ZM168.415 29.5502V32.5052H171.365V29.5502H168.415ZM183.168 29.5502V32.5052H186.119V29.5502H183.168ZM197.921 29.5502V32.5052H200.872V29.5502H197.921ZM212.674 29.5502V32.5052H215.625V29.5502H212.674ZM227.201 29.5502V32.5052H230.151V29.5502H227.201ZM241.954 29.5502V32.5052H244.905V29.5502H241.954ZM256.707 29.5502V32.5052H259.658V29.5502H256.707ZM271.461 29.5502V32.5052H274.411V29.5502H271.461ZM285.987 29.5502V32.5052H288.938V29.5502H285.987ZM300.74 29.5502V32.5052H303.691V29.5502H300.74ZM315.494 29.5502V32.5052H318.444V29.5502H315.494ZM330.247 29.5502V32.5052H333.198V29.5502H330.247ZM345 29.5502V32.5052H347.951V29.5502H345ZM359.526 29.5502V32.5052H362.477V29.5502H359.526ZM374.28 29.5502V32.5052H377.23V29.5502H374.28ZM389.033 29.5502V32.5052H391.984V29.5502H389.033ZM403.786 29.5502V32.5052H406.737V29.5502H403.786ZM418.313 29.5502V32.5052H421.263V29.5502H418.313ZM433.066 29.5502V32.5052H436.017V29.5502H433.066ZM447.819 29.5502V32.5052H450.77V29.5502H447.819ZM462.573 29.5502V32.5052H465.523V29.5502H462.573ZM477.326 29.5502V32.5052H480.276V29.5502H477.326ZM491.852 29.5502V32.5052H494.803V29.5502H491.852ZM506.605 29.5502V32.5052H509.556V29.5502H506.605ZM521.359 29.5502V32.5052H524.309V29.5502H521.359ZM536.112 29.5502V32.5052H539.063V29.5502H536.112ZM550.638 29.5502V32.5052H553.589V29.5502H550.638ZM565.392 29.5502V32.5052H568.342V29.5502H565.392ZM580.145 29.5502V32.5052H583.096V29.5502H580.145ZM594.898 29.5502V32.5052H597.849V29.5502H594.898ZM609.651 29.5502V32.5052H612.602V29.5502H609.651ZM624.178 29.5502V32.5052H627.128V29.5502H624.178ZM638.931 29.5502V32.5052H641.882V29.5502H638.931ZM-22.6973 44.3253V47.2803H-19.7466V44.3253H-22.6973ZM-7.94397 44.3253V47.2803H-4.99332V44.3253H-7.94397ZM6.80932 44.3253V47.2803H9.75998V44.3253H6.80932ZM21.3356 44.3253V47.2803H24.2863V44.3253H21.3356ZM36.0889 44.3253V47.2803H39.0396V44.3253H36.0889ZM50.8422 44.3253V47.2803H53.7929V44.3253H50.8422ZM65.5955 44.3253V47.2803H68.5462V44.3253H65.5955ZM80.1218 44.3253V47.2803H83.0725V44.3253H80.1218ZM94.8751 44.3253V47.2803H97.8258V44.3253H94.8751ZM109.628 44.3253V47.2803H112.579V44.3253H109.628ZM124.382 44.3253V47.2803H127.332V44.3253H124.382ZM139.135 44.3253V47.2803H142.086V44.3253H139.135ZM153.661 44.3253V47.2803H156.612V44.3253H153.661ZM168.415 44.3253V47.2803H171.365V44.3253H168.415ZM183.168 44.3253V47.2803H186.119V44.3253H183.168ZM197.921 44.3253V47.2803H200.872V44.3253H197.921ZM212.674 44.3253V47.2803H215.625V44.3253H212.674ZM227.201 44.3253V47.2803H230.151V44.3253H227.201ZM241.954 44.3253V47.2803H244.905V44.3253H241.954ZM256.707 44.3253V47.2803H259.658V44.3253H256.707ZM271.461 44.3253V47.2803H274.411V44.3253H271.461ZM285.987 44.3253V47.2803H288.938V44.3253H285.987ZM300.74 44.3253V47.2803H303.691V44.3253H300.74ZM315.494 44.3253V47.2803H318.444V44.3253H315.494ZM330.247 44.3253V47.2803H333.198V44.3253H330.247ZM345 44.3253V47.2803H347.951V44.3253H345ZM359.526 44.3253V47.2803H362.477V44.3253H359.526ZM374.28 44.3253V47.2803H377.23V44.3253H374.28ZM389.033 44.3253V47.2803H391.984V44.3253H389.033ZM403.786 44.3253V47.2803H406.737V44.3253H403.786ZM418.313 44.3253V47.2803H421.263V44.3253H418.313ZM433.066 44.3253V47.2803H436.017V44.3253H433.066ZM447.819 44.3253V47.2803H450.77V44.3253H447.819ZM462.573 44.3253V47.2803H465.523V44.3253H462.573ZM477.326 44.3253V47.2803H480.276V44.3253H477.326ZM491.852 44.3253V47.2803H494.803V44.3253H491.852ZM506.605 44.3253V47.2803H509.556V44.3253H506.605ZM521.359 44.3253V47.2803H524.309V44.3253H521.359ZM536.112 44.3253V47.2803H539.063V44.3253H536.112ZM550.638 44.3253V47.2803H553.589V44.3253H550.638ZM565.392 44.3253V47.2803H568.342V44.3253H565.392ZM580.145 44.3253V47.2803H583.096V44.3253H580.145ZM594.898 44.3253V47.2803H597.849V44.3253H594.898ZM609.651 44.3253V47.2803H612.602V44.3253H609.651ZM624.178 44.3253V47.2803H627.128V44.3253H624.178ZM638.931 44.3253V47.2803H641.882V44.3253H638.931ZM-22.6973 58.8731V61.8281H-19.7466V58.8731H-22.6973ZM-7.94397 58.8731V61.8281H-4.99332V58.8731H-7.94397ZM6.80932 58.8731V61.8281H9.75998V58.8731H6.80932ZM21.3356 58.8731V61.8281H24.2863V58.8731H21.3356ZM36.0889 58.8731V61.8281H39.0396V58.8731H36.0889ZM50.8422 58.8731V61.8281H53.7929V58.8731H50.8422ZM65.5955 58.8731V61.8281H68.5462V58.8731H65.5955ZM80.1218 58.8731V61.8281H83.0725V58.8731H80.1218ZM94.8751 58.8731V61.8281H97.8258V58.8731H94.8751ZM109.628 58.8731V61.8281H112.579V58.8731H109.628ZM124.382 58.8731V61.8281H127.332V58.8731H124.382ZM139.135 58.8731V61.8281H142.086V58.8731H139.135ZM153.661 58.8731V61.8281H156.612V58.8731H153.661ZM168.415 58.8731V61.8281H171.365V58.8731H168.415ZM183.168 58.8731V61.8281H186.119V58.8731H183.168ZM197.921 58.8731V61.8281H200.872V58.8731H197.921ZM212.674 58.8731V61.8281H215.625V58.8731H212.674ZM227.201 58.8731V61.8281H230.151V58.8731H227.201ZM241.954 58.8731V61.8281H244.905V58.8731H241.954ZM256.707 58.8731V61.8281H259.658V58.8731H256.707ZM271.461 58.8731V61.8281H274.411V58.8731H271.461ZM285.987 58.8731V61.8281H288.938V58.8731H285.987ZM300.74 58.8731V61.8281H303.691V58.8731H300.74ZM315.494 58.8731V61.8281H318.444V58.8731H315.494ZM330.247 58.8731V61.8281H333.198V58.8731H330.247ZM345 58.8731V61.8281H347.951V58.8731H345ZM359.526 58.8731V61.8281H362.477V58.8731H359.526ZM374.28 58.8731V61.8281H377.23V58.8731H374.28ZM389.033 58.8731V61.8281H391.984V58.8731H389.033ZM403.786 58.8731V61.8281H406.737V58.8731H403.786ZM418.313 58.8731V61.8281H421.263V58.8731H418.313ZM433.066 58.8731V61.8281H436.017V58.8731H433.066ZM447.819 58.8731V61.8281H450.77V58.8731H447.819ZM462.573 58.8731V61.8281H465.523V58.8731H462.573ZM477.326 58.8731V61.8281H480.276V58.8731H477.326ZM491.852 58.8731V61.8281H494.803V58.8731H491.852ZM506.605 58.8731V61.8281H509.556V58.8731H506.605ZM521.359 58.8731V61.8281H524.309V58.8731H521.359ZM536.112 58.8731V61.8281H539.063V58.8731H536.112ZM550.638 58.8731V61.8281H553.589V58.8731H550.638ZM565.392 58.8731V61.8281H568.342V58.8731H565.392ZM580.145 58.8731V61.8281H583.096V58.8731H580.145ZM594.898 58.8731V61.8281H597.849V58.8731H594.898ZM609.651 58.8731V61.8281H612.602V58.8731H609.651ZM624.178 58.8731V61.8281H627.128V58.8731H624.178ZM638.931 58.8731V61.8281H641.882V58.8731H638.931ZM-22.6973 73.6482V76.6032H-19.7466V73.6482H-22.6973ZM-7.94397 73.6482V76.6032H-4.99332V73.6482H-7.94397ZM6.80932 73.6482V76.6032H9.75998V73.6482H6.80932ZM21.3356 73.6482V76.6032H24.2863V73.6482H21.3356ZM36.0889 73.6482V76.6032H39.0396V73.6482H36.0889ZM50.8422 73.6482V76.6032H53.7929V73.6482H50.8422ZM65.5955 73.6482V76.6032H68.5462V73.6482H65.5955ZM80.1218 73.6482V76.6032H83.0725V73.6482H80.1218ZM94.8751 73.6482V76.6032H97.8258V73.6482H94.8751ZM109.628 73.6482V76.6032H112.579V73.6482H109.628ZM124.382 73.6482V76.6032H127.332V73.6482H124.382ZM139.135 73.6482V76.6032H142.086V73.6482H139.135ZM153.661 73.6482V76.6032H156.612V73.6482H153.661ZM168.415 73.6482V76.6032H171.365V73.6482H168.415ZM183.168 73.6482V76.6032H186.119V73.6482H183.168ZM197.921 73.6482V76.6032H200.872V73.6482H197.921ZM212.674 73.6482V76.6032H215.625V73.6482H212.674ZM227.201 73.6482V76.6032H230.151V73.6482H227.201ZM241.954 73.6482V76.6032H244.905V73.6482H241.954ZM256.707 73.6482V76.6032H259.658V73.6482H256.707ZM271.461 73.6482V76.6032H274.411V73.6482H271.461ZM285.987 73.6482V76.6032H288.938V73.6482H285.987ZM300.74 73.6482V76.6032H303.691V73.6482H300.74ZM315.494 73.6482V76.6032H318.444V73.6482H315.494ZM330.247 73.6482V76.6032H333.198V73.6482H330.247ZM345 73.6482V76.6032H347.951V73.6482H345ZM359.526 73.6482V76.6032H362.477V73.6482H359.526ZM374.28 73.6482V76.6032H377.23V73.6482H374.28ZM389.033 73.6482V76.6032H391.984V73.6482H389.033ZM403.786 73.6482V76.6032H406.737V73.6482H403.786ZM418.313 73.6482V76.6032H421.263V73.6482H418.313ZM433.066 73.6482V76.6032H436.017V73.6482H433.066ZM447.819 73.6482V76.6032H450.77V73.6482H447.819ZM462.573 73.6482V76.6032H465.523V73.6482H462.573ZM477.326 73.6482V76.6032H480.276V73.6482H477.326ZM491.852 73.6482V76.6032H494.803V73.6482H491.852ZM506.605 73.6482V76.6032H509.556V73.6482H506.605ZM521.359 73.6482V76.6032H524.309V73.6482H521.359ZM536.112 73.6482V76.6032H539.063V73.6482H536.112ZM550.638 73.6482V76.6032H553.589V73.6482H550.638ZM565.392 73.6482V76.6032H568.342V73.6482H565.392ZM580.145 73.6482V76.6032H583.096V73.6482H580.145ZM594.898 73.6482V76.6032H597.849V73.6482H594.898ZM609.651 73.6482V76.6032H612.602V73.6482H609.651ZM624.178 73.6482V76.6032H627.128V73.6482H624.178ZM638.931 73.6482V76.6032H641.882V73.6482H638.931ZM-22.6973 88.4233V91.3783H-19.7466V88.4233H-22.6973ZM-7.94397 88.4233V91.3783H-4.99332V88.4233H-7.94397ZM6.80932 88.4233V91.3783H9.75998V88.4233H6.80932ZM21.3356 88.4233V91.3783H24.2863V88.4233H21.3356ZM36.0889 88.4233V91.3783H39.0396V88.4233H36.0889ZM50.8422 88.4233V91.3783H53.7929V88.4233H50.8422ZM65.5955 88.4233V91.3783H68.5462V88.4233H65.5955ZM80.1218 88.4233V91.3783H83.0725V88.4233H80.1218ZM94.8751 88.4233V91.3783H97.8258V88.4233H94.8751ZM109.628 88.4233V91.3783H112.579V88.4233H109.628ZM124.382 88.4233V91.3783H127.332V88.4233H124.382ZM139.135 88.4233V91.3783H142.086V88.4233H139.135ZM153.661 88.4233V91.3783H156.612V88.4233H153.661ZM168.415 88.4233V91.3783H171.365V88.4233H168.415ZM183.168 88.4233V91.3783H186.119V88.4233H183.168ZM197.921 88.4233V91.3783H200.872V88.4233H197.921ZM212.674 88.4233V91.3783H215.625V88.4233H212.674ZM227.201 88.4233V91.3783H230.151V88.4233H227.201ZM241.954 88.4233V91.3783H244.905V88.4233H241.954ZM256.707 88.4233V91.3783H259.658V88.4233H256.707ZM271.461 88.4233V91.3783H274.411V88.4233H271.461ZM285.987 88.4233V91.3783H288.938V88.4233H285.987ZM300.74 88.4233V91.3783H303.691V88.4233H300.74ZM315.494 88.4233V91.3783H318.444V88.4233H315.494ZM330.247 88.4233V91.3783H333.198V88.4233H330.247ZM345 88.4233V91.3783H347.951V88.4233H345ZM359.526 88.4233V91.3783H362.477V88.4233H359.526ZM374.28 88.4233V91.3783H377.23V88.4233H374.28ZM389.033 88.4233V91.3783H391.984V88.4233H389.033ZM403.786 88.4233V91.3783H406.737V88.4233H403.786ZM418.313 88.4233V91.3783H421.263V88.4233H418.313ZM433.066 88.4233V91.3783H436.017V88.4233H433.066ZM447.819 88.4233V91.3783H450.77V88.4233H447.819ZM462.573 88.4233V91.3783H465.523V88.4233H462.573ZM477.326 88.4233V91.3783H480.276V88.4233H477.326ZM491.852 88.4233V91.3783H494.803V88.4233H491.852ZM506.605 88.4233V91.3783H509.556V88.4233H506.605ZM521.359 88.4233V91.3783H524.309V88.4233H521.359ZM536.112 88.4233V91.3783H539.063V88.4233H536.112ZM550.638 88.4233V91.3783H553.589V88.4233H550.638ZM565.392 88.4233V91.3783H568.342V88.4233H565.392ZM580.145 88.4233V91.3783H583.096V88.4233H580.145ZM594.898 88.4233V91.3783H597.849V88.4233H594.898ZM609.651 88.4233V91.3783H612.602V88.4233H609.651ZM624.178 88.4233V91.3783H627.128V88.4233H624.178ZM638.931 88.4233V91.3783H641.882V88.4233H638.931ZM-22.6973 103.198V106.153H-19.7466V103.198H-22.6973ZM-7.94397 103.198V106.153H-4.99332V103.198H-7.94397ZM6.80932 103.198V106.153H9.75998V103.198H6.80932ZM21.3356 103.198V106.153H24.2863V103.198H21.3356ZM36.0889 103.198V106.153H39.0396V103.198H36.0889ZM50.8422 103.198V106.153H53.7929V103.198H50.8422ZM65.5955 103.198V106.153H68.5462V103.198H65.5955ZM80.1218 103.198V106.153H83.0725V103.198H80.1218ZM94.8751 103.198V106.153H97.8258V103.198H94.8751ZM109.628 103.198V106.153H112.579V103.198H109.628ZM124.382 103.198V106.153H127.332V103.198H124.382ZM139.135 103.198V106.153H142.086V103.198H139.135ZM153.661 103.198V106.153H156.612V103.198H153.661ZM168.415 103.198V106.153H171.365V103.198H168.415ZM183.168 103.198V106.153H186.119V103.198H183.168ZM197.921 103.198V106.153H200.872V103.198H197.921ZM212.674 103.198V106.153H215.625V103.198H212.674ZM227.201 103.198V106.153H230.151V103.198H227.201ZM241.954 103.198V106.153H244.905V103.198H241.954ZM256.707 103.198V106.153H259.658V103.198H256.707ZM271.461 103.198V106.153H274.411V103.198H271.461ZM285.987 103.198V106.153H288.938V103.198H285.987ZM300.74 103.198V106.153H303.691V103.198H300.74ZM315.494 103.198V106.153H318.444V103.198H315.494ZM330.247 103.198V106.153H333.198V103.198H330.247ZM345 103.198V106.153H347.951V103.198H345ZM359.526 103.198V106.153H362.477V103.198H359.526ZM374.28 103.198V106.153H377.23V103.198H374.28ZM389.033 103.198V106.153H391.984V103.198H389.033ZM403.786 103.198V106.153H406.737V103.198H403.786ZM418.313 103.198V106.153H421.263V103.198H418.313ZM433.066 103.198V106.153H436.017V103.198H433.066ZM447.819 103.198V106.153H450.77V103.198H447.819ZM462.573 103.198V106.153H465.523V103.198H462.573ZM477.326 103.198V106.153H480.276V103.198H477.326ZM491.852 103.198V106.153H494.803V103.198H491.852ZM506.605 103.198V106.153H509.556V103.198H506.605ZM521.359 103.198V106.153H524.309V103.198H521.359ZM536.112 103.198V106.153H539.063V103.198H536.112ZM550.638 103.198V106.153H553.589V103.198H550.638ZM565.392 103.198V106.153H568.342V103.198H565.392ZM580.145 103.198V106.153H583.096V103.198H580.145ZM594.898 103.198V106.153H597.849V103.198H594.898ZM609.651 103.198V106.153H612.602V103.198H609.651ZM624.178 103.198V106.153H627.128V103.198H624.178ZM638.931 103.198V106.153H641.882V103.198H638.931ZM-22.6973 117.973V120.929H-19.7466V117.973H-22.6973ZM-7.94397 117.973V120.929H-4.99332V117.973H-7.94397ZM6.80932 117.973V120.929H9.75998V117.973H6.80932ZM21.3356 117.973V120.929H24.2863V117.973H21.3356ZM36.0889 117.973V120.929H39.0396V117.973H36.0889ZM50.8422 117.973V120.929H53.7929V117.973H50.8422ZM65.5955 117.973V120.929H68.5462V117.973H65.5955ZM80.1218 117.973V120.929H83.0725V117.973H80.1218ZM94.8751 117.973V120.929H97.8258V117.973H94.8751ZM109.628 117.973V120.929H112.579V117.973H109.628ZM124.382 117.973V120.929H127.332V117.973H124.382ZM139.135 117.973V120.929H142.086V117.973H139.135ZM153.661 117.973V120.929H156.612V117.973H153.661ZM168.415 117.973V120.929H171.365V117.973H168.415ZM183.168 117.973V120.929H186.119V117.973H183.168ZM197.921 117.973V120.929H200.872V117.973H197.921ZM212.674 117.973V120.929H215.625V117.973H212.674ZM227.201 117.973V120.929H230.151V117.973H227.201ZM241.954 117.973V120.929H244.905V117.973H241.954ZM256.707 117.973V120.929H259.658V117.973H256.707ZM271.461 117.973V120.929H274.411V117.973H271.461ZM285.987 117.973V120.929H288.938V117.973H285.987ZM300.74 117.973V120.929H303.691V117.973H300.74ZM315.494 117.973V120.929H318.444V117.973H315.494ZM330.247 117.973V120.929H333.198V117.973H330.247ZM345 117.973V120.929H347.951V117.973H345ZM359.526 117.973V120.929H362.477V117.973H359.526ZM374.28 117.973V120.929H377.23V117.973H374.28ZM389.033 117.973V120.929H391.984V117.973H389.033ZM403.786 117.973V120.929H406.737V117.973H403.786ZM418.313 117.973V120.929H421.263V117.973H418.313ZM433.066 117.973V120.929H436.017V117.973H433.066ZM447.819 117.973V120.929H450.77V117.973H447.819ZM462.573 117.973V120.929H465.523V117.973H462.573ZM477.326 117.973V120.929H480.276V117.973H477.326ZM491.852 117.973V120.929H494.803V117.973H491.852ZM506.605 117.973V120.929H509.556V117.973H506.605ZM521.359 117.973V120.929H524.309V117.973H521.359ZM536.112 117.973V120.929H539.063V117.973H536.112ZM550.638 117.973V120.929H553.589V117.973H550.638ZM565.392 117.973V120.929H568.342V117.973H565.392ZM580.145 117.973V120.929H583.096V117.973H580.145ZM594.898 117.973V120.929H597.849V117.973H594.898ZM609.651 117.973V120.929H612.602V117.973H609.651ZM624.178 117.973V120.929H627.128V117.973H624.178ZM638.931 117.973V120.929H641.882V117.973H638.931ZM-22.6973 132.749V135.704H-19.7466V132.749H-22.6973ZM-7.94397 132.749V135.704H-4.99332V132.749H-7.94397ZM6.80932 132.749V135.704H9.75998V132.749H6.80932ZM21.3356 132.749V135.704H24.2863V132.749H21.3356ZM36.0889 132.749V135.704H39.0396V132.749H36.0889ZM50.8422 132.749V135.704H53.7929V132.749H50.8422ZM65.5955 132.749V135.704H68.5462V132.749H65.5955ZM80.1218 132.749V135.704H83.0725V132.749H80.1218ZM94.8751 132.749V135.704H97.8258V132.749H94.8751ZM109.628 132.749V135.704H112.579V132.749H109.628ZM124.382 132.749V135.704H127.332V132.749H124.382ZM139.135 132.749V135.704H142.086V132.749H139.135ZM153.661 132.749V135.704H156.612V132.749H153.661ZM168.415 132.749V135.704H171.365V132.749H168.415ZM183.168 132.749V135.704H186.119V132.749H183.168ZM197.921 132.749V135.704H200.872V132.749H197.921ZM212.674 132.749V135.704H215.625V132.749H212.674ZM227.201 132.749V135.704H230.151V132.749H227.201ZM241.954 132.749V135.704H244.905V132.749H241.954ZM256.707 132.749V135.704H259.658V132.749H256.707ZM271.461 132.749V135.704H274.411V132.749H271.461ZM285.987 132.749V135.704H288.938V132.749H285.987ZM300.74 132.749V135.704H303.691V132.749H300.74ZM315.494 132.749V135.704H318.444V132.749H315.494ZM330.247 132.749V135.704H333.198V132.749H330.247ZM345 132.749V135.704H347.951V132.749H345ZM359.526 132.749V135.704H362.477V132.749H359.526ZM374.28 132.749V135.704H377.23V132.749H374.28ZM389.033 132.749V135.704H391.984V132.749H389.033ZM403.786 132.749V135.704H406.737V132.749H403.786ZM418.313 132.749V135.704H421.263V132.749H418.313ZM433.066 132.749V135.704H436.017V132.749H433.066ZM447.819 132.749V135.704H450.77V132.749H447.819ZM462.573 132.749V135.704H465.523V132.749H462.573ZM477.326 132.749V135.704H480.276V132.749H477.326ZM491.852 132.749V135.704H494.803V132.749H491.852ZM506.605 132.749V135.704H509.556V132.749H506.605ZM521.359 132.749V135.704H524.309V132.749H521.359ZM536.112 132.749V135.704H539.063V132.749H536.112ZM550.638 132.749V135.704H553.589V132.749H550.638ZM565.392 132.749V135.704H568.342V132.749H565.392ZM580.145 132.749V135.704H583.096V132.749H580.145ZM594.898 132.749V135.704H597.849V132.749H594.898ZM609.651 132.749V135.704H612.602V132.749H609.651ZM624.178 132.749V135.704H627.128V132.749H624.178ZM638.931 132.749V135.704H641.882V132.749H638.931ZM-22.6973 147.296V150.251H-19.7466V147.296H-22.6973ZM-7.94397 147.296V150.251H-4.99332V147.296H-7.94397ZM6.80932 147.296V150.251H9.75998V147.296H6.80932ZM21.3356 147.296V150.251H24.2863V147.296H21.3356ZM36.0889 147.296V150.251H39.0396V147.296H36.0889ZM50.8422 147.296V150.251H53.7929V147.296H50.8422ZM65.5955 147.296V150.251H68.5462V147.296H65.5955ZM80.1218 147.296V150.251H83.0725V147.296H80.1218ZM94.8751 147.296V150.251H97.8258V147.296H94.8751ZM109.628 147.296V150.251H112.579V147.296H109.628ZM124.382 147.296V150.251H127.332V147.296H124.382ZM139.135 147.296V150.251H142.086V147.296H139.135ZM153.661 147.296V150.251H156.612V147.296H153.661ZM168.415 147.296V150.251H171.365V147.296H168.415ZM183.168 147.296V150.251H186.119V147.296H183.168ZM197.921 147.296V150.251H200.872V147.296H197.921ZM212.674 147.296V150.251H215.625V147.296H212.674ZM227.201 147.296V150.251H230.151V147.296H227.201ZM241.954 147.296V150.251H244.905V147.296H241.954ZM256.707 147.296V150.251H259.658V147.296H256.707ZM271.461 147.296V150.251H274.411V147.296H271.461ZM285.987 147.296V150.251H288.938V147.296H285.987ZM300.74 147.296V150.251H303.691V147.296H300.74ZM315.494 147.296V150.251H318.444V147.296H315.494ZM330.247 147.296V150.251H333.198V147.296H330.247ZM345 147.296V150.251H347.951V147.296H345ZM359.526 147.296V150.251H362.477V147.296H359.526ZM374.28 147.296V150.251H377.23V147.296H374.28ZM389.033 147.296V150.251H391.984V147.296H389.033ZM403.786 147.296V150.251H406.737V147.296H403.786ZM418.313 147.296V150.251H421.263V147.296H418.313ZM433.066 147.296V150.251H436.017V147.296H433.066ZM447.819 147.296V150.251H450.77V147.296H447.819ZM462.573 147.296V150.251H465.523V147.296H462.573ZM477.326 147.296V150.251H480.276V147.296H477.326ZM491.852 147.296V150.251H494.803V147.296H491.852ZM506.605 147.296V150.251H509.556V147.296H506.605ZM521.359 147.296V150.251H524.309V147.296H521.359ZM536.112 147.296V150.251H539.063V147.296H536.112ZM550.638 147.296V150.251H553.589V147.296H550.638ZM565.392 147.296V150.251H568.342V147.296H565.392ZM580.145 147.296V150.251H583.096V147.296H580.145ZM594.898 147.296V150.251H597.849V147.296H594.898ZM609.651 147.296V150.251H612.602V147.296H609.651ZM624.178 147.296V150.251H627.128V147.296H624.178ZM638.931 147.296V150.251H641.882V147.296H638.931ZM-22.6973 162.071V165.027H-19.7466V162.071H-22.6973ZM-7.94397 162.071V165.027H-4.99332V162.071H-7.94397ZM6.80932 162.071V165.027H9.75998V162.071H6.80932ZM21.3356 162.071V165.027H24.2863V162.071H21.3356ZM36.0889 162.071V165.027H39.0396V162.071H36.0889ZM50.8422 162.071V165.027H53.7929V162.071H50.8422ZM65.5955 162.071V165.027H68.5462V162.071H65.5955ZM80.1218 162.071V165.027H83.0725V162.071H80.1218ZM94.8751 162.071V165.027H97.8258V162.071H94.8751ZM109.628 162.071V165.027H112.579V162.071H109.628ZM124.382 162.071V165.027H127.332V162.071H124.382ZM139.135 162.071V165.027H142.086V162.071H139.135ZM153.661 162.071V165.027H156.612V162.071H153.661ZM168.415 162.071V165.027H171.365V162.071H168.415ZM183.168 162.071V165.027H186.119V162.071H183.168ZM197.921 162.071V165.027H200.872V162.071H197.921ZM212.674 162.071V165.027H215.625V162.071H212.674ZM227.201 162.071V165.027H230.151V162.071H227.201ZM241.954 162.071V165.027H244.905V162.071H241.954ZM256.707 162.071V165.027H259.658V162.071H256.707ZM271.461 162.071V165.027H274.411V162.071H271.461ZM285.987 162.071V165.027H288.938V162.071H285.987ZM300.74 162.071V165.027H303.691V162.071H300.74ZM315.494 162.071V165.027H318.444V162.071H315.494ZM330.247 162.071V165.027H333.198V162.071H330.247ZM345 162.071V165.027H347.951V162.071H345ZM359.526 162.071V165.027H362.477V162.071H359.526ZM374.28 162.071V165.027H377.23V162.071H374.28ZM389.033 162.071V165.027H391.984V162.071H389.033ZM403.786 162.071V165.027H406.737V162.071H403.786ZM418.313 162.071V165.027H421.263V162.071H418.313ZM433.066 162.071V165.027H436.017V162.071H433.066ZM447.819 162.071V165.027H450.77V162.071H447.819ZM462.573 162.071V165.027H465.523V162.071H462.573ZM477.326 162.071V165.027H480.276V162.071H477.326ZM491.852 162.071V165.027H494.803V162.071H491.852ZM506.605 162.071V165.027H509.556V162.071H506.605ZM521.359 162.071V165.027H524.309V162.071H521.359ZM536.112 162.071V165.027H539.063V162.071H536.112ZM550.638 162.071V165.027H553.589V162.071H550.638ZM565.392 162.071V165.027H568.342V162.071H565.392ZM580.145 162.071V165.027H583.096V162.071H580.145ZM594.898 162.071V165.027H597.849V162.071H594.898ZM609.651 162.071V165.027H612.602V162.071H609.651ZM624.178 162.071V165.027H627.128V162.071H624.178ZM638.931 162.071V165.027H641.882V162.071H638.931ZM-22.6973 176.847V179.802H-19.7466V176.847H-22.6973ZM-7.94397 176.847V179.802H-4.99332V176.847H-7.94397ZM6.80932 176.847V179.802H9.75998V176.847H6.80932ZM21.3356 176.847V179.802H24.2863V176.847H21.3356ZM36.0889 176.847V179.802H39.0396V176.847H36.0889ZM50.8422 176.847V179.802H53.7929V176.847H50.8422ZM65.5955 176.847V179.802H68.5462V176.847H65.5955ZM80.1218 176.847V179.802H83.0725V176.847H80.1218ZM94.8751 176.847V179.802H97.8258V176.847H94.8751ZM109.628 176.847V179.802H112.579V176.847H109.628ZM124.382 176.847V179.802H127.332V176.847H124.382ZM139.135 176.847V179.802H142.086V176.847H139.135ZM153.661 176.847V179.802H156.612V176.847H153.661ZM168.415 176.847V179.802H171.365V176.847H168.415ZM183.168 176.847V179.802H186.119V176.847H183.168ZM197.921 176.847V179.802H200.872V176.847H197.921ZM212.674 176.847V179.802H215.625V176.847H212.674ZM227.201 176.847V179.802H230.151V176.847H227.201ZM241.954 176.847V179.802H244.905V176.847H241.954ZM256.707 176.847V179.802H259.658V176.847H256.707ZM271.461 176.847V179.802H274.411V176.847H271.461ZM285.987 176.847V179.802H288.938V176.847H285.987ZM300.74 176.847V179.802H303.691V176.847H300.74ZM315.494 176.847V179.802H318.444V176.847H315.494ZM330.247 176.847V179.802H333.198V176.847H330.247ZM345 176.847V179.802H347.951V176.847H345ZM359.526 176.847V179.802H362.477V176.847H359.526ZM374.28 176.847V179.802H377.23V176.847H374.28ZM389.033 176.847V179.802H391.984V176.847H389.033ZM403.786 176.847V179.802H406.737V176.847H403.786ZM418.313 176.847V179.802H421.263V176.847H418.313ZM433.066 176.847V179.802H436.017V176.847H433.066ZM447.819 176.847V179.802H450.77V176.847H447.819ZM462.573 176.847V179.802H465.523V176.847H462.573ZM477.326 176.847V179.802H480.276V176.847H477.326ZM491.852 176.847V179.802H494.803V176.847H491.852ZM506.605 176.847V179.802H509.556V176.847H506.605ZM521.359 176.847V179.802H524.309V176.847H521.359ZM536.112 176.847V179.802H539.063V176.847H536.112ZM550.638 176.847V179.802H553.589V176.847H550.638ZM565.392 176.847V179.802H568.342V176.847H565.392ZM580.145 176.847V179.802H583.096V176.847H580.145ZM594.898 176.847V179.802H597.849V176.847H594.898ZM609.651 176.847V179.802H612.602V176.847H609.651ZM624.178 176.847V179.802H627.128V176.847H624.178ZM638.931 176.847V179.802H641.882V176.847H638.931ZM-22.6973 191.622V194.577H-19.7466V191.622H-22.6973ZM-7.94397 191.622V194.577H-4.99332V191.622H-7.94397ZM6.80932 191.622V194.577H9.75998V191.622H6.80932ZM21.3356 191.622V194.577H24.2863V191.622H21.3356ZM36.0889 191.622V194.577H39.0396V191.622H36.0889ZM50.8422 191.622V194.577H53.7929V191.622H50.8422ZM65.5955 191.622V194.577H68.5462V191.622H65.5955ZM80.1218 191.622V194.577H83.0725V191.622H80.1218ZM94.8751 191.622V194.577H97.8258V191.622H94.8751ZM109.628 191.622V194.577H112.579V191.622H109.628ZM124.382 191.622V194.577H127.332V191.622H124.382ZM139.135 191.622V194.577H142.086V191.622H139.135ZM153.661 191.622V194.577H156.612V191.622H153.661ZM168.415 191.622V194.577H171.365V191.622H168.415ZM183.168 191.622V194.577H186.119V191.622H183.168ZM197.921 191.622V194.577H200.872V191.622H197.921ZM212.674 191.622V194.577H215.625V191.622H212.674ZM227.201 191.622V194.577H230.151V191.622H227.201ZM241.954 191.622V194.577H244.905V191.622H241.954ZM256.707 191.622V194.577H259.658V191.622H256.707ZM271.461 191.622V194.577H274.411V191.622H271.461ZM285.987 191.622V194.577H288.938V191.622H285.987ZM300.74 191.622V194.577H303.691V191.622H300.74ZM315.494 191.622V194.577H318.444V191.622H315.494ZM330.247 191.622V194.577H333.198V191.622H330.247ZM345 191.622V194.577H347.951V191.622H345ZM359.526 191.622V194.577H362.477V191.622H359.526ZM374.28 191.622V194.577H377.23V191.622H374.28ZM389.033 191.622V194.577H391.984V191.622H389.033ZM403.786 191.622V194.577H406.737V191.622H403.786ZM418.313 191.622V194.577H421.263V191.622H418.313ZM433.066 191.622V194.577H436.017V191.622H433.066ZM447.819 191.622V194.577H450.77V191.622H447.819ZM462.573 191.622V194.577H465.523V191.622H462.573ZM477.326 191.622V194.577H480.276V191.622H477.326ZM491.852 191.622V194.577H494.803V191.622H491.852ZM506.605 191.622V194.577H509.556V191.622H506.605ZM521.359 191.622V194.577H524.309V191.622H521.359ZM536.112 191.622V194.577H539.063V191.622H536.112ZM550.638 191.622V194.577H553.589V191.622H550.638ZM565.392 191.622V194.577H568.342V191.622H565.392ZM580.145 191.622V194.577H583.096V191.622H580.145ZM594.898 191.622V194.577H597.849V191.622H594.898ZM609.651 191.622V194.577H612.602V191.622H609.651ZM624.178 191.622V194.577H627.128V191.622H624.178ZM638.931 191.622V194.577H641.882V191.622H638.931ZM-22.6973 206.397V209.352H-19.7466V206.397H-22.6973ZM-7.94397 206.397V209.352H-4.99332V206.397H-7.94397ZM6.80932 206.397V209.352H9.75998V206.397H6.80932ZM21.3356 206.397V209.352H24.2863V206.397H21.3356ZM36.0889 206.397V209.352H39.0396V206.397H36.0889ZM50.8422 206.397V209.352H53.7929V206.397H50.8422ZM65.5955 206.397V209.352H68.5462V206.397H65.5955ZM80.1218 206.397V209.352H83.0725V206.397H80.1218ZM94.8751 206.397V209.352H97.8258V206.397H94.8751ZM109.628 206.397V209.352H112.579V206.397H109.628ZM124.382 206.397V209.352H127.332V206.397H124.382ZM139.135 206.397V209.352H142.086V206.397H139.135ZM153.661 206.397V209.352H156.612V206.397H153.661ZM168.415 206.397V209.352H171.365V206.397H168.415ZM183.168 206.397V209.352H186.119V206.397H183.168ZM197.921 206.397V209.352H200.872V206.397H197.921ZM212.674 206.397V209.352H215.625V206.397H212.674ZM227.201 206.397V209.352H230.151V206.397H227.201ZM241.954 206.397V209.352H244.905V206.397H241.954ZM256.707 206.397V209.352H259.658V206.397H256.707ZM271.461 206.397V209.352H274.411V206.397H271.461ZM285.987 206.397V209.352H288.938V206.397H285.987ZM300.74 206.397V209.352H303.691V206.397H300.74ZM315.494 206.397V209.352H318.444V206.397H315.494ZM330.247 206.397V209.352H333.198V206.397H330.247ZM345 206.397V209.352H347.951V206.397H345ZM359.526 206.397V209.352H362.477V206.397H359.526ZM374.28 206.397V209.352H377.23V206.397H374.28ZM389.033 206.397V209.352H391.984V206.397H389.033ZM403.786 206.397V209.352H406.737V206.397H403.786ZM418.313 206.397V209.352H421.263V206.397H418.313ZM433.066 206.397V209.352H436.017V206.397H433.066ZM447.819 206.397V209.352H450.77V206.397H447.819ZM462.573 206.397V209.352H465.523V206.397H462.573ZM477.326 206.397V209.352H480.276V206.397H477.326ZM491.852 206.397V209.352H494.803V206.397H491.852ZM506.605 206.397V209.352H509.556V206.397H506.605ZM521.359 206.397V209.352H524.309V206.397H521.359ZM536.112 206.397V209.352H539.063V206.397H536.112ZM550.638 206.397V209.352H553.589V206.397H550.638ZM565.392 206.397V209.352H568.342V206.397H565.392ZM580.145 206.397V209.352H583.096V206.397H580.145ZM594.898 206.397V209.352H597.849V206.397H594.898ZM609.651 206.397V209.352H612.602V206.397H609.651ZM624.178 206.397V209.352H627.128V206.397H624.178ZM638.931 206.397V209.352H641.882V206.397H638.931ZM-22.6973 221.172V224.127H-19.7466V221.172H-22.6973ZM-7.94397 221.172V224.127H-4.99332V221.172H-7.94397ZM6.80932 221.172V224.127H9.75998V221.172H6.80932ZM21.3356 221.172V224.127H24.2863V221.172H21.3356ZM36.0889 221.172V224.127H39.0396V221.172H36.0889ZM50.8422 221.172V224.127H53.7929V221.172H50.8422ZM65.5955 221.172V224.127H68.5462V221.172H65.5955ZM80.1218 221.172V224.127H83.0725V221.172H80.1218ZM94.8751 221.172V224.127H97.8258V221.172H94.8751ZM109.628 221.172V224.127H112.579V221.172H109.628ZM124.382 221.172V224.127H127.332V221.172H124.382ZM139.135 221.172V224.127H142.086V221.172H139.135ZM153.661 221.172V224.127H156.612V221.172H153.661ZM168.415 221.172V224.127H171.365V221.172H168.415ZM183.168 221.172V224.127H186.119V221.172H183.168ZM197.921 221.172V224.127H200.872V221.172H197.921ZM212.674 221.172V224.127H215.625V221.172H212.674ZM227.201 221.172V224.127H230.151V221.172H227.201ZM241.954 221.172V224.127H244.905V221.172H241.954ZM256.707 221.172V224.127H259.658V221.172H256.707ZM271.461 221.172V224.127H274.411V221.172H271.461ZM285.987 221.172V224.127H288.938V221.172H285.987ZM300.74 221.172V224.127H303.691V221.172H300.74ZM315.494 221.172V224.127H318.444V221.172H315.494ZM330.247 221.172V224.127H333.198V221.172H330.247ZM345 221.172V224.127H347.951V221.172H345ZM359.526 221.172V224.127H362.477V221.172H359.526ZM374.28 221.172V224.127H377.23V221.172H374.28ZM389.033 221.172V224.127H391.984V221.172H389.033ZM403.786 221.172V224.127H406.737V221.172H403.786ZM418.313 221.172V224.127H421.263V221.172H418.313ZM433.066 221.172V224.127H436.017V221.172H433.066ZM447.819 221.172V224.127H450.77V221.172H447.819ZM462.573 221.172V224.127H465.523V221.172H462.573ZM477.326 221.172V224.127H480.276V221.172H477.326ZM491.852 221.172V224.127H494.803V221.172H491.852ZM506.605 221.172V224.127H509.556V221.172H506.605ZM521.359 221.172V224.127H524.309V221.172H521.359ZM536.112 221.172V224.127H539.063V221.172H536.112ZM550.638 221.172V224.127H553.589V221.172H550.638ZM565.392 221.172V224.127H568.342V221.172H565.392ZM580.145 221.172V224.127H583.096V221.172H580.145ZM594.898 221.172V224.127H597.849V221.172H594.898ZM609.651 221.172V224.127H612.602V221.172H609.651ZM624.178 221.172V224.127H627.128V221.172H624.178ZM638.931 221.172V224.127H641.882V221.172H638.931ZM-22.6973 235.72V238.675H-19.7466V235.72H-22.6973ZM-7.94397 235.72V238.675H-4.99332V235.72H-7.94397ZM6.80932 235.72V238.675H9.75998V235.72H6.80932ZM21.3356 235.72V238.675H24.2863V235.72H21.3356ZM36.0889 235.72V238.675H39.0396V235.72H36.0889ZM50.8422 235.72V238.675H53.7929V235.72H50.8422ZM65.5955 235.72V238.675H68.5462V235.72H65.5955ZM80.1218 235.72V238.675H83.0725V235.72H80.1218ZM94.8751 235.72V238.675H97.8258V235.72H94.8751ZM109.628 235.72V238.675H112.579V235.72H109.628ZM124.382 235.72V238.675H127.332V235.72H124.382ZM139.135 235.72V238.675H142.086V235.72H139.135ZM153.661 235.72V238.675H156.612V235.72H153.661ZM168.415 235.72V238.675H171.365V235.72H168.415ZM183.168 235.72V238.675H186.119V235.72H183.168ZM197.921 235.72V238.675H200.872V235.72H197.921ZM212.674 235.72V238.675H215.625V235.72H212.674ZM227.201 235.72V238.675H230.151V235.72H227.201ZM241.954 235.72V238.675H244.905V235.72H241.954ZM256.707 235.72V238.675H259.658V235.72H256.707ZM271.461 235.72V238.675H274.411V235.72H271.461ZM285.987 235.72V238.675H288.938V235.72H285.987ZM300.74 235.72V238.675H303.691V235.72H300.74ZM315.494 235.72V238.675H318.444V235.72H315.494ZM330.247 235.72V238.675H333.198V235.72H330.247ZM345 235.72V238.675H347.951V235.72H345ZM359.526 235.72V238.675H362.477V235.72H359.526ZM374.28 235.72V238.675H377.23V235.72H374.28ZM389.033 235.72V238.675H391.984V235.72H389.033ZM403.786 235.72V238.675H406.737V235.72H403.786ZM418.313 235.72V238.675H421.263V235.72H418.313ZM433.066 235.72V238.675H436.017V235.72H433.066ZM447.819 235.72V238.675H450.77V235.72H447.819ZM462.573 235.72V238.675H465.523V235.72H462.573ZM477.326 235.72V238.675H480.276V235.72H477.326ZM491.852 235.72V238.675H494.803V235.72H491.852ZM506.605 235.72V238.675H509.556V235.72H506.605ZM521.359 235.72V238.675H524.309V235.72H521.359ZM536.112 235.72V238.675H539.063V235.72H536.112ZM550.638 235.72V238.675H553.589V235.72H550.638ZM565.392 235.72V238.675H568.342V235.72H565.392ZM580.145 235.72V238.675H583.096V235.72H580.145ZM594.898 235.72V238.675H597.849V235.72H594.898ZM609.651 235.72V238.675H612.602V235.72H609.651ZM624.178 235.72V238.675H627.128V235.72H624.178ZM638.931 235.72V238.675H641.882V235.72H638.931ZM-22.6973 250.495V253.45H-19.7466V250.495H-22.6973ZM-7.94397 250.495V253.45H-4.99332V250.495H-7.94397ZM6.80932 250.495V253.45H9.75998V250.495H6.80932ZM21.3356 250.495V253.45H24.2863V250.495H21.3356ZM36.0889 250.495V253.45H39.0396V250.495H36.0889ZM50.8422 250.495V253.45H53.7929V250.495H50.8422ZM65.5955 250.495V253.45H68.5462V250.495H65.5955ZM80.1218 250.495V253.45H83.0725V250.495H80.1218ZM94.8751 250.495V253.45H97.8258V250.495H94.8751ZM109.628 250.495V253.45H112.579V250.495H109.628ZM124.382 250.495V253.45H127.332V250.495H124.382ZM139.135 250.495V253.45H142.086V250.495H139.135ZM153.661 250.495V253.45H156.612V250.495H153.661ZM168.415 250.495V253.45H171.365V250.495H168.415ZM183.168 250.495V253.45H186.119V250.495H183.168ZM197.921 250.495V253.45H200.872V250.495H197.921ZM212.674 250.495V253.45H215.625V250.495H212.674ZM227.201 250.495V253.45H230.151V250.495H227.201ZM241.954 250.495V253.45H244.905V250.495H241.954ZM256.707 250.495V253.45H259.658V250.495H256.707ZM271.461 250.495V253.45H274.411V250.495H271.461ZM285.987 250.495V253.45H288.938V250.495H285.987ZM300.74 250.495V253.45H303.691V250.495H300.74ZM315.494 250.495V253.45H318.444V250.495H315.494ZM330.247 250.495V253.45H333.198V250.495H330.247ZM345 250.495V253.45H347.951V250.495H345ZM359.526 250.495V253.45H362.477V250.495H359.526ZM374.28 250.495V253.45H377.23V250.495H374.28ZM389.033 250.495V253.45H391.984V250.495H389.033ZM403.786 250.495V253.45H406.737V250.495H403.786ZM418.313 250.495V253.45H421.263V250.495H418.313ZM433.066 250.495V253.45H436.017V250.495H433.066ZM447.819 250.495V253.45H450.77V250.495H447.819ZM462.573 250.495V253.45H465.523V250.495H462.573ZM477.326 250.495V253.45H480.276V250.495H477.326ZM491.852 250.495V253.45H494.803V250.495H491.852ZM506.605 250.495V253.45H509.556V250.495H506.605ZM521.359 250.495V253.45H524.309V250.495H521.359ZM536.112 250.495V253.45H539.063V250.495H536.112ZM550.638 250.495V253.45H553.589V250.495H550.638ZM565.392 250.495V253.45H568.342V250.495H565.392ZM580.145 250.495V253.45H583.096V250.495H580.145ZM594.898 250.495V253.45H597.849V250.495H594.898ZM609.651 250.495V253.45H612.602V250.495H609.651ZM624.178 250.495V253.45H627.128V250.495H624.178ZM638.931 250.495V253.45H641.882V250.495H638.931ZM-22.6973 265.27V268.225H-19.7466V265.27H-22.6973ZM-7.94397 265.27V268.225H-4.99332V265.27H-7.94397ZM6.80932 265.27V268.225H9.75998V265.27H6.80932ZM21.3356 265.27V268.225H24.2863V265.27H21.3356ZM36.0889 265.27V268.225H39.0396V265.27H36.0889ZM50.8422 265.27V268.225H53.7929V265.27H50.8422ZM65.5955 265.27V268.225H68.5462V265.27H65.5955ZM80.1218 265.27V268.225H83.0725V265.27H80.1218ZM94.8751 265.27V268.225H97.8258V265.27H94.8751ZM109.628 265.27V268.225H112.579V265.27H109.628ZM124.382 265.27V268.225H127.332V265.27H124.382ZM139.135 265.27V268.225H142.086V265.27H139.135ZM153.661 265.27V268.225H156.612V265.27H153.661ZM168.415 265.27V268.225H171.365V265.27H168.415ZM183.168 265.27V268.225H186.119V265.27H183.168ZM197.921 265.27V268.225H200.872V265.27H197.921ZM212.674 265.27V268.225H215.625V265.27H212.674ZM227.201 265.27V268.225H230.151V265.27H227.201ZM241.954 265.27V268.225H244.905V265.27H241.954ZM256.707 265.27V268.225H259.658V265.27H256.707ZM271.461 265.27V268.225H274.411V265.27H271.461ZM285.987 265.27V268.225H288.938V265.27H285.987ZM300.74 265.27V268.225H303.691V265.27H300.74ZM315.494 265.27V268.225H318.444V265.27H315.494ZM330.247 265.27V268.225H333.198V265.27H330.247ZM345 265.27V268.225H347.951V265.27H345ZM359.526 265.27V268.225H362.477V265.27H359.526ZM374.28 265.27V268.225H377.23V265.27H374.28ZM389.033 265.27V268.225H391.984V265.27H389.033ZM403.786 265.27V268.225H406.737V265.27H403.786ZM418.313 265.27V268.225H421.263V265.27H418.313ZM433.066 265.27V268.225H436.017V265.27H433.066ZM447.819 265.27V268.225H450.77V265.27H447.819ZM462.573 265.27V268.225H465.523V265.27H462.573ZM477.326 265.27V268.225H480.276V265.27H477.326ZM491.852 265.27V268.225H494.803V265.27H491.852ZM506.605 265.27V268.225H509.556V265.27H506.605ZM521.359 265.27V268.225H524.309V265.27H521.359ZM536.112 265.27V268.225H539.063V265.27H536.112ZM550.638 265.27V268.225H553.589V265.27H550.638ZM565.392 265.27V268.225H568.342V265.27H565.392ZM580.145 265.27V268.225H583.096V265.27H580.145ZM594.898 265.27V268.225H597.849V265.27H594.898ZM609.651 265.27V268.225H612.602V265.27H609.651ZM624.178 265.27V268.225H627.128V265.27H624.178ZM638.931 265.27V268.225H641.882V265.27H638.931ZM-22.6973 280.045V283H-19.7466V280.045H-22.6973ZM-7.94397 280.045V283H-4.99332V280.045H-7.94397ZM6.80932 280.045V283H9.75998V280.045H6.80932ZM21.3356 280.045V283H24.2863V280.045H21.3356ZM36.0889 280.045V283H39.0396V280.045H36.0889ZM50.8422 280.045V283H53.7929V280.045H50.8422ZM65.5955 280.045V283H68.5462V280.045H65.5955ZM80.1218 280.045V283H83.0725V280.045H80.1218ZM94.8751 280.045V283H97.8258V280.045H94.8751ZM109.628 280.045V283H112.579V280.045H109.628ZM124.382 280.045V283H127.332V280.045H124.382ZM139.135 280.045V283H142.086V280.045H139.135ZM153.661 280.045V283H156.612V280.045H153.661ZM168.415 280.045V283H171.365V280.045H168.415ZM183.168 280.045V283H186.119V280.045H183.168ZM197.921 280.045V283H200.872V280.045H197.921ZM212.674 280.045V283H215.625V280.045H212.674ZM227.201 280.045V283H230.151V280.045H227.201ZM241.954 280.045V283H244.905V280.045H241.954ZM256.707 280.045V283H259.658V280.045H256.707ZM271.461 280.045V283H274.411V280.045H271.461ZM285.987 280.045V283H288.938V280.045H285.987ZM300.74 280.045V283H303.691V280.045H300.74ZM315.494 280.045V283H318.444V280.045H315.494ZM330.247 280.045V283H333.198V280.045H330.247ZM345 280.045V283H347.951V280.045H345ZM359.526 280.045V283H362.477V280.045H359.526ZM374.28 280.045V283H377.23V280.045H374.28ZM389.033 280.045V283H391.984V280.045H389.033ZM403.786 280.045V283H406.737V280.045H403.786ZM418.313 280.045V283H421.263V280.045H418.313ZM433.066 280.045V283H436.017V280.045H433.066ZM447.819 280.045V283H450.77V280.045H447.819ZM462.573 280.045V283H465.523V280.045H462.573ZM477.326 280.045V283H480.276V280.045H477.326ZM491.852 280.045V283H494.803V280.045H491.852ZM506.605 280.045V283H509.556V280.045H506.605ZM521.359 280.045V283H524.309V280.045H521.359ZM536.112 280.045V283H539.063V280.045H536.112ZM550.638 280.045V283H553.589V280.045H550.638ZM565.392 280.045V283H568.342V280.045H565.392ZM580.145 280.045V283H583.096V280.045H580.145ZM594.898 280.045V283H597.849V280.045H594.898ZM609.651 280.045V283H612.602V280.045H609.651ZM624.178 280.045V283H627.128V280.045H624.178ZM638.931 280.045V283H641.882V280.045H638.931Z" fill="#FF4654" fill-opacity="0.47"/>
<path opacity="0.4" d="M171.616 224.41V236.23H183.418V224.41H171.616Z" fill="#52544C"/>
<path opacity="0.4" d="M186.369 224.41V236.23H198.172V224.41H186.369Z" fill="#52544C"/>
<path opacity="0.4" d="M201.122 224.41V236.23H212.925V224.41H201.122Z" fill="#676863"/>
<path d="M171.616 194.859V206.68H183.418V194.859H171.616Z" fill="#454D4C"/>
<path d="M186.369 194.859V206.68H198.172V194.859H186.369Z" fill="#454D4C"/>
<path d="M201.122 194.859V206.68H212.925V194.859H201.122Z" fill="#4E544D"/>
<path d="M171.616 209.635V221.455H183.418V209.635H171.616Z" fill="#B2B2B2"/>
<path d="M186.369 209.635V221.455H198.172V209.635H186.369Z" fill="#B2B2B2"/>
<path d="M201.122 209.635V221.455H212.925V209.635H201.122Z" fill="#CACEC8"/>
<path d="M186.369 93.0249V104.845H198.172V93.0249H186.369Z" fill="#007C89"/>
<path opacity="0.4" d="M186.369 47.3358V59.1559H198.172V47.3358H186.369Z" fill="#52544C"/>
<path opacity="0.4" d="M200.895 47.3358L201.122 59.1559H212.698V47.3358H200.895Z" fill="#676863"/>
<path opacity="0.4" d="M171.616 47.3358V59.1559H183.418V47.3358H171.616Z" fill="#52544C"/>
<path d="M186.369 62.111V73.9311H198.172V62.111H186.369Z" fill="#B2B2B2"/>
<path d="M200.895 62.111L201.122 73.9311H212.698V62.111H200.895Z" fill="#CACEC8"/>
<path d="M171.616 62.111V73.9311H183.418V62.111H171.616Z" fill="#B2B2B2"/>
<path d="M186.369 76.886V88.7061H198.172V76.886H186.369Z" fill="#4E544D"/>
<path d="M200.895 76.886L201.122 88.7061H212.698V76.886H200.895Z" fill="#4E544D"/>
<path d="M171.616 76.886V88.7061H183.418V76.886H171.616Z" fill="#454D4C"/>
<path d="M201.122 91.6611V103.481H212.925V91.6611H201.122Z" fill="#00CEDB"/>
<path d="M171.616 180.084V191.905H183.418V180.084H171.616Z" fill="#007C89"/>
<path d="M186.369 180.084V191.905H198.172V180.084H186.369Z" fill="#00A3AD"/>
<path d="M201.122 180.084V191.905H212.925V180.084H201.122Z" fill="#00A3AD"/>
<path d="M215.648 165.309V177.129H227.451V165.309H215.648Z" fill="#00A3AD"/>
<path d="M156.862 165.309V177.129H168.665V165.309H156.862Z" fill="#007C89"/>
<path d="M215.648 150.534V162.354H227.451V150.534H215.648Z" fill="#00A3AD"/>
<path d="M230.402 135.759V147.579H242.204V135.759H230.402Z" fill="#00A3AD"/>
<path d="M245.155 135.759V147.579H256.958V135.759H245.155Z" fill="#4E544D"/>
<path d="M230.402 165.309V177.129H242.204V165.309H230.402Z" fill="#4E544D"/>
<path d="M245.155 121.211V133.031H256.958V121.211H245.155Z" fill="#4E544D"/>
<path d="M127.583 135.759V147.579H139.385V135.759H127.583Z" fill="#454D4C"/>
<path d="M127.583 121.211V133.031H139.385V121.211H127.583Z" fill="#454D4C"/>
<path d="M259.908 135.759V147.579H271.711V135.759H259.908Z" fill="#B2B2B2"/>
<path opacity="0.4" d="M274.435 135.759L274.662 147.579H286.237V135.759H274.435Z" fill="#676863"/>
<path opacity="0.4" d="M245.155 91.6611V103.481H256.958V91.6611H245.155Z" fill="#676863"/>
<path opacity="0.4" d="M245.155 180.084V191.905H256.958V180.084H245.155Z" fill="#676863"/>
<path d="M215.648 106.436V118.256H227.451V106.436H215.648Z" fill="#00A3AD"/>
<path d="M230.402 106.436V118.256H242.204V106.436H230.402Z" fill="#4E544D"/>
<path d="M142.109 106.436L142.336 118.256H153.912V106.436H142.109Z" fill="#454D4C"/>
<path d="M156.862 107.8V119.62H168.665V107.8H156.862Z" fill="#007C89"/>
<path d="M215.648 121.211V132.804H227.451V121.211H215.648Z" fill="#00A3AD"/>
<path d="M215.648 135.759V147.579H227.451V135.759H215.648Z" fill="#00A3AD"/>
<path d="M201.122 135.759V147.579H212.925V135.759H201.122Z" fill="#CACEC8"/>
<path d="M186.369 121.211V133.031H198.172V121.211H186.369Z" fill="#E6EAE5"/>
<path d="M186.369 106.436V118.256H198.172V106.436H186.369Z" fill="#E6EAE5"/>
<path d="M186.369 135.986V147.579H198.172V135.986H186.369Z" fill="#CACEC8"/>
<path d="M186.369 150.534V162.354H198.172V150.534H186.369Z" fill="#CACEC8"/>
<path d="M186.369 165.309V177.129H198.172V165.309H186.369Z" fill="#CACEC8"/>
<path d="M171.616 135.986V147.579H183.418V135.986H171.616Z" fill="#939393"/>
<path d="M156.862 122.575V134.395H168.665V122.575H156.862Z" fill="#007C89"/>
<path d="M156.862 135.759V147.579H168.665V135.759H156.862Z" fill="#007C89"/>
<path d="M168.665 191.905V180.084H156.862L168.665 191.905Z" fill="#007C89"/>
<path d="M227.451 180.084H215.648V191.905L227.451 180.084Z" fill="#00A3AD"/>
<path d="M200.895 177.129H212.698V165.309L200.895 177.129Z" fill="#00A3AD"/>
<path d="M171.616 165.309V177.129H183.418L171.616 165.309Z" fill="#007C89"/>
<path d="M242.204 150.534H230.402V162.354L242.204 150.534Z" fill="#00A3AD"/>
<path d="M256.958 150.534H245.155V162.354L256.958 150.534Z" fill="#4E544D"/>
<path d="M242.204 180.084H230.402V191.905L242.204 180.084Z" fill="#4E544D"/>
<path d="M227.451 194.859H215.648V206.68L227.451 194.859Z" fill="#4E544D"/>
<path d="M153.912 165.309H142.109V177.129H153.912V165.309Z" fill="#454D4C"/>
<path d="M139.386 162.354L139.159 150.534H127.356L139.386 162.354Z" fill="#454D4C"/>
<path d="M153.912 191.905V180.084H142.109L153.912 191.905Z" fill="#454D4C"/>
<path d="M168.665 206.68V194.859H156.862L168.665 206.68Z" fill="#454D4C"/>
<path d="M230.402 121.211V132.804L242.204 133.031L230.402 121.211Z" fill="#00A3AD"/>
<path d="M201.122 121.211V132.804L212.925 133.031L201.122 121.211Z" fill="#E6EAE5"/>
<path d="M212.925 150.534H201.122V162.354L212.925 150.534Z" fill="#CACEC8"/>
<path d="M171.616 133.031L183.418 132.804V121.211L171.616 133.031Z" fill="#939393"/>
<path d="M183.418 162.354V150.534H171.616L183.418 162.354Z" fill="#939393"/>
<path d="M142.109 134.395H153.912V122.575L142.109 134.395Z" fill="#007C89"/>
<path d="M212.925 118.256V106.436H201.122L212.925 118.256Z" fill="#00CEDB"/>
<path d="M215.648 91.6611V103.481H227.451L215.648 91.6611Z" fill="#00CEDB"/>
<path d="M227.451 103.481V91.6611H215.648L227.451 103.481Z" fill="#4E544D"/>
<path opacity="0.4" d="M215.648 47.3358V59.1559H227.451L215.648 47.3358Z" fill="#676863"/>
<path opacity="0.4" d="M230.402 62.111V73.9311H242.204L230.402 62.111Z" fill="#676863"/>
<path d="M215.648 76.886V88.7061H227.451L215.648 76.886Z" fill="#4E544D"/>
<path d="M230.402 91.6611V103.481H242.204L230.402 91.6611Z" fill="#4E544D"/>
<path opacity="0.4" d="M245.155 76.886V88.7061H256.958L245.155 76.886Z" fill="#676863"/>
<path opacity="0.4" d="M242.204 88.7061V76.886H230.402L242.204 88.7061Z" fill="#676863"/>
<path opacity="0.4" d="M259.908 106.436V118.256H271.711L259.908 106.436Z" fill="#676863"/>
<path opacity="0.4" d="M274.435 121.211V132.804L286.237 133.031L274.435 121.211Z" fill="#676863"/>
<path opacity="0.4" d="M271.711 133.031V121.211H259.908L271.711 133.031Z" fill="#676863"/>
<path d="M259.908 121.211V132.804L271.711 133.031L259.908 121.211Z" fill="#00A3AD"/>
<path d="M245.155 106.436V118.256H256.958L245.155 106.436Z" fill="#00A3AD"/>
<path d="M230.402 76.886V88.7061H242.204L230.402 76.886Z" fill="#00A3AD"/>
<path d="M215.648 62.111V73.9311H227.451L215.648 62.111Z" fill="#CACEC8"/>
<path opacity="0.4" d="M227.451 73.9311V62.111H215.648L227.451 73.9311Z" fill="#676863"/>
<path d="M156.862 73.9311H168.665V62.111L156.862 73.9311Z" fill="#B2B2B2"/>
<path opacity="0.4" d="M168.665 62.111H156.862V73.9311L168.665 62.111Z" fill="#52544C"/>
<path d="M227.451 88.7061V76.886H215.648L227.451 88.7061Z" fill="#00A3AD"/>
<path d="M242.204 103.481V91.6611H230.402L242.204 103.481Z" fill="#00A3AD"/>
<path d="M271.711 150.534H259.908V162.354L271.711 150.534Z" fill="#00A3AD"/>
<path d="M245.155 162.354H256.958V150.534L245.155 162.354Z" fill="#00A3AD"/>
<path d="M256.958 165.309H245.155V177.129L256.958 165.309Z" fill="#00A3AD"/>
<path d="M230.402 191.905H242.204V180.084L230.402 191.905Z" fill="#00A3AD"/>
<path d="M242.204 194.859H230.402V206.68L242.204 194.859Z" fill="#00A3AD"/>
<path d="M215.648 206.68H227.451V194.859L215.648 206.68Z" fill="#00A3AD"/>
<path d="M112.83 133.031L124.632 132.804V121.211L112.83 133.031Z" fill="#007C89"/>
<path d="M127.583 118.256H139.158V106.436L127.583 118.256Z" fill="#007C89"/>
<path d="M142.109 88.7061H153.912V76.886L142.109 88.7061Z" fill="#007C89"/>
<path d="M168.665 76.886H156.862V88.7061L168.665 76.886Z" fill="#007C89"/>
<path d="M153.912 91.6611H142.109V103.481L153.912 91.6611Z" fill="#007C89"/>
<path d="M124.632 162.354V150.534H112.83L124.632 162.354Z" fill="#007C89"/>
<path d="M127.583 150.534V162.354H139.385L127.583 150.534Z" fill="#007C89"/>
<path d="M139.385 177.129L139.158 165.309H127.583L139.385 177.129Z" fill="#007C89"/>
<path d="M142.109 180.084V191.905H153.912L142.109 180.084Z" fill="#007C89"/>
<path d="M153.912 206.68V194.859H142.109L153.912 206.68Z" fill="#007C89"/>
<path d="M156.862 194.859V206.68H168.665L156.862 194.859Z" fill="#007C89"/>
<path d="M227.451 209.635H215.648V221.227L227.451 209.635Z" fill="#CACEC8"/>
<path d="M168.665 221.455V209.635L156.862 209.407L168.665 221.455Z" fill="#B2B2B2"/>
<path opacity="0.4" d="M256.958 118.256V106.436H245.155L256.958 118.256Z" fill="#676863"/>
<path opacity="0.4" d="M286.237 150.534H274.662L274.435 162.354L286.237 150.534Z" fill="#676863"/>
<path opacity="0.4" d="M259.908 162.354H271.484L271.711 150.534L259.908 162.354Z" fill="#676863"/>
<path opacity="0.4" d="M230.402 206.68H242.204V194.859L230.402 206.68Z" fill="#676863"/>
<path opacity="0.4" d="M215.648 221.227H227.451V209.635L215.648 221.227Z" fill="#676863"/>
<path opacity="0.4" d="M245.155 177.129H256.958V165.309L245.155 177.129Z" fill="#676863"/>
<path opacity="0.4" d="M271.711 165.309H259.908V177.129L271.711 165.309Z" fill="#676863"/>
<path opacity="0.4" d="M256.958 194.859H245.155V206.68L256.958 194.859Z" fill="#676863"/>
<path opacity="0.4" d="M242.204 209.635H230.402V221.227L242.204 209.635Z" fill="#676863"/>
<path opacity="0.4" d="M227.451 224.41H215.648V236.23L227.451 224.41Z" fill="#676863"/>
<path opacity="0.4" d="M142.109 194.859L142.336 206.68H153.912L142.109 194.859Z" fill="#52544C"/>
<path opacity="0.4" d="M156.862 209.635V221.227H168.665L156.862 209.635Z" fill="#52544C"/>
<path opacity="0.4" d="M153.912 221.227V209.635H142.109L153.912 221.227Z" fill="#52544C"/>
<path opacity="0.4" d="M168.665 236.23V224.41H156.862L168.665 236.23Z" fill="#52544C"/>
<path d="M124.632 135.759H112.83V147.579H124.632V135.759Z" fill="#B2B2B2"/>
<path opacity="0.4" d="M109.879 135.759H98.0762V147.579H109.879V135.759Z" fill="#52544C"/>
<path opacity="0.4" d="M139.385 91.6611H127.583V103.481H139.158L139.385 91.6611Z" fill="#52544C"/>
<path opacity="0.4" d="M139.385 180.084H127.583V191.905H139.158L139.385 180.084Z" fill="#52544C"/>
<path opacity="0.4" d="M142.109 73.9311H153.912V62.111L142.109 73.9311Z" fill="#52544C"/>
<path opacity="0.4" d="M127.583 88.7061H139.385V76.886L127.583 88.7061Z" fill="#52544C"/>
<path opacity="0.4" d="M153.912 76.886H142.109V88.7061L153.912 76.886Z" fill="#52544C"/>
<path opacity="0.4" d="M112.83 118.256H124.632V106.436L112.83 118.256Z" fill="#52544C"/>
<path opacity="0.4" d="M98.0762 133.031L109.879 132.804V121.211L98.0762 133.031Z" fill="#52544C"/>
<path opacity="0.4" d="M124.632 121.211H112.83V133.031L124.632 121.211Z" fill="#52544C"/>
<path opacity="0.4" d="M139.385 106.436H127.583V118.256L139.385 106.436Z" fill="#52544C"/>
<path opacity="0.4" d="M109.879 162.354V150.534H98.0762L109.879 162.354Z" fill="#52544C"/>
<path opacity="0.4" d="M112.83 150.534V162.354H124.632L112.83 150.534Z" fill="#52544C"/>
<path opacity="0.4" d="M127.583 165.309V177.129H139.385L127.583 165.309Z" fill="#52544C"/>
<path opacity="0.4" d="M124.632 177.129V165.309H112.83L124.632 177.129Z" fill="#52544C"/>
<path opacity="0.4" d="M139.385 206.68L139.158 194.859H127.583L139.385 206.68Z" fill="#52544C"/>
<path d="M156.862 103.481H168.665V91.6611L156.862 103.481Z" fill="#007C89"/>
<path d="M171.616 91.6611V103.481H183.418V91.6611H171.616Z" fill="#007C89"/>
<path d="M168.665 91.6611H156.862V103.481L168.665 91.6611Z" fill="#454D4C"/>
<path d="M142.109 103.481H153.912V91.6611L142.109 103.481Z" fill="#454D4C"/>
<path d="M156.862 88.7061H168.665V76.886L156.862 88.7061Z" fill="#454D4C"/>
<path opacity="0.4" d="M156.862 59.1559H168.665V47.3358L156.862 59.1559Z" fill="#52544C"/>
<path d="M183.418 107.8H171.616V119.62L183.418 107.8Z" fill="#007C89"/>
<path d="M168.665 150.534H156.862V162.354H168.665V150.534Z" fill="#007C89"/>
<path d="M153.912 136.35H142.109V148.17H153.912V136.35Z" fill="#007C89"/>
<path d="M153.912 162.354V150.534H142.109L153.912 162.354Z" fill="#007C89"/>
<path opacity="0.4" d="M436.074 47V58.832H447.901V47H436.074Z" fill="#52544C"/>
<path opacity="0.4" d="M421.291 61.7899V73.6219H433.117V61.7899H421.291Z" fill="#52544C"/>
<path opacity="0.4" d="M524.548 61.7899V73.6219H536.375V61.7899H524.548Z" fill="#676863"/>
<path opacity="0.4" d="M450.857 47V58.832H462.684V47H450.857Z" fill="#52544C"/>
<path opacity="0.4" d="M465.641 47V58.832H477.468V47H465.641Z" fill="#52544C"/>
<path opacity="0.4" d="M480.197 47L480.425 58.832H492.252V47H480.197Z" fill="#676863"/>
<path opacity="0.4" d="M494.98 47V58.832H506.807V47H494.98Z" fill="#676863"/>
<path opacity="0.4" d="M509.764 47V58.832H521.591V47H509.764Z" fill="#676863"/>
<path d="M436.074 61.7899V73.6219H447.901V61.7899H436.074Z" fill="#9B9B9B"/>
<path d="M450.857 61.7899V73.6219H462.684V61.7899H450.857Z" fill="#9B9B9B"/>
<path d="M465.641 61.7899V73.6219H477.468V61.7899H465.641Z" fill="#9B9B9B"/>
<path d="M480.197 61.7899L480.425 73.6219H492.252V61.7899H480.197Z" fill="#C1C1C1"/>
<path d="M494.98 61.7899V73.6219H506.807V61.7899H494.98Z" fill="#C1C1C1"/>
<path d="M509.764 61.7899V73.6219H521.591V61.7899H509.764Z" fill="#C1C1C1"/>
<path d="M436.074 76.5801V88.4121H447.901V76.5801H436.074Z" fill="#52544C"/>
<path d="M450.857 76.5801V88.4121H462.684V76.5801H450.857Z" fill="#52544C"/>
<path d="M465.641 76.5801V88.4121H477.468V76.5801H465.641Z" fill="#52544C"/>
<path d="M480.197 76.5801L480.425 88.4121H492.252V76.5801H480.197Z" fill="#52544C"/>
<path d="M480.197 120.95L480.425 132.555H492.252V120.95H480.197Z" fill="#E6EAE5"/>
<path d="M509.764 120.95V132.555H521.591V120.95H509.764Z" fill="#EEE6AA"/>
<path d="M509.764 150.302V162.134H521.591V150.302H509.764Z" fill="#FBD052"/>
<path d="M436.074 150.302V162.134H447.901V150.302H436.074Z" fill="#E88718"/>
<path d="M509.764 106.16V117.992H521.591V106.16H509.764Z" fill="#EEE6AA"/>
<path d="M436.074 120.95V132.555H447.901V120.95H436.074Z" fill="#E88718"/>
<path d="M436.074 106.16V117.992H447.901V106.16H436.074Z" fill="#E88718"/>
<path d="M480.197 135.512L480.425 147.344H492.252V135.512H480.197Z" fill="#CACEC8"/>
<path d="M480.197 165.093L480.425 176.925H492.252V165.093H480.197Z" fill="#985905"/>
<path opacity="0.4" d="M554.114 150.302V162.134H565.941V150.302H554.114Z" fill="#676863"/>
<path d="M494.98 165.093V176.925H506.807V165.093H494.98Z" fill="#FBD052"/>
<path d="M480.197 179.882L480.425 191.714H492.252V179.882H480.197Z" fill="#FBD052"/>
<path d="M462.684 165.093H450.857V176.925H462.684V165.093Z" fill="#E88718"/>
<path d="M477.468 179.882H465.641V191.714H477.24L477.468 179.882Z" fill="#E88718"/>
<path opacity="0.4" d="M391.951 150.302V162.134H403.778V150.302H391.951Z" fill="#52544C"/>
<path opacity="0.4" d="M391.951 135.512V147.344H403.778V135.512H391.951Z" fill="#52544C"/>
<path opacity="0.4" d="M391.951 120.723V132.555H403.778V120.723H391.951Z" fill="#52544C"/>
<path opacity="0.4" d="M406.507 91.37L406.735 103.202H418.334V91.37H406.507Z" fill="#52544C"/>
<path opacity="0.4" d="M406.507 106.16L406.735 117.992L418.334 106.16H406.507Z" fill="#52544C"/>
<path opacity="0.4" d="M403.778 117.992V106.16L391.951 117.992H403.778Z" fill="#52544C"/>
<path opacity="0.4" d="M554.114 135.512V147.344H565.941V135.512H554.114Z" fill="#676863"/>
<path d="M539.331 135.512V147.344H551.158V135.512H539.331Z" fill="#B2B2B2"/>
<path d="M406.507 135.512L406.735 147.344H418.334V135.512H406.507Z" fill="#B2B2B2"/>
<path opacity="0.4" d="M480.197 224.025L480.425 235.857H492.252V224.025H480.197Z" fill="#676863"/>
<path opacity="0.4" d="M465.641 224.025V235.857H477.468V224.025H465.641Z" fill="#52544C"/>
<path d="M465.049 120.95V132.555H476.876V120.95H465.049Z" fill="#B2B2B2"/>
<path d="M465.049 135.512V147.344H476.876V135.512H465.049Z" fill="#939393"/>
<path d="M494.98 135.512V147.344L506.807 135.512H494.98Z" fill="#CACEC8"/>
<path d="M494.98 132.782L506.807 132.555L494.98 120.95V132.782Z" fill="#E6EAE5"/>
<path d="M462.684 132.555V120.95L450.857 132.555H462.684Z" fill="#B2B2B2"/>
<path d="M462.684 135.512H450.857L462.684 147.344V135.512Z" fill="#939393"/>
<path d="M480.425 117.992H492.024L480.425 106.16V117.992Z" fill="#E6EAE5"/>
<path d="M477.468 117.992V106.16L465.641 117.992H477.468Z" fill="#B2B2B2"/>
<path d="M480.197 150.302L480.425 162.134L492.252 150.302H480.197Z" fill="#CACEC8"/>
<path d="M509.764 135.512V147.344L521.591 135.512H509.764Z" fill="#D47325"/>
<path d="M494.98 117.992H506.807L494.98 106.16V117.992Z" fill="#D47325"/>
<path d="M509.764 103.202H521.591L509.764 91.37V103.202Z" fill="#EEE6AA"/>
<path d="M462.684 117.992V106.16L450.857 117.992H462.684Z" fill="#B56308"/>
<path d="M447.901 103.202V91.37L436.074 103.202H447.901Z" fill="#E88718"/>
<path d="M494.98 150.302V162.134L506.807 150.302H494.98Z" fill="#BE6D01"/>
<path d="M477.468 165.093H465.641V176.925H477.24L477.468 165.093Z" fill="#985905"/>
<path d="M447.901 135.512H436.074L447.901 147.344V135.512Z" fill="#E88718"/>
<path d="M462.684 150.302H450.857L462.684 162.134V150.302Z" fill="#B56308"/>
<path d="M477.468 150.302H465.641L477.468 162.134V150.302Z" fill="#939393"/>
<path d="M494.98 76.5801V88.4121H506.807V76.5801H494.98Z" fill="#52544C"/>
<path d="M450.857 91.37V103.202H462.684V91.37H450.857Z" fill="#E88718"/>
<path d="M465.641 91.37V103.202H477.468V91.37H465.641Z" fill="#E88718"/>
<path d="M480.197 91.37L480.425 103.202H492.252V91.37H480.197Z" fill="#E9C37F"/>
<path d="M494.98 91.37V103.202H506.807V91.37H494.98Z" fill="#EEE6AA"/>
<path d="M509.764 76.5801V88.4121H521.591V76.5801H509.764Z" fill="#52544C"/>
<path d="M524.548 106.16V117.992H536.375V106.16H524.548Z" fill="#52544C"/>
<path d="M524.548 120.95L536.375 132.555V120.95H524.548Z" fill="#52544C"/>
<path d="M539.331 150.302V162.134L551.158 150.302H539.331Z" fill="#52544C"/>
<path d="M536.375 162.134V150.302L524.548 162.134H536.375Z" fill="#52544C"/>
<path d="M521.591 176.925V165.093L509.764 176.925H521.591Z" fill="#52544C"/>
<path d="M506.807 191.714V179.882L494.98 191.714H506.807Z" fill="#52544C"/>
<path d="M492.252 206.505L492.024 194.673L480.197 206.505H492.252Z" fill="#52544C"/>
<path d="M524.548 165.093V176.925L536.375 165.093H524.548Z" fill="#52544C"/>
<path d="M509.764 179.882V191.714L521.591 179.882H509.764Z" fill="#52544C"/>
<path d="M494.98 194.673V206.505L506.807 194.673H494.98Z" fill="#52544C"/>
<path d="M480.197 209.463L480.425 221.067L492.252 209.463H480.197Z" fill="#52544C"/>
<path opacity="0.4" d="M554.114 165.093V176.925L565.941 165.093H554.114Z" fill="#676863"/>
<path opacity="0.4" d="M551.158 176.925V165.093L539.331 176.925H551.158Z" fill="#676863"/>
<path opacity="0.4" d="M536.375 191.714V179.882L524.548 191.714H536.375Z" fill="#676863"/>
<path opacity="0.4" d="M521.591 206.505V194.673L509.764 206.505H521.591Z" fill="#676863"/>
<path opacity="0.4" d="M507.035 221.295L506.807 209.463L495.208 221.295H507.035Z" fill="#676863"/>
<path opacity="0.4" d="M539.331 179.882V191.714L551.158 179.882H539.331Z" fill="#676863"/>
<path d="M539.331 165.093V176.925L551.158 165.093H539.331Z" fill="#FBD052"/>
<path d="M524.548 179.882V191.714L536.375 179.882H524.548Z" fill="#FBD052"/>
<path d="M536.375 176.925V165.093L524.548 176.925H536.375Z" fill="#FBD052"/>
<path d="M551.158 120.95H539.331L551.158 132.782V120.95Z" fill="#EEE6AA"/>
<path d="M536.375 91.37H524.548L536.375 103.202V91.37Z" fill="#EEE6AA"/>
<path d="M539.331 117.992H551.158L539.331 106.16V117.992Z" fill="#EEE6AA"/>
<path d="M524.548 88.4121H536.375L524.548 76.5801V88.4121Z" fill="#EEE6AA"/>
<path d="M406.735 120.95V132.782L418.562 120.95H406.735Z" fill="#E88718"/>
<path d="M421.291 91.37V103.202L433.117 91.37H421.291Z" fill="#E88718"/>
<path d="M418.562 117.992V106.16L406.735 117.992H418.562Z" fill="#E88718"/>
<path d="M433.117 88.4121V76.5801L421.291 88.4121H433.117Z" fill="#E88718"/>
<path d="M551.158 162.134V150.53L539.331 162.134H551.158Z" fill="#FBD052"/>
<path d="M521.819 191.714L521.591 179.882L509.992 191.714H521.819Z" fill="#FBD052"/>
<path d="M507.035 206.505L506.807 194.673L495.208 206.505H507.035Z" fill="#CACEC8"/>
<path d="M492.252 221.067L492.024 209.463L480.197 221.067H492.252Z" fill="#CACEC8"/>
<path d="M494.98 209.463V221.067L506.807 209.463H494.98Z" fill="#CACEC8"/>
<path d="M509.764 194.673V206.505L521.591 194.673H509.764Z" fill="#CACEC8"/>
<path d="M418.562 165.093H406.735L418.562 176.925V165.093Z" fill="#985905"/>
<path d="M433.117 179.882H421.291L433.117 191.714V179.882Z" fill="#985905"/>
<path d="M421.291 176.925H433.117L421.518 165.093L421.291 176.925Z" fill="#985905"/>
<path d="M406.507 162.134H418.562L406.735 150.53L406.507 162.134Z" fill="#985905"/>
<path d="M436.074 191.714H447.901L436.074 179.882V191.714Z" fill="#985905"/>
<path d="M450.857 206.505H462.684L450.857 194.673V206.505Z" fill="#B2B2B2"/>
<path d="M465.641 221.067H477.468L465.641 209.463V221.067Z" fill="#B2B2B2"/>
<path d="M462.684 209.463H450.857L462.684 221.067V209.463Z" fill="#B2B2B2"/>
<path d="M447.901 194.673H436.074L447.901 206.505V194.673Z" fill="#B2B2B2"/>
<path opacity="0.4" d="M524.548 194.673V206.505L536.375 194.673H524.548Z" fill="#676863"/>
<path opacity="0.4" d="M509.764 209.463L509.992 221.295L521.591 209.463H509.764Z" fill="#676863"/>
<path opacity="0.4" d="M495.208 224.252V236.084L507.035 224.252H495.208Z" fill="#676863"/>
<path opacity="0.4" d="M403.778 165.093H391.951L403.778 176.925V165.093Z" fill="#52544C"/>
<path opacity="0.4" d="M406.507 176.925H418.334L406.735 165.093L406.507 176.925Z" fill="#52544C"/>
<path opacity="0.4" d="M421.291 191.714H433.117L421.518 179.882L421.291 191.714Z" fill="#52544C"/>
<path opacity="0.4" d="M436.074 206.505H447.901L436.074 194.673V206.505Z" fill="#52544C"/>
<path opacity="0.4" d="M450.857 221.295H462.684L450.857 209.463V221.295Z" fill="#52544C"/>
<path opacity="0.4" d="M418.334 179.882H406.507L418.334 191.714V179.882Z" fill="#52544C"/>
<path opacity="0.4" d="M433.117 194.673H421.291L433.117 206.505V194.673Z" fill="#52544C"/>
<path opacity="0.4" d="M447.901 209.463H436.074L447.901 221.295V209.463Z" fill="#52544C"/>
<path opacity="0.4" d="M462.684 224.252H450.857L462.684 236.084V224.252Z" fill="#52544C"/>
<path d="M418.562 150.302H406.735L418.334 162.134L418.562 150.302Z" fill="#52544C"/>
<path d="M421.291 162.134H433.117L421.291 150.302V162.134Z" fill="#52544C"/>
<path d="M436.074 176.925H447.901L436.074 165.093V176.925Z" fill="#52544C"/>
<path d="M450.857 191.714H462.684L450.857 179.882V191.714Z" fill="#52544C"/>
<path d="M465.641 206.505H477.468L465.641 194.673V206.505Z" fill="#52544C"/>
<path d="M433.117 165.093H421.291L433.117 176.925V165.093Z" fill="#52544C"/>
<path d="M447.901 179.882H436.074L447.901 191.714V179.882Z" fill="#52544C"/>
<path d="M462.684 194.673H450.857L462.684 206.505V194.673Z" fill="#52544C"/>
<path d="M477.468 209.463H465.641L477.24 221.067L477.468 209.463Z" fill="#52544C"/>
<path d="M524.548 91.37V103.202H536.375L524.548 91.37Z" fill="#52544C"/>
<path opacity="0.4" d="M536.375 88.4121V76.5801H524.548L536.375 88.4121Z" fill="#676863"/>
<path d="M539.331 120.95V132.555H551.158L539.331 120.95Z" fill="#52544C"/>
<path d="M536.375 135.512L524.548 135.74V147.344L536.375 135.512Z" fill="#FBD052"/>
<path d="M524.548 120.723V132.555H536.375L524.548 120.723Z" fill="#EEE6AA"/>
<path d="M433.117 147.344V135.74L421.291 135.512L433.117 147.344Z" fill="#E88718"/>
<path d="M421.291 132.555H433.117V120.95L421.291 132.555Z" fill="#E88718"/>
<path d="M433.117 106.16H421.291V117.992H433.117V106.16Z" fill="#52544C"/>
<path d="M433.117 120.95H421.291V132.555L433.117 120.95Z" fill="#52544C"/>
<path d="M421.291 103.202H433.117V91.37L421.291 103.202Z" fill="#52544C"/>
<path opacity="0.4" d="M433.117 76.5801H421.291V88.4121L433.117 76.5801Z" fill="#52544C"/>
<path d="M406.735 132.555H418.334L418.562 120.723L406.735 132.555Z" fill="#52544C"/>
<path opacity="0.4" d="M406.735 88.4121H418.334L418.562 76.5801L406.735 88.4121Z" fill="#52544C"/>
<path opacity="0.4" d="M565.714 120.723H553.887V132.555H565.714V120.723Z" fill="#676863"/>
<path opacity="0.4" d="M551.158 91.37H539.331V103.202H551.158V91.37Z" fill="#676863"/>
<path opacity="0.4" d="M551.158 106.16H539.331L551.158 117.992V106.16Z" fill="#676863"/>
<path opacity="0.4" d="M553.887 117.992H565.714L554.115 106.16L553.887 117.992Z" fill="#676863"/>
<path opacity="0.4" d="M539.331 76.5801V88.4121H551.158L539.331 76.5801Z" fill="#676863"/>
</g>
<defs>
<clipPath id="clip0_1:10247">
<rect width="690" height="283" fill="white"/>
</clipPath>
</defs>
</svg>
