<svg width="69" height="75" viewBox="0 0 69 75" fill="none" xmlns="http://www.w3.org/2000/svg">
<path opacity="0.4" d="M17.3376 0V4.64917H21.9848V0H17.3376Z" fill="#52544C"/>
<path opacity="0.4" d="M11.5284 5.81152V10.4607H16.1756V5.81152H11.5284Z" fill="#52544C"/>
<path opacity="0.4" d="M52.1018 5.81152V10.4607H56.7489V5.81152H52.1018Z" fill="#676863"/>
<path opacity="0.4" d="M23.1456 0V4.64917H27.7928V0H23.1456Z" fill="#52544C"/>
<path opacity="0.4" d="M28.9556 0V4.64917H33.6027V0H28.9556Z" fill="#52544C"/>
<path opacity="0.4" d="M34.6747 0L34.7641 4.64917H39.4112V0H34.6747Z" fill="#676863"/>
<path opacity="0.4" d="M40.4839 0V4.64917H45.131V0H40.4839Z" fill="#676863"/>
<path opacity="0.4" d="M46.2932 0V4.64917H50.9403V0H46.2932Z" fill="#676863"/>
<path d="M17.3376 5.81152V10.4607H21.9848V5.81152H17.3376Z" fill="#9B9B9B"/>
<path d="M23.1456 5.81152V10.4607H27.7928V5.81152H23.1456Z" fill="#9B9B9B"/>
<path d="M28.9556 5.81152V10.4607H33.6027V5.81152H28.9556Z" fill="#9B9B9B"/>
<path d="M34.6747 5.81152L34.7641 10.4607H39.4112V5.81152H34.6747Z" fill="#C1C1C1"/>
<path d="M40.4839 5.81152V10.4607H45.131V5.81152H40.4839Z" fill="#C1C1C1"/>
<path d="M46.2932 5.81152V10.4607H50.9403V5.81152H46.2932Z" fill="#C1C1C1"/>
<path d="M17.3376 11.623V16.2722H21.9848V11.623H17.3376Z" fill="#52544C"/>
<path d="M23.1456 11.623V16.2722H27.7928V11.623H23.1456Z" fill="#52544C"/>
<path d="M28.9556 11.623V16.2722H33.6027V11.623H28.9556Z" fill="#52544C"/>
<path d="M34.6747 11.623L34.7641 16.2722H39.4112V11.623H34.6747Z" fill="#52544C"/>
<path d="M34.6747 29.0576L34.7641 33.6174H39.4112V29.0576H34.6747Z" fill="#E6EAE5"/>
<path d="M46.2932 29.0576V33.6174H50.9403V29.0576H46.2932Z" fill="#EEE6AA"/>
<path d="M46.2932 40.5908V45.24H50.9403V40.5908H46.2932Z" fill="#FBD052"/>
<path d="M17.3376 40.5908V45.24H21.9848V40.5908H17.3376Z" fill="#E88718"/>
<path d="M46.2932 23.2461V27.8953H50.9403V23.2461H46.2932Z" fill="#EEE6AA"/>
<path d="M17.3376 29.0576V33.6174H21.9848V29.0576H17.3376Z" fill="#E88718"/>
<path d="M17.3376 23.2461V27.8953H21.9848V23.2461H17.3376Z" fill="#E88718"/>
<path d="M34.6747 34.7793L34.7641 39.4285H39.4112V34.7793H34.6747Z" fill="#CACEC8"/>
<path d="M34.6747 46.4023L34.7641 51.0515H39.4112V46.4023H34.6747Z" fill="#985905"/>
<path opacity="0.4" d="M63.719 40.5908V45.24H68.3661V40.5908H63.719Z" fill="#676863"/>
<path d="M40.4839 46.4023V51.0515H45.131V46.4023H40.4839Z" fill="#FBD052"/>
<path d="M34.6747 52.2139L34.7641 56.863H39.4112V52.2139H34.6747Z" fill="#FBD052"/>
<path d="M27.7928 46.4023H23.1456V51.0515H27.7928V46.4023Z" fill="#E88718"/>
<path d="M33.6027 52.2139H28.9556V56.863H33.5133L33.6027 52.2139Z" fill="#E88718"/>
<path opacity="0.4" d="M0 40.5908V45.24H4.64712V40.5908H0Z" fill="#52544C"/>
<path opacity="0.4" d="M0 34.7793V39.4285H4.64712V34.7793H0Z" fill="#52544C"/>
<path opacity="0.4" d="M0 28.9678V33.617H4.64712V28.9678H0Z" fill="#52544C"/>
<path opacity="0.4" d="M5.71985 17.4341L5.80921 22.0833H10.367V17.4341H5.71985Z" fill="#52544C"/>
<path opacity="0.4" d="M5.71985 23.2461L5.80921 27.8953L10.367 23.2461H5.71985Z" fill="#52544C"/>
<path opacity="0.4" d="M4.64712 27.8953V23.2461L0 27.8953H4.64712Z" fill="#52544C"/>
<path opacity="0.4" d="M63.719 34.7793V39.4285H68.3661V34.7793H63.719Z" fill="#676863"/>
<path d="M57.9104 34.7793V39.4285H62.5575V34.7793H57.9104Z" fill="#B2B2B2"/>
<path d="M5.71985 34.7793L5.80921 39.4285H10.367V34.7793H5.71985Z" fill="#B2B2B2"/>
<path opacity="0.4" d="M34.6747 69.5586L34.7641 74.2078H39.4112V69.5586H34.6747Z" fill="#676863"/>
<path opacity="0.4" d="M28.9556 69.5586V74.2078H33.6027V69.5586H28.9556Z" fill="#52544C"/>
<path d="M28.7227 29.0576V33.6174H33.3698V29.0576H28.7227Z" fill="#B2B2B2"/>
<path d="M28.7227 34.7793V39.4285H33.3698V34.7793H28.7227Z" fill="#939393"/>
<path d="M40.4839 34.7793V39.4285L45.131 34.7793H40.4839Z" fill="#CACEC8"/>
<path d="M40.4839 33.7068L45.131 33.6174L40.4839 29.0576V33.7068Z" fill="#E6EAE5"/>
<path d="M27.7928 33.6174V29.0576L23.1456 33.6174H27.7928Z" fill="#B2B2B2"/>
<path d="M27.7928 34.7793H23.1456L27.7928 39.4285V34.7793Z" fill="#939393"/>
<path d="M34.7642 27.8953H39.3219L34.7642 23.2461V27.8953Z" fill="#E6EAE5"/>
<path d="M33.6027 27.8953V23.2461L28.9556 27.8953H33.6027Z" fill="#B2B2B2"/>
<path d="M34.6747 40.5908L34.7641 45.24L39.4112 40.5908H34.6747Z" fill="#CACEC8"/>
<path d="M46.2932 34.7793V39.4285L50.9403 34.7793H46.2932Z" fill="#D47325"/>
<path d="M40.4839 27.8953H45.131L40.4839 23.2461V27.8953Z" fill="#D47325"/>
<path d="M46.2932 22.0833H50.9403L46.2932 17.4341V22.0833Z" fill="#EEE6AA"/>
<path d="M27.7928 27.8953V23.2461L23.1456 27.8953H27.7928Z" fill="#B56308"/>
<path d="M21.9848 22.0833V17.4341L17.3376 22.0833H21.9848Z" fill="#E88718"/>
<path d="M40.4839 40.5908V45.24L45.131 40.5908H40.4839Z" fill="#BE6D01"/>
<path d="M33.6027 46.4023H28.9556V51.0515H33.5133L33.6027 46.4023Z" fill="#985905"/>
<path d="M21.9848 34.7793H17.3376L21.9848 39.4285V34.7793Z" fill="#E88718"/>
<path d="M27.7928 40.5908H23.1456L27.7928 45.24V40.5908Z" fill="#B56308"/>
<path d="M33.6027 40.5908H28.9556L33.6027 45.24V40.5908Z" fill="#939393"/>
<path d="M40.4839 11.623V16.2722H45.131V11.623H40.4839Z" fill="#52544C"/>
<path d="M23.1456 17.4341V22.0833H27.7928V17.4341H23.1456Z" fill="#E88718"/>
<path d="M28.9556 17.4341V22.0833H33.6027V17.4341H28.9556Z" fill="#E88718"/>
<path d="M34.6747 17.4341L34.7641 22.0833H39.4112V17.4341H34.6747Z" fill="#E9C37F"/>
<path d="M40.4839 17.4341V22.0833H45.131V17.4341H40.4839Z" fill="#EEE6AA"/>
<path d="M46.2932 11.623V16.2722H50.9403V11.623H46.2932Z" fill="#52544C"/>
<path d="M52.1018 23.2461V27.8953H56.7489V23.2461H52.1018Z" fill="#52544C"/>
<path d="M52.1018 29.0576L56.7489 33.6174V29.0576H52.1018Z" fill="#52544C"/>
<path d="M57.9104 40.5908V45.24L62.5575 40.5908H57.9104Z" fill="#52544C"/>
<path d="M56.7489 45.24V40.5908L52.1018 45.24H56.7489Z" fill="#52544C"/>
<path d="M50.9403 51.0515V46.4023L46.2932 51.0515H50.9403Z" fill="#52544C"/>
<path d="M45.131 56.863V52.2139L40.4839 56.863H45.131Z" fill="#52544C"/>
<path d="M39.4112 62.6746L39.3218 58.0254L34.6747 62.6746H39.4112Z" fill="#52544C"/>
<path d="M52.1018 46.4023V51.0515L56.7489 46.4023H52.1018Z" fill="#52544C"/>
<path d="M46.2932 52.2139V56.863L50.9403 52.2139H46.2932Z" fill="#52544C"/>
<path d="M40.4839 58.0254V62.6746L45.131 58.0254H40.4839Z" fill="#52544C"/>
<path d="M34.6747 63.8369L34.7641 68.3967L39.4112 63.8369H34.6747Z" fill="#52544C"/>
<path opacity="0.4" d="M63.719 46.4023V51.0515L68.3661 46.4023H63.719Z" fill="#676863"/>
<path opacity="0.4" d="M62.5575 51.0515V46.4023L57.9104 51.0515H62.5575Z" fill="#676863"/>
<path opacity="0.4" d="M56.7489 56.863V52.2139L52.1018 56.863H56.7489Z" fill="#676863"/>
<path opacity="0.4" d="M50.9403 62.6746V58.0254L46.2932 62.6746H50.9403Z" fill="#676863"/>
<path opacity="0.4" d="M45.2204 68.4861L45.1311 63.8369L40.5734 68.4861H45.2204Z" fill="#676863"/>
<path opacity="0.4" d="M57.9104 52.2139V56.863L62.5575 52.2139H57.9104Z" fill="#676863"/>
<path d="M57.9104 46.4023V51.0515L62.5575 46.4023H57.9104Z" fill="#FBD052"/>
<path d="M52.1018 52.2139V56.863L56.7489 52.2139H52.1018Z" fill="#FBD052"/>
<path d="M56.7489 51.0515V46.4023L52.1018 51.0515H56.7489Z" fill="#FBD052"/>
<path d="M62.5575 29.0576H57.9104L62.5575 33.7068V29.0576Z" fill="#EEE6AA"/>
<path d="M56.7489 17.4341H52.1018L56.7489 22.0833V17.4341Z" fill="#EEE6AA"/>
<path d="M57.9104 27.8953H62.5575L57.9104 23.2461V27.8953Z" fill="#EEE6AA"/>
<path d="M52.1018 16.2722H56.7489L52.1018 11.623V16.2722Z" fill="#EEE6AA"/>
<path d="M5.8092 29.0576V33.7068L10.4563 29.0576H5.8092Z" fill="#E88718"/>
<path d="M11.5284 17.4341V22.0833L16.1756 17.4341H11.5284Z" fill="#E88718"/>
<path d="M10.4563 27.8953V23.2461L5.8092 27.8953H10.4563Z" fill="#E88718"/>
<path d="M16.1756 16.2722V11.623L11.5284 16.2722H16.1756Z" fill="#E88718"/>
<path d="M62.5575 45.2399V40.6802L57.9104 45.2399H62.5575Z" fill="#FBD052"/>
<path d="M51.0291 56.863L50.9397 52.2139L46.382 56.863H51.0291Z" fill="#FBD052"/>
<path d="M45.2204 62.6746L45.1311 58.0254L40.5734 62.6746H45.2204Z" fill="#CACEC8"/>
<path d="M39.4112 68.3967L39.3218 63.8369L34.6747 68.3967H39.4112Z" fill="#CACEC8"/>
<path d="M40.4839 63.8369V68.3967L45.131 63.8369H40.4839Z" fill="#CACEC8"/>
<path d="M46.2932 58.0254V62.6746L50.9403 58.0254H46.2932Z" fill="#CACEC8"/>
<path d="M10.4563 46.4023H5.8092L10.4563 51.0515V46.4023Z" fill="#985905"/>
<path d="M16.1756 52.2139H11.5284L16.1756 56.863V52.2139Z" fill="#985905"/>
<path d="M11.5284 51.0515H16.1756L11.6178 46.4023L11.5284 51.0515Z" fill="#985905"/>
<path d="M5.71985 45.2399H10.4563L5.80922 40.6802L5.71985 45.2399Z" fill="#985905"/>
<path d="M17.3376 56.863H21.9848L17.3376 52.2139V56.863Z" fill="#985905"/>
<path d="M23.1456 62.6746H27.7928L23.1456 58.0254V62.6746Z" fill="#B2B2B2"/>
<path d="M28.9556 68.3967H33.6027L28.9556 63.8369V68.3967Z" fill="#B2B2B2"/>
<path d="M27.7928 63.8369H23.1456L27.7928 68.3967V63.8369Z" fill="#B2B2B2"/>
<path d="M21.9848 58.0254H17.3376L21.9848 62.6746V58.0254Z" fill="#B2B2B2"/>
<path opacity="0.4" d="M52.1018 58.0254V62.6746L56.7489 58.0254H52.1018Z" fill="#676863"/>
<path opacity="0.4" d="M46.2932 63.8369L46.3826 68.4861L50.9403 63.8369H46.2932Z" fill="#676863"/>
<path opacity="0.4" d="M40.5734 69.6479V74.2971L45.2204 69.6479H40.5734Z" fill="#676863"/>
<path opacity="0.4" d="M4.64712 46.4023H0L4.64712 51.0515V46.4023Z" fill="#52544C"/>
<path opacity="0.4" d="M5.71985 51.0515H10.367L5.80921 46.4023L5.71985 51.0515Z" fill="#52544C"/>
<path opacity="0.4" d="M11.5284 56.863H16.1756L11.6178 52.2139L11.5284 56.863Z" fill="#52544C"/>
<path opacity="0.4" d="M17.3376 62.6746H21.9848L17.3376 58.0254V62.6746Z" fill="#52544C"/>
<path opacity="0.4" d="M23.1456 68.4861H27.7928L23.1456 63.8369V68.4861Z" fill="#52544C"/>
<path opacity="0.4" d="M10.367 52.2139H5.71985L10.367 56.863V52.2139Z" fill="#52544C"/>
<path opacity="0.4" d="M16.1756 58.0254H11.5284L16.1756 62.6746V58.0254Z" fill="#52544C"/>
<path opacity="0.4" d="M21.9848 63.8369H17.3376L21.9848 68.4861V63.8369Z" fill="#52544C"/>
<path opacity="0.4" d="M27.7928 69.6479H23.1456L27.7928 74.2971V69.6479Z" fill="#52544C"/>
<path d="M10.4563 40.5908H5.8092L10.367 45.24L10.4563 40.5908Z" fill="#52544C"/>
<path d="M11.5284 45.24H16.1756L11.5284 40.5908V45.24Z" fill="#52544C"/>
<path d="M17.3376 51.0515H21.9848L17.3376 46.4023V51.0515Z" fill="#52544C"/>
<path d="M23.1456 56.863H27.7928L23.1456 52.2139V56.863Z" fill="#52544C"/>
<path d="M28.9556 62.6746H33.6027L28.9556 58.0254V62.6746Z" fill="#52544C"/>
<path d="M16.1756 46.4023H11.5284L16.1756 51.0515V46.4023Z" fill="#52544C"/>
<path d="M21.9848 52.2139H17.3376L21.9848 56.863V52.2139Z" fill="#52544C"/>
<path d="M27.7928 58.0254H23.1456L27.7928 62.6746V58.0254Z" fill="#52544C"/>
<path d="M33.6027 63.8369H28.9556L33.5133 68.3967L33.6027 63.8369Z" fill="#52544C"/>
<path d="M52.1018 17.4341V22.0833H56.7489L52.1018 17.4341Z" fill="#52544C"/>
<path opacity="0.4" d="M56.7489 16.2722V11.623H52.1018L56.7489 16.2722Z" fill="#676863"/>
<path d="M57.9104 29.0576V33.6174H62.5575L57.9104 29.0576Z" fill="#52544C"/>
<path d="M56.7489 34.7793L52.1018 34.8687V39.4285L56.7489 34.7793Z" fill="#FBD052"/>
<path d="M52.1018 28.9678V33.617H56.7489L52.1018 28.9678Z" fill="#EEE6AA"/>
<path d="M16.1756 39.4285V34.8687L11.5284 34.7793L16.1756 39.4285Z" fill="#E88718"/>
<path d="M11.5284 33.6174H16.1756V29.0576L11.5284 33.6174Z" fill="#E88718"/>
<path d="M16.1756 23.2461H11.5284V27.8953H16.1756V23.2461Z" fill="#52544C"/>
<path d="M16.1756 29.0576H11.5284V33.6174L16.1756 29.0576Z" fill="#52544C"/>
<path d="M11.5284 22.0833H16.1756V17.4341L11.5284 22.0833Z" fill="#52544C"/>
<path opacity="0.4" d="M16.1756 11.623H11.5284V16.2722L16.1756 11.623Z" fill="#52544C"/>
<path d="M5.8092 33.617H10.367L10.4563 28.9678L5.8092 33.617Z" fill="#52544C"/>
<path opacity="0.4" d="M5.8092 16.2722H10.367L10.4563 11.623L5.8092 16.2722Z" fill="#52544C"/>
<path opacity="0.4" d="M68.2767 28.9678H63.6295V33.617H68.2767V28.9678Z" fill="#676863"/>
<path opacity="0.4" d="M62.5575 17.4341H57.9104V22.0833H62.5575V17.4341Z" fill="#676863"/>
<path opacity="0.4" d="M62.5575 23.2461H57.9104L62.5575 27.8953V23.2461Z" fill="#676863"/>
<path opacity="0.4" d="M63.6295 27.8953H68.2767L63.7189 23.2461L63.6295 27.8953Z" fill="#676863"/>
<path opacity="0.4" d="M57.9104 11.623V16.2722H62.5575L57.9104 11.623Z" fill="#676863"/>
</svg>
