<svg width="120" height="120" viewBox="0 0 120 120" fill="none" xmlns="http://www.w3.org/2000/svg">
<path opacity="0.4" d="M46.5713 112.491V120H54.0458V112.491H46.5713Z" fill="#52544C"/>
<path opacity="0.4" d="M55.915 112.491V120H63.3896V112.491H55.915Z" fill="#52544C"/>
<path opacity="0.4" d="M65.2588 112.491V120H72.7333V112.491H65.2588Z" fill="#676863"/>
<path d="M46.5713 93.7183V101.227H54.0458V93.7183H46.5713Z" fill="#454D4C"/>
<path d="M55.915 93.7183V101.227H63.3896V93.7183H55.915Z" fill="#454D4C"/>
<path d="M65.2588 93.7183V101.227H72.7333V93.7183H65.2588Z" fill="#4E544D"/>
<path d="M46.5713 103.105V110.614H54.0458V103.105H46.5713Z" fill="#B2B2B2"/>
<path d="M55.915 103.105V110.614H63.3896V103.105H55.915Z" fill="#B2B2B2"/>
<path d="M65.2588 103.105V110.614H72.7333V103.105H65.2588Z" fill="#CACEC8"/>
<path d="M55.915 29.0251V36.5342H63.3896V29.0251H55.915Z" fill="#007C89"/>
<path opacity="0.4" d="M55.915 0V7.50903H63.3896V0H55.915Z" fill="#52544C"/>
<path opacity="0.4" d="M65.1152 0L65.259 7.50903H72.5898V0H65.1152Z" fill="#676863"/>
<path opacity="0.4" d="M46.5713 0V7.50903H54.0458V0H46.5713Z" fill="#52544C"/>
<path d="M55.915 9.38623V16.8953H63.3896V9.38623H55.915Z" fill="#B2B2B2"/>
<path d="M65.1152 9.38623L65.259 16.8953H72.5898V9.38623H65.1152Z" fill="#CACEC8"/>
<path d="M46.5713 9.38623V16.8953H54.0458V9.38623H46.5713Z" fill="#B2B2B2"/>
<path d="M55.915 18.7725V26.2815H63.3896V18.7725H55.915Z" fill="#4E544D"/>
<path d="M65.1152 18.7725L65.259 26.2815H72.5898V18.7725H65.1152Z" fill="#4E544D"/>
<path d="M46.5713 18.7725V26.2815H54.0458V18.7725H46.5713Z" fill="#454D4C"/>
<path d="M65.2588 28.1587V35.6677H72.7333V28.1587H65.2588Z" fill="#00CEDB"/>
<path d="M46.5713 84.332V91.8411H54.0458V84.332H46.5713Z" fill="#007C89"/>
<path d="M55.915 84.332V91.8411H63.3896V84.332H55.915Z" fill="#00A3AD"/>
<path d="M65.2588 84.332V91.8411H72.7333V84.332H65.2588Z" fill="#00A3AD"/>
<path d="M74.457 74.9458V82.4549H81.9316V74.9458H74.457Z" fill="#00A3AD"/>
<path d="M37.2295 74.9458V82.4549H44.704V74.9458H37.2295Z" fill="#007C89"/>
<path d="M74.457 65.5596V73.0686H81.9316V65.5596H74.457Z" fill="#00A3AD"/>
<path d="M83.8018 56.1733V63.6824H91.2763V56.1733H83.8018Z" fill="#00A3AD"/>
<path d="M93.1445 56.1733V63.6824H100.619V56.1733H93.1445Z" fill="#4E544D"/>
<path d="M83.8018 74.9458V82.4549H91.2763V74.9458H83.8018Z" fill="#4E544D"/>
<path d="M93.1445 46.9314V54.4404H100.619V46.9314H93.1445Z" fill="#4E544D"/>
<path d="M18.6855 56.1733V63.6824H26.1601V56.1733H18.6855Z" fill="#454D4C"/>
<path d="M18.6855 46.9314V54.4404H26.1601V46.9314H18.6855Z" fill="#454D4C"/>
<path d="M102.486 56.1733V63.6824H109.961V56.1733H102.486Z" fill="#B2B2B2"/>
<path opacity="0.4" d="M111.687 56.1733L111.83 63.6824H119.161V56.1733H111.687Z" fill="#676863"/>
<path opacity="0.4" d="M93.1445 28.1587V35.6677H100.619V28.1587H93.1445Z" fill="#676863"/>
<path opacity="0.4" d="M93.1445 84.332V91.8411H100.619V84.332H93.1445Z" fill="#676863"/>
<path d="M74.457 37.5452V45.0542H81.9316V37.5452H74.457Z" fill="#00A3AD"/>
<path d="M83.8018 37.5452V45.0542H91.2763V37.5452H83.8018Z" fill="#4E544D"/>
<path d="M27.8848 37.5452L28.0285 45.0542H35.3593V37.5452H27.8848Z" fill="#454D4C"/>
<path d="M37.2295 38.4111V45.9202H44.704V38.4111H37.2295Z" fill="#007C89"/>
<path d="M74.457 46.9314V54.296H81.9316V46.9314H74.457Z" fill="#00A3AD"/>
<path d="M74.457 56.1733V63.6824H81.9316V56.1733H74.457Z" fill="#00A3AD"/>
<path d="M65.2588 56.1733V63.6824H72.7333V56.1733H65.2588Z" fill="#CACEC8"/>
<path d="M55.915 46.9314V54.4404H63.3896V46.9314H55.915Z" fill="#E6EAE5"/>
<path d="M55.915 37.5452V45.0542H63.3896V37.5452H55.915Z" fill="#E6EAE5"/>
<path d="M55.915 56.3179V63.6825H63.3896V56.3179H55.915Z" fill="#CACEC8"/>
<path d="M55.915 65.5596V73.0686H63.3896V65.5596H55.915Z" fill="#CACEC8"/>
<path d="M55.915 74.9458V82.4549H63.3896V74.9458H55.915Z" fill="#CACEC8"/>
<path d="M46.5713 56.3179V63.6825H54.0458V56.3179H46.5713Z" fill="#939393"/>
<path d="M37.2295 47.7976V55.3066H44.704V47.7976H37.2295Z" fill="#007C89"/>
<path d="M37.2295 56.1733V63.6824H44.704V56.1733H37.2295Z" fill="#007C89"/>
<path d="M44.704 91.8411V84.332H37.2295L44.704 91.8411Z" fill="#007C89"/>
<path d="M81.9316 84.332H74.457V91.8411L81.9316 84.332Z" fill="#00A3AD"/>
<path d="M65.1152 82.4549H72.5898V74.9458L65.1152 82.4549Z" fill="#00A3AD"/>
<path d="M46.5713 74.9458V82.4549H54.0458L46.5713 74.9458Z" fill="#007C89"/>
<path d="M91.2763 65.5596H83.8018V73.0686L91.2763 65.5596Z" fill="#00A3AD"/>
<path d="M100.619 65.5596H93.1445V73.0686L100.619 65.5596Z" fill="#4E544D"/>
<path d="M91.2763 84.332H83.8018V91.8411L91.2763 84.332Z" fill="#4E544D"/>
<path d="M81.9316 93.7183H74.457V101.227L81.9316 93.7183Z" fill="#4E544D"/>
<path d="M35.3593 74.9458H27.8848V82.4549H35.3593V74.9458Z" fill="#454D4C"/>
<path d="M26.1602 73.0686L26.0165 65.5596H18.542L26.1602 73.0686Z" fill="#454D4C"/>
<path d="M35.3593 91.8411V84.332H27.8848L35.3593 91.8411Z" fill="#454D4C"/>
<path d="M44.704 101.227V93.7183H37.2295L44.704 101.227Z" fill="#454D4C"/>
<path d="M83.8018 46.9314V54.296L91.2763 54.4404L83.8018 46.9314Z" fill="#00A3AD"/>
<path d="M65.2588 46.9314V54.296L72.7333 54.4404L65.2588 46.9314Z" fill="#E6EAE5"/>
<path d="M72.7333 65.5596H65.2588V73.0686L72.7333 65.5596Z" fill="#CACEC8"/>
<path d="M46.5713 54.4404L54.0458 54.296V46.9314L46.5713 54.4404Z" fill="#939393"/>
<path d="M54.0458 73.0686V65.5596H46.5713L54.0458 73.0686Z" fill="#939393"/>
<path d="M27.8848 55.3066H35.3593V47.7976L27.8848 55.3066Z" fill="#007C89"/>
<path d="M72.7333 45.0542V37.5452H65.2588L72.7333 45.0542Z" fill="#00CEDB"/>
<path d="M74.457 28.1587V35.6677H81.9316L74.457 28.1587Z" fill="#00CEDB"/>
<path d="M81.9316 35.6677V28.1587H74.457L81.9316 35.6677Z" fill="#4E544D"/>
<path opacity="0.4" d="M74.457 0V7.50903H81.9316L74.457 0Z" fill="#676863"/>
<path opacity="0.4" d="M83.8018 9.38623V16.8953H91.2763L83.8018 9.38623Z" fill="#676863"/>
<path d="M74.457 18.7725V26.2815H81.9316L74.457 18.7725Z" fill="#4E544D"/>
<path d="M83.8018 28.1587V35.6677H91.2763L83.8018 28.1587Z" fill="#4E544D"/>
<path opacity="0.4" d="M93.1445 18.7725V26.2815H100.619L93.1445 18.7725Z" fill="#676863"/>
<path opacity="0.4" d="M91.2763 26.2815V18.7725H83.8018L91.2763 26.2815Z" fill="#676863"/>
<path opacity="0.4" d="M102.486 37.5452V45.0542H109.961L102.486 37.5452Z" fill="#676863"/>
<path opacity="0.4" d="M111.687 46.9314V54.296L119.161 54.4404L111.687 46.9314Z" fill="#676863"/>
<path opacity="0.4" d="M109.961 54.4404V46.9314H102.486L109.961 54.4404Z" fill="#676863"/>
<path d="M102.486 46.9314V54.296L109.961 54.4404L102.486 46.9314Z" fill="#00A3AD"/>
<path d="M93.1445 37.5452V45.0542H100.619L93.1445 37.5452Z" fill="#00A3AD"/>
<path d="M83.8018 18.7725V26.2815H91.2763L83.8018 18.7725Z" fill="#00A3AD"/>
<path d="M74.457 9.38623V16.8953H81.9316L74.457 9.38623Z" fill="#CACEC8"/>
<path opacity="0.4" d="M81.9316 16.8953V9.38623H74.457L81.9316 16.8953Z" fill="#676863"/>
<path d="M37.2295 16.8953H44.704V9.38623L37.2295 16.8953Z" fill="#B2B2B2"/>
<path opacity="0.4" d="M44.704 9.38623H37.2295V16.8953L44.704 9.38623Z" fill="#52544C"/>
<path d="M81.9316 26.2815V18.7725H74.457L81.9316 26.2815Z" fill="#00A3AD"/>
<path d="M91.2763 35.6677V28.1587H83.8018L91.2763 35.6677Z" fill="#00A3AD"/>
<path d="M109.961 65.5596H102.486V73.0686L109.961 65.5596Z" fill="#00A3AD"/>
<path d="M93.1445 73.0686H100.619V65.5596L93.1445 73.0686Z" fill="#00A3AD"/>
<path d="M100.619 74.9458H93.1445V82.4549L100.619 74.9458Z" fill="#00A3AD"/>
<path d="M83.8018 91.8411H91.2763V84.332L83.8018 91.8411Z" fill="#00A3AD"/>
<path d="M91.2763 93.7183H83.8018V101.227L91.2763 93.7183Z" fill="#00A3AD"/>
<path d="M74.457 101.227H81.9316V93.7183L74.457 101.227Z" fill="#00A3AD"/>
<path d="M9.34375 54.4404L16.8183 54.296V46.9314L9.34375 54.4404Z" fill="#007C89"/>
<path d="M18.6855 45.0542H26.0163V37.5452L18.6855 45.0542Z" fill="#007C89"/>
<path d="M27.8848 26.2815H35.3593V18.7725L27.8848 26.2815Z" fill="#007C89"/>
<path d="M44.704 18.7725H37.2295V26.2815L44.704 18.7725Z" fill="#007C89"/>
<path d="M35.3593 28.1587H27.8848V35.6677L35.3593 28.1587Z" fill="#007C89"/>
<path d="M16.8183 73.0686V65.5596H9.34375L16.8183 73.0686Z" fill="#007C89"/>
<path d="M18.6855 65.5596V73.0686H26.1601L18.6855 65.5596Z" fill="#007C89"/>
<path d="M26.1601 82.4549L26.0163 74.9458H18.6855L26.1601 82.4549Z" fill="#007C89"/>
<path d="M27.8848 84.332V91.8411H35.3593L27.8848 84.332Z" fill="#007C89"/>
<path d="M35.3593 101.227V93.7183H27.8848L35.3593 101.227Z" fill="#007C89"/>
<path d="M37.2295 93.7183V101.227H44.704L37.2295 93.7183Z" fill="#007C89"/>
<path d="M81.9316 103.105H74.457V110.469L81.9316 103.105Z" fill="#CACEC8"/>
<path d="M44.704 110.614V103.105L37.2295 102.96L44.704 110.614Z" fill="#B2B2B2"/>
<path opacity="0.4" d="M100.619 45.0542V37.5452H93.1445L100.619 45.0542Z" fill="#676863"/>
<path opacity="0.4" d="M119.161 65.5596H111.83L111.687 73.0686L119.161 65.5596Z" fill="#676863"/>
<path opacity="0.4" d="M102.486 73.0686H109.817L109.961 65.5596L102.486 73.0686Z" fill="#676863"/>
<path opacity="0.4" d="M83.8018 101.227H91.2763V93.7183L83.8018 101.227Z" fill="#676863"/>
<path opacity="0.4" d="M74.457 110.469H81.9316V103.105L74.457 110.469Z" fill="#676863"/>
<path opacity="0.4" d="M93.1445 82.4549H100.619V74.9458L93.1445 82.4549Z" fill="#676863"/>
<path opacity="0.4" d="M109.961 74.9458H102.486V82.4549L109.961 74.9458Z" fill="#676863"/>
<path opacity="0.4" d="M100.619 93.7183H93.1445V101.227L100.619 93.7183Z" fill="#676863"/>
<path opacity="0.4" d="M91.2763 103.105H83.8018V110.469L91.2763 103.105Z" fill="#676863"/>
<path opacity="0.4" d="M81.9316 112.491H74.457V120L81.9316 112.491Z" fill="#676863"/>
<path opacity="0.4" d="M27.8848 93.7183L28.0285 101.227H35.3593L27.8848 93.7183Z" fill="#52544C"/>
<path opacity="0.4" d="M37.2295 103.105V110.469H44.704L37.2295 103.105Z" fill="#52544C"/>
<path opacity="0.4" d="M35.3593 110.469V103.105H27.8848L35.3593 110.469Z" fill="#52544C"/>
<path opacity="0.4" d="M44.704 120V112.491H37.2295L44.704 120Z" fill="#52544C"/>
<path d="M16.8183 56.1733H9.34375V63.6824H16.8183V56.1733Z" fill="#B2B2B2"/>
<path opacity="0.4" d="M7.47452 56.1733H0V63.6824H7.47452V56.1733Z" fill="#52544C"/>
<path opacity="0.4" d="M26.1601 28.1587H18.6855V35.6677H26.0163L26.1601 28.1587Z" fill="#52544C"/>
<path opacity="0.4" d="M26.1601 84.332H18.6855V91.8411H26.0163L26.1601 84.332Z" fill="#52544C"/>
<path opacity="0.4" d="M27.8848 16.8953H35.3593V9.38623L27.8848 16.8953Z" fill="#52544C"/>
<path opacity="0.4" d="M18.6855 26.2815H26.1601V18.7725L18.6855 26.2815Z" fill="#52544C"/>
<path opacity="0.4" d="M35.3593 18.7725H27.8848V26.2815L35.3593 18.7725Z" fill="#52544C"/>
<path opacity="0.4" d="M9.34375 45.0542H16.8183V37.5452L9.34375 45.0542Z" fill="#52544C"/>
<path opacity="0.4" d="M0 54.4404L7.47452 54.296V46.9314L0 54.4404Z" fill="#52544C"/>
<path opacity="0.4" d="M16.8183 46.9314H9.34375V54.4404L16.8183 46.9314Z" fill="#52544C"/>
<path opacity="0.4" d="M26.1601 37.5452H18.6855V45.0542L26.1601 37.5452Z" fill="#52544C"/>
<path opacity="0.4" d="M7.47452 73.0686V65.5596H0L7.47452 73.0686Z" fill="#52544C"/>
<path opacity="0.4" d="M9.34375 65.5596V73.0686H16.8183L9.34375 65.5596Z" fill="#52544C"/>
<path opacity="0.4" d="M18.6855 74.9458V82.4549H26.1601L18.6855 74.9458Z" fill="#52544C"/>
<path opacity="0.4" d="M16.8183 82.4549V74.9458H9.34375L16.8183 82.4549Z" fill="#52544C"/>
<path opacity="0.4" d="M26.1601 101.227L26.0163 93.7183H18.6855L26.1601 101.227Z" fill="#52544C"/>
<path d="M37.2295 35.6677H44.704V28.1587L37.2295 35.6677Z" fill="#007C89"/>
<path d="M46.5713 28.1587V35.6677H54.0458V28.1587H46.5713Z" fill="#007C89"/>
<path d="M44.704 28.1587H37.2295V35.6677L44.704 28.1587Z" fill="#454D4C"/>
<path d="M27.8848 35.6677H35.3593V28.1587L27.8848 35.6677Z" fill="#454D4C"/>
<path d="M37.2295 26.2815H44.704V18.7725L37.2295 26.2815Z" fill="#454D4C"/>
<path opacity="0.4" d="M37.2295 7.50903H44.704V0L37.2295 7.50903Z" fill="#52544C"/>
<path d="M54.0458 38.4111H46.5713V45.9202L54.0458 38.4111Z" fill="#007C89"/>
<path d="M44.704 65.5596H37.2295V73.0686H44.704V65.5596Z" fill="#007C89"/>
<path d="M35.3593 56.5486H27.8848V64.0576H35.3593V56.5486Z" fill="#007C89"/>
<path d="M35.3593 73.0686V65.5596H27.8848L35.3593 73.0686Z" fill="#007C89"/>
</svg>
