<svg width="20" height="20" viewBox="0 0 20 20" fill="none" xmlns="http://www.w3.org/2000/svg">
<g clip-path="url(#clip0_21_16066)">
<path d="M19.753 1.08097C19.5882 0.916234 19.3928 0.833594 19.1671 0.833594C18.9414 0.833594 18.7463 0.916234 18.5812 1.08097L16.8885 2.7609C15.9597 1.88406 14.8962 1.20465 13.6984 0.722996C12.5007 0.241294 11.2677 0.000488281 10.0003 0.000488281C7.61303 0.000488281 5.52979 0.723042 3.7502 2.16847C1.97057 3.61371 0.798747 5.49938 0.234497 7.82594V7.91702C0.234497 8.02985 0.27568 8.12759 0.358183 8.20995C0.440686 8.29246 0.538285 8.33364 0.651117 8.33364H3.24223C3.43328 8.33364 3.5634 8.23376 3.6329 8.03423C3.99744 7.16623 4.22739 6.65844 4.32298 6.51081C4.93056 5.52123 5.73785 4.74427 6.74485 4.18002C7.75195 3.61581 8.83698 3.33359 10.0001 3.33359C11.7451 3.33359 13.2598 3.92826 14.5446 5.11752L12.7474 6.9143C12.5829 7.07926 12.5002 7.27469 12.5002 7.5004C12.5002 7.72606 12.5829 7.9214 12.7474 8.08631C12.9126 8.25127 13.1079 8.33368 13.3337 8.33368H19.1671C19.3928 8.33368 19.5882 8.25127 19.753 8.08631C19.9178 7.9214 20.0002 7.72611 20.0002 7.5004V1.66693C20.0002 1.44122 19.9183 1.24597 19.753 1.08097Z" fill="#C5D1DC"/>
<path d="M19.2577 11.6671H16.7577C16.5667 11.6671 16.4365 11.7668 16.3672 11.9665C16.0028 12.8346 15.7726 13.3422 15.6772 13.4898C15.0695 14.4791 14.2621 15.2564 13.2554 15.8206C12.2483 16.385 11.1632 16.6669 10.0001 16.6669C9.15812 16.6669 8.3464 16.5108 7.56525 16.1983C6.784 15.8856 6.08512 15.4428 5.46887 14.8698L7.25279 13.086C7.41766 12.9212 7.50017 12.7257 7.50017 12.5001C7.50017 12.2744 7.41766 12.0789 7.25279 11.9142C7.08783 11.7491 6.89259 11.6665 6.66688 11.6665H0.833423C0.607577 11.6665 0.412242 11.7491 0.247327 11.9142C0.0824119 12.0789 0 12.2745 0 12.5002V18.3336C0 18.5592 0.0824119 18.7547 0.247372 18.9195C0.412424 19.0842 0.607759 19.1671 0.833468 19.1671C1.05913 19.1671 1.25438 19.0842 1.41938 18.9195L3.09904 17.2397C4.02792 18.1249 5.08486 18.8065 6.26978 19.2839C7.4547 19.7615 8.68084 20 9.94812 20C12.3268 20 14.4013 19.2774 16.1722 17.8321C17.943 16.3869 19.1062 14.5009 19.662 12.1746C19.6707 12.1572 19.6748 12.1268 19.6748 12.0836C19.6748 11.9706 19.6335 11.8732 19.551 11.7905C19.4685 11.7084 19.3707 11.6671 19.2577 11.6671Z" fill="#C5D1DC"/>
</g>
<defs>
<clipPath id="clip0_21_16066">
<rect width="20" height="20" fill="white"/>
</clipPath>
</defs>
</svg>
