<svg width="18" height="18" viewBox="0 0 18 18" fill="none" xmlns="http://www.w3.org/2000/svg">
<g clip-path="url(#clip0_4_12314)">
<path d="M13.7637 3.26594C13.428 3.02419 12.9619 3.09984 12.7209 3.43477C12.4788 3.7693 12.5546 4.23661 12.8895 4.47776C15.5434 6.39181 16.4028 9.90857 14.933 12.8393C14.1372 14.4258 12.7714 15.608 11.0874 16.1664C9.40378 16.7261 7.60222 16.5953 6.01608 15.8C4.43034 15.004 3.24834 13.6384 2.68902 11.9552C2.13028 10.2704 2.26071 8.47001 3.0567 6.88368C4.02328 4.95559 5.87533 3.61256 8.01104 3.29089C8.02546 3.28933 8.03774 3.28387 8.05217 3.28056L8.08278 4.75655C8.08687 4.92011 8.18844 5.06555 8.34031 5.12481C8.49276 5.18427 8.66627 5.14626 8.77896 5.02812L10.9047 2.80975C11.0595 2.64833 11.0537 2.39216 10.8926 2.23795L8.67427 0.112379C8.55613 -0.00108377 8.38203 -0.0316914 8.23231 0.0345926C8.18337 0.0556475 8.13951 0.0870349 8.10325 0.124661C8.03073 0.200497 7.9892 0.303823 7.99037 0.412996L8.01981 1.819C7.94475 1.80671 7.86775 1.80204 7.78821 1.81373C5.17233 2.20773 2.90425 3.85294 1.7203 6.21401C-0.291812 10.2254 1.33585 15.1251 5.34681 17.1364C6.51438 17.7223 7.75682 17.9999 8.9819 17.9999C11.9659 17.9999 14.8432 16.3547 16.2696 13.5105C18.0702 9.91987 17.0167 5.61102 13.7637 3.26594Z" fill="white"/>
</g>
<defs>
<clipPath id="clip0_4_12314">
<rect width="18" height="18" fill="white"/>
</clipPath>
</defs>
</svg>
