<svg width="24" height="25" viewBox="0 0 24 25" fill="none" xmlns="http://www.w3.org/2000/svg">
<path d="M5.95435 8.84781C6.0453 9.88278 6.25418 11.3005 6.7268 12.7891C7.73057 15.9503 9.50378 18.198 11.9999 19.4754C14.4961 18.198 16.2693 15.9503 17.273 12.7891C17.7456 11.3006 17.9544 9.88286 18.0455 8.84781L11.9999 5.97266L5.95435 8.84781Z" fill="white"/>
<path d="M22.1497 6.86198C22.1371 6.63142 21.9951 6.42509 21.778 6.32186L12.3015 1.81499C12.1117 1.72476 11.8884 1.72476 11.6986 1.81499L2.22204 6.32186C2.00494 6.42509 1.86293 6.63142 1.85034 6.86198C1.84315 6.99321 1.68731 10.1177 2.80634 13.7453C3.46847 15.8917 4.44239 17.7663 5.70105 19.3172C7.28717 21.2716 9.32579 22.7093 11.7603 23.5905C11.8375 23.6184 11.9187 23.6324 12 23.6324C12.0813 23.6324 12.1625 23.6184 12.2398 23.5905C14.6743 22.7093 16.7129 21.2716 18.299 19.3172C19.5577 17.7663 20.5316 15.8916 21.1937 13.7453C22.3128 10.1177 22.1569 6.99321 22.1497 6.86198ZM12.2988 20.7716C12.2046 20.8159 12.1023 20.838 12 20.838C11.8977 20.838 11.7954 20.8159 11.7013 20.7716C8.6997 19.36 6.59187 16.799 5.4364 13.1598C4.85848 11.3397 4.64983 9.6245 4.57658 8.50623C4.55973 8.24942 4.70596 8.00796 4.94791 7.89289L11.6986 4.68241C11.8884 4.59222 12.1117 4.59217 12.3015 4.68241L19.0523 7.89289C19.2942 8.00791 19.4405 8.24946 19.4236 8.50627C19.3503 9.62463 19.1417 11.3398 18.5638 13.1598C17.4082 16.799 15.3004 19.3599 12.2988 20.7716Z" fill="white"/>
</svg>
