<svg width="16" height="18" viewBox="0 0 16 18" fill="none" xmlns="http://www.w3.org/2000/svg">
<path fill-rule="evenodd" clip-rule="evenodd" d="M0 0H16V18H0V0ZM4 4C4 4.55228 3.55228 5 3 5C2.44772 5 2 4.55228 2 4C2 3.44772 2.44772 3 3 3C3.55228 3 4 3.44772 4 4ZM3 10C3.55228 10 4 9.55229 4 9C4 8.44771 3.55228 8 3 8C2.44772 8 2 8.44771 2 9C2 9.55229 2.44772 10 3 10ZM4 14C4 14.5523 3.55228 15 3 15C2.44772 15 2 14.5523 2 14C2 13.4477 2.44772 13 3 13C3.55228 13 4 13.4477 4 14ZM14 3H5V5H14V3ZM5 8H14V10H5V8ZM14 13H5V15H14V13Z" fill="white"/>
</svg>
