<svg width="60" height="30" viewBox="0 0 60 30" fill="none" xmlns="http://www.w3.org/2000/svg">
<mask id="path-1-inside-1_1_20046" fill="white">
<path fill-rule="evenodd" clip-rule="evenodd" d="M4 23V30H10H46H51L60 21V0H46H10H4V7L0 11V19L4 23Z"/>
</mask>
<path fill-rule="evenodd" clip-rule="evenodd" d="M4 23V30H10H46H51L60 21V0H46H10H4V7L0 11V19L4 23Z" fill="#FF4654" fill-opacity="0.2"/>
<path d="M4 30V31C3.44772 31 3 30.5523 3 30H4ZM4 23L4.70711 22.2929C4.89464 22.4804 5 22.7348 5 23H4ZM51 30L51.7071 30.7071C51.5196 30.8946 51.2652 31 51 31V30ZM60 21H61C61 21.2652 60.8946 21.5196 60.7071 21.7071L60 21ZM60 0V-1C60.5523 -1 61 -0.552284 61 0H60ZM4 0H3C3 -0.552284 3.44772 -1 4 -1V0ZM4 7H5C5 7.26522 4.89464 7.51957 4.70711 7.70711L4 7ZM0 11H-1C-1 10.7348 -0.894643 10.4804 -0.707107 10.2929L0 11ZM0 19L-0.707107 19.7071C-0.894643 19.5196 -1 19.2652 -1 19H0ZM3 30V23H5V30H3ZM10 31H4V29H10V31ZM10 29H46V31H10V29ZM46 29H51V31H46V29ZM50.2929 29.2929L59.2929 20.2929L60.7071 21.7071L51.7071 30.7071L50.2929 29.2929ZM59 21V0H61V21H59ZM60 1H46V-1H60V1ZM46 1H10V-1H46V1ZM4 -1H10V1H4V-1ZM3 7V0H5V7H3ZM-0.707107 10.2929L3.29289 6.29289L4.70711 7.70711L0.707107 11.7071L-0.707107 10.2929ZM-1 19V11H1V19H-1ZM3.29289 23.7071L-0.707107 19.7071L0.707107 18.2929L4.70711 22.2929L3.29289 23.7071Z" fill="#FF4654" mask="url(#path-1-inside-1_1_20046)"/>
</svg>
