<svg width="51" height="51" viewBox="0 0 51 51" fill="none" xmlns="http://www.w3.org/2000/svg">
<g opacity="0.5">
<path d="M20.4206 17.9109L17.8287 33.1211H21.9741L24.5681 17.9109H20.4206Z" fill="white"/>
<path d="M14.3531 17.928L10.293 28.3009L9.86016 26.7347C9.05945 24.8476 6.78634 22.1373 4.11768 20.4293L7.83014 33.1137L12.2164 33.1062L18.7447 17.9248L14.3531 17.928Z" fill="white"/>
<path d="M8.28641 19.0165C8.04545 18.09 7.3471 17.8138 6.48029 17.7808H0.0533094L0 18.0836C5.00148 19.2969 8.31093 22.2204 9.68418 25.7356L8.28641 19.0165Z" fill="white"/>
<path d="M32.9697 20.8269C34.3259 20.8056 35.3089 21.102 36.0723 21.409L36.4465 21.585L37.0073 18.2883C36.1864 17.9802 34.8995 17.6497 33.2938 17.6497C29.1975 17.6497 26.3103 19.7127 26.2879 22.6693C26.2612 24.8539 28.3446 26.0736 29.9182 26.8018C31.5335 27.5481 32.0751 28.0226 32.0677 28.689C32.0549 29.7072 30.7797 30.1742 29.5888 30.1742C27.9287 30.1742 27.047 29.9449 25.6855 29.3777L25.1513 29.1346L24.5681 32.539C25.5383 32.9644 27.3285 33.3301 29.1868 33.3493C33.5443 33.3493 36.3761 31.3107 36.406 28.1516C36.4241 26.4233 35.3185 25.1044 32.9228 24.0223C31.4727 23.3164 30.5857 22.8473 30.5942 22.1351C30.5942 21.5029 31.3469 20.8269 32.9697 20.8269Z" fill="white"/>
<path d="M47.6457 17.928H44.4429C43.4481 17.928 42.7082 18.1988 42.2711 19.1903L36.116 33.1297H40.4692C40.4692 33.1297 41.1793 31.2553 41.3403 30.8448C41.8169 30.8448 46.0464 30.8512 46.6488 30.8512C46.7725 31.3822 47.1542 33.1297 47.1542 33.1297H50.9999L47.6457 17.928ZM42.5333 27.7316C42.8745 26.8584 44.1849 23.4807 44.1849 23.4807C44.1625 23.5223 44.5229 22.6011 44.7372 22.0285L45.0165 23.3399C45.0165 23.3399 45.8108 26.9714 45.9771 27.7316H42.5333Z" fill="white"/>
</g>
</svg>
