<svg class="label" xmlns="http://www.w3.org/2000/svg" viewBox="0 0 76.45 76.45">
  <g id="label-0">
    <polygon class="d d-0" points="51.84 76.45 57.02 71.27 51.84 71.27 51.84 76.45" style="fill: #4a494a"/>
    <rect class="d d-1" x="45.36" y="71.27" width="5.18" height="5.18" style="fill: #4a494a"/>
    <rect class="d d-2" x="38.86" y="71.27" width="5.18" height="5.18" transform="translate(82.91 147.72) rotate(180)" style="fill: #4a494a"/>
    <rect class="d d-3" x="32.39" y="71.27" width="5.18" height="5.18" transform="translate(69.95 147.72) rotate(180)" style="fill: #3f3f3f"/>
    <rect class="d d-4" x="25.93" y="71.27" width="5.18" height="5.18" transform="translate(57.03 147.72) rotate(180)" style="fill: #3f3f3f"/>
    <polygon class="d d-5" points="24.61 76.44 19.43 71.26 24.61 71.26 24.61 76.44" style="fill: #3f3f3f"/>
  </g>
  <g id="label-1">
    <rect class="d d-0" x="58.32" y="64.8" width="5.18" height="5.18" style="fill: #4a494a"/>
    <rect class="d d-1" x="51.84" y="64.8" width="5.18" height="5.18" style="fill: #4a494a"/>
    <rect class="d d-2" x="45.34" y="64.78" width="5.18" height="5.18" transform="translate(95.86 134.74) rotate(180)" style="fill: #4a494a"/>
    <rect class="d d-3" x="38.86" y="64.78" width="5.18" height="5.18" transform="translate(82.91 134.74) rotate(180)" style="fill: #4a494a"/>
    <rect class="d d-4" x="32.39" y="64.78" width="5.18" height="5.18" transform="translate(69.95 134.74) rotate(180)" style="fill: #3f3f3f"/>
    <rect class="d d-5" x="25.93" y="64.78" width="5.18" height="5.18" transform="translate(57.03 134.74) rotate(180)" style="fill: #3f3f3f"/>
    <rect class="d d-6" x="19.43" y="64.78" width="5.18" height="5.18" transform="translate(44.05 134.74) rotate(180)" style="fill: #3f3f3f"/>
    <rect class="d d-7" x="12.96" y="64.78" width="5.18" height="5.18" transform="translate(31.09 134.74) rotate(180)" style="fill: #3f3f3f"/>
  </g>
  <g id="label-2">
    <rect class="d d-0" x="64.8" y="58.32" width="5.18" height="5.18" style="fill: #4a494a"/>
    <polygon class="d d-1" points="63.49 63.49 58.32 58.32 63.49 58.32 63.49 63.49" style="fill: #f2f2f2"/>
    <polygon class="d d-1" points="58.32 58.32 63.49 63.49 58.32 63.49 58.32 58.32" style="fill: #4a494a"/>
    <rect class="d d-2" x="51.81" y="58.32" width="5.18" height="5.18" transform="translate(108.8 121.81) rotate(180)" style="fill: #4a494a"/>
    <rect class="d d-3" x="45.36" y="58.32" width="5.18" height="5.18" transform="translate(95.9 121.81) rotate(180)" style="fill: #4a494a"/>
    <polygon class="d d-4" points="38.88 63.49 44.06 58.32 44.06 63.49 38.88 63.49" style="fill: #4a494a"/>
    <polygon class="d d-4" points="44.06 58.32 38.88 63.49 38.88 58.32 44.06 58.32" style="fill: #b83e69"/>
    <polygon class="d d-5" points="37.58 63.49 32.41 58.32 37.58 58.32 37.58 63.49" style="fill: #801c44"/>
    <polygon class="d d-5" points="32.39 58.3 37.57 63.48 32.39 63.48 32.39 58.3" style="fill: #3f3f3f"/>
    <rect class="d d-6" x="25.91" y="58.32" width="5.18" height="5.18" transform="translate(57 121.81) rotate(180)" style="fill: #3f3f3f"/>
    <rect class="d d-7" x="19.43" y="58.32" width="5.18" height="5.18" transform="translate(44.05 121.81) rotate(180)" style="fill: #3f3f3f"/>
    <polygon class="d d-8" points="12.96 63.48 18.13 58.3 18.13 63.48 12.96 63.48" style="fill: #3f3f3f"/>
    <polygon class="d d-8" points="18.15 58.32 12.97 63.49 12.97 58.32 18.15 58.32" style="fill: #f2f2f2"/>
    <rect class="d d-9" x="6.48" y="58.3" width="5.18" height="5.18" transform="translate(18.13 121.78) rotate(180)" style="fill: #3f3f3f"/>
  </g>
  <g id="label-3">
    <polygon class="d d-0" points="71.27 57.02 76.45 51.84 71.27 51.84 71.27 57.02" style="fill: #4a494a"/>
    <rect class="d d-1" x="64.8" y="51.84" width="5.18" height="5.18" style="fill: #4a494a"/>
    <polygon class="d d-2" points="63.49 57.02 58.32 51.84 63.49 51.84 63.49 57.02" style="fill: #4a494a"/>
    <polygon class="d d-2" points="58.32 51.84 63.49 57.02 58.32 57.02 58.32 51.84" style="fill: #f2f2f2"/>
    <polygon class="d d-3" points="57.02 57.02 51.84 51.84 57.02 51.84 57.02 57.02" style="fill: #f2f2f2"/>
    <polygon class="d d-3" points="51.84 51.84 57.02 57.02 51.84 57.02 51.84 51.84" style="fill: #4a494a"/>
    <polygon class="d d-4" points="45.36 57.02 50.54 51.84 50.54 57.02 45.36 57.02" style="fill: #4a494a"/>
    <polygon class="d d-4" points="50.54 51.84 45.36 57.02 45.36 51.84 50.54 51.84" style="fill: #b83e69"/>
    <rect class="d d-5" x="38.88" y="51.84" width="5.18" height="5.18" style="fill: #b83e69"/>
    <rect class="d d-6" x="32.41" y="51.84" width="5.18" height="5.18" style="fill: #801c44"/>
    <polygon class="d d-7" points="31.11 57.02 25.93 51.84 31.11 51.84 31.11 57.02" style="fill: #801c44"/>
    <polygon class="d d-7" points="25.91 51.82 31.09 57 25.91 57 25.91 51.82" style="fill: #3f3f3f"/>
    <polygon class="d d-8" points="19.43 57 24.61 51.82 24.61 57 19.43 57" style="fill: #3f3f3f"/>
    <polygon class="d d-8" points="24.63 51.84 19.45 57.02 19.45 51.84 24.63 51.84" style="fill: #f2f2f2"/>
    <polygon class="d d-9" points="12.97 57.02 18.15 51.84 18.15 57.02 12.97 57.02" style="fill: #f2f2f2"/>
    <polygon class="d d-9" points="18.15 51.84 12.97 57.02 12.97 51.84 18.15 51.84" style="fill: #3f3f3f"/>
    <rect class="d d-10" x="6.48" y="51.82" width="5.18" height="5.18" transform="translate(18.13 108.83) rotate(180)" style="fill: #3f3f3f"/>
    <polygon class="d d-11" points="5.18 57 0 51.82 5.18 51.82 5.18 57" style="fill: #3f3f3f"/>
  </g>
  <g id="label-4">
    <rect class="d d-1" x="71.27" y="45.36" width="5.18" height="5.18" style="fill: #4a494a"/>
    <rect class="d d-2" x="64.77" y="45.35" width="5.18" height="5.18" style="fill: #4a494a"/>
    <rect class="d d-3" x="58.29" y="45.35" width="5.18" height="5.18" style="fill: #4a494a"/>
    <polygon class="d d-4" points="51.84 50.54 57.02 45.36 57.02 50.54 51.84 50.54" style="fill: #4a494a"/>
    <polygon class="d d-4" points="57.02 45.36 51.84 50.54 51.84 45.36 57.02 45.36" style="fill: #b83e69"/>
    <rect class="d d-5" x="45.36" y="45.36" width="5.18" height="5.18" style="fill: #b83e69"/>
    <polygon class="d d-6" points="38.88 50.54 44.06 45.36 44.06 50.54 38.88 50.54" style="fill: #b83e69"/>
    <polygon class="d d-6" points="38.88 50.54 38.88 45.36 44.06 45.36 38.88 50.54" style="fill: #804176"/>
    <polygon class="d d-7" points="37.58 50.54 32.41 45.36 37.58 45.36 37.58 50.54" style="fill: #673060"/>
    <polygon class="d d-7" points="32.41 45.36 37.58 50.54 32.41 50.54 32.41 45.36" style="fill: #801c44"/>
    <rect class="d d-8" x="25.93" y="45.36" width="5.18" height="5.18" style="fill: #801c44"/>
    <polygon class="d d-9" points="24.63 50.54 19.45 45.36 24.63 45.36 24.63 50.54" style="fill: #801c44"/>
    <polygon class="d d-9" points="19.43 45.35 24.61 50.52 19.43 50.52 19.43 45.35" style="fill: #3f3f3f"/>
    <rect class="d d-10" x="12.97" y="45.35" width="5.18" height="5.18" transform="translate(31.12 95.87) rotate(180)" style="fill: #3f3f3f"/>
    <rect class="d d-11" x="6.48" y="45.35" width="5.18" height="5.18" transform="translate(18.13 95.87) rotate(180)" style="fill: #3f3f3f"/>
    <rect class="d d-12" y="45.35" width="5.18" height="5.18" transform="translate(5.18 95.87) rotate(180)" style="fill: #3f3f3f"/>
  </g>
  <g id="label-5">
    <rect class="d d-2" x="71.24" y="38.88" width="5.18" height="5.18" style="fill: #4a494a"/>
    <rect class="d d-3" x="64.77" y="38.88" width="5.18" height="5.18" style="fill: #4a494a"/>
    <polygon class="d d-4" points="58.32 44.06 63.49 38.88 63.49 44.06 58.32 44.06" style="fill: #4a494a"/>
    <polygon class="d d-4" points="63.49 38.88 58.32 44.06 58.32 38.88 63.49 38.88" style="fill: #b83e69"/>
    <rect class="d d-5" x="51.84" y="38.88" width="5.18" height="5.18" style="fill: #b83e69"/>
    <polygon class="d d-6" points="45.36 44.06 50.54 38.88 50.54 44.06 45.36 44.06" style="fill: #b83e69"/>
    <polygon class="d d-6" points="45.36 44.06 45.36 38.88 50.54 38.88 45.36 44.06" style="fill: #804176"/>
    <rect class="d d-7" x="38.88" y="38.88" width="5.18" height="5.18" style="fill: #804176"/>
    <rect class="d d-8" x="32.41" y="38.88" width="5.18" height="5.18" style="fill: #673060"/>
    <polygon class="d d-9" points="31.11 44.06 25.93 38.88 31.11 38.88 31.11 44.06" style="fill: #673060"/>
    <polygon class="d d-9" points="25.93 38.88 31.11 44.06 25.93 44.06 25.93 38.88" style="fill: #801c44"/>
    <rect class="d d-10" x="19.45" y="38.88" width="5.18" height="5.18" style="fill: #801c44"/>
    <polygon class="d d-11" points="18.13 44.05 12.96 38.87 18.13 38.87 18.13 44.05" style="fill: #801c44"/>
    <polygon class="d d-11" points="12.97 38.88 18.15 44.06 12.97 44.06 12.97 38.88" style="fill: #3f3f3f"/>
    <rect class="d d-12" x="6.48" y="38.88" width="5.18" height="5.18" transform="translate(18.13 82.93) rotate(180)" style="fill: #3f3f3f"/>
    <rect class="d d-13" x="0.02" y="38.88" width="5.18" height="5.18" transform="translate(5.21 82.94) rotate(180)" style="fill: #3f3f3f"/>
  </g>
  <g id="label-6">
    <rect class="d d-3" x="71.24" y="32.4" width="5.18" height="5.18" style="fill: #4a494a"/>
    <rect class="d d-4" x="64.77" y="32.4" width="5.18" height="5.18" style="fill: #4a494a"/>
    <polygon class="d d-5" points="63.48 37.58 58.3 32.4 63.48 32.4 63.48 37.58" style="fill: #4a494a"/>
    <polygon class="d d-5" points="58.3 32.4 63.48 37.58 58.3 37.58 58.3 32.4" style="fill: #e26979"/>
    <rect class="d d-6" x="51.81" y="32.41" width="5.18" height="5.18" style="fill: #e26979"/>
    <polygon class="d d-7" points="50.51 37.58 45.33 32.4 50.51 32.4 50.51 37.58" style="fill: #f6b2b0"/>
    <polygon class="d d-7" points="50.51 37.58 45.33 37.58 45.33 32.4 50.51 37.58" style="fill: #9f6394"/>
    <rect class="d d-8" x="38.87" y="32.4" width="5.18" height="5.18" style="fill: #9f6394"/>
    <rect class="d d-9" x="32.4" y="32.4" width="5.18" height="5.18" style="fill: #804176"/>
    <polygon class="d d-10" points="31.1 37.58 25.92 37.58 31.1 32.4 31.1 37.58" style="fill: #804176"/>
    <polygon class="d d-10" points="31.1 32.4 25.92 37.58 25.92 32.4 31.1 32.4" style="fill: #ba2048"/>
    <rect class="d d-11" x="19.45" y="32.41" width="5.18" height="5.18" style="fill: #8f3545"/>
    <polygon class="d d-12" points="12.96 37.58 18.14 32.4 18.14 37.58 12.96 37.58" style="fill: #8f3545"/>
    <polygon class="d d-12" points="18.14 32.4 12.96 37.58 12.96 32.4 18.14 32.4" style="fill: #3f3f3f"/>
    <rect class="d d-13" x="6.48" y="32.4" width="5.18" height="5.18" transform="translate(18.13 69.97) rotate(180)" style="fill: #3f3f3f"/>
    <rect class="d d-14" x="0.02" y="32.4" width="5.18" height="5.18" transform="translate(5.21 69.97) rotate(180)" style="fill: #3f3f3f"/>
  </g>
  <g id="label-7">
    <rect class="d d-4" x="71.27" y="25.93" width="5.18" height="5.18" style="fill: #4a494a"/>
    <rect class="d d-5" x="64.77" y="25.93" width="5.18" height="5.18" style="fill: #4a494a"/>
    <rect class="d d-6" x="58.29" y="25.93" width="5.18" height="5.18" style="fill: #4a494a"/>
    <polygon class="d d-7" points="57.02 31.11 51.84 25.93 57.02 25.93 57.02 31.11" style="fill: #4a494a"/>
    <polygon class="d d-7" points="51.84 25.93 57.02 31.11 51.84 31.11 51.84 25.93" style="fill: #f6b2b0"/>
    <rect class="d d-8" x="45.36" y="25.93" width="5.18" height="5.18" style="fill: #f6b2b0"/>
    <polygon class="d d-9" points="44.06 31.11 38.88 25.93 44.06 25.93 44.06 31.11" style="fill: #e26979"/>
    <polygon class="d d-9" points="44.06 31.11 38.88 31.11 38.88 25.93 44.06 31.11" style="fill: #9f6394"/>
    <polygon class="d d-10" points="37.58 31.11 32.41 31.11 37.58 25.93 37.58 31.11" style="fill: #804176"/>
    <polygon class="d d-10" points="37.58 25.93 32.41 31.11 32.41 25.93 37.58 25.93" style="fill: #8f3545"/>
    <rect class="d d-11" x="25.93" y="25.93" width="5.18" height="5.18" style="fill: #ba2048"/>
    <polygon class="d d-12" points="19.44 31.1 24.62 25.92 24.62 31.1 19.44 31.1" style="fill: #ba2048"/>
    <polygon class="d d-12" points="24.62 25.92 19.44 31.1 19.44 25.92 24.62 25.92" style="fill: #3f3f3f"/>
    <rect class="d d-13" x="12.96" y="25.91" width="5.18" height="5.18" transform="translate(31.09 57) rotate(-180)" style="fill: #3f3f3f"/>
    <rect class="d d-14" x="6.48" y="25.91" width="5.18" height="5.18" transform="translate(18.15 57) rotate(-180)" style="fill: #3f3f3f"/>
    <rect class="d d-15" y="25.91" width="5.18" height="5.18" transform="translate(5.18 57) rotate(-180)" style="fill: #3f3f3f"/>
  </g>
  <g id="label-8">
    <polygon class="d d-5" points="71.27 19.45 76.45 24.63 71.27 24.63 71.27 19.45" style="fill: #4a494a"/>
    <rect class="d d-6" x="64.8" y="19.45" width="5.18" height="5.18" style="fill: #4a494a"/>
    <rect class="d d-7" x="58.29" y="19.45" width="5.18" height="5.18" style="fill: #4a494a"/>
    <polygon class="d d-8" points="51.84 24.63 57.02 19.45 57.02 24.63 51.84 24.63" style="fill: #4a494a"/>
    <polygon class="d d-8" points="57.02 19.45 51.84 24.63 51.84 19.45 57.02 19.45" style="fill: #f2f2f2"/>
    <polygon class="d d-9" points="50.54 24.63 45.36 19.45 50.54 19.45 50.54 24.63" style="fill: #4a494a"/>
    <polygon class="d d-9" points="45.36 19.45 50.54 24.63 45.36 24.63 45.36 19.45" style="fill: #f6b2b0"/>
    <rect class="d d-10" x="38.88" y="19.45" width="5.18" height="5.18" style="fill: #e26979"/>
    <rect class="d d-11" x="32.41" y="19.45" width="5.18" height="5.18" style="fill: #8f3545"/>
    <polygon class="d d-12" points="25.92 24.62 31.1 19.44 31.1 24.62 25.92 24.62" style="fill: #ba2048"/>
    <polygon class="d d-12" points="31.1 19.44 25.92 24.62 25.92 19.44 31.1 19.44" style="fill: #3f3f3f"/>
    <polygon class="d d-13" points="24.63 24.63 19.45 19.45 24.63 19.45 24.63 24.63" style="fill: #f2f2f2"/>
    <polygon class="d d-13" points="19.43 19.43 24.61 24.61 19.43 24.61 19.43 19.43" style="fill: #3f3f3f"/>
    <rect class="d d-14" x="12.96" y="19.43" width="5.18" height="5.18" transform="translate(31.09 44.05) rotate(-180)" style="fill: #3f3f3f"/>
    <rect class="d d-15" x="6.48" y="19.43" width="5.18" height="5.18" transform="translate(18.13 44.05) rotate(-180)" style="fill: #3f3f3f"/>
    <polygon class="d d-16" points="5.18 19.43 0 24.61 5.18 24.61 5.18 19.43" style="fill: #3f3f3f"/>
  </g>
  <g id="label-9">
    <rect class="d d-7" x="64.8" y="12.97" width="5.18" height="5.18" style="fill: #4a494a"/>
    <polygon class="d d-8" points="58.32 18.15 63.49 12.97 63.49 18.15 58.32 18.15" style="fill: #4a494a"/>
    <polygon class="d d-8" points="63.49 12.97 58.32 18.15 58.32 12.97 63.49 12.97" style="fill: #f2f2f2"/>
    <polygon class="d d-9" points="51.84 18.15 57.02 12.97 57.02 18.15 51.84 18.15" style="fill: #f2f2f2"/>
    <polygon class="d d-9" points="57.02 12.97 51.84 18.15 51.84 12.97 57.02 12.97" style="fill: #4a494a"/>
    <rect class="d d-10" x="45.34" y="12.97" width="5.18" height="5.18" style="fill: #4a494a"/>
    <polygon class="d d-11" points="44.06 18.15 38.88 12.97 44.06 12.97 44.06 18.15" style="fill: #4a494a"/>
    <polygon class="d d-11" points="38.88 12.97 44.06 18.15 38.88 18.15 38.88 12.97" style="fill: #e26979"/>
    <polygon class="d d-12" points="32.4 18.15 37.58 12.97 37.58 18.15 32.4 18.15" style="fill: #8f3545"/>
    <polygon class="d d-12" points="37.58 12.97 32.4 18.15 32.4 12.97 37.58 12.97" style="fill: #3f3f3f"/>
    <rect class="d d-13" x="25.93" y="12.97" width="5.18" height="5.18" style="fill: #3f3f3f"/>
    <polygon class="d d-14" points="19.43 12.96 24.61 18.13 24.61 12.96 19.43 12.96" style="fill: #3f3f3f"/>
    <polygon class="d d-14" points="19.45 12.97 24.63 18.15 19.45 18.15 19.45 12.97" style="fill: #f2f2f2"/>
    <polygon class="d d-15" points="18.15 18.15 12.97 12.97 18.15 12.97 18.15 18.15" style="fill: #f2f2f2"/>
    <polygon class="d d-15" points="18.13 18.13 12.96 12.96 12.96 18.13 18.13 18.13" style="fill: #3f3f3f"/>
    <rect class="d d-16" x="6.48" y="12.96" width="5.18" height="5.18" transform="translate(18.13 31.09) rotate(-180)" style="fill: #3f3f3f"/>
  </g>
  <g id="label-10">
    <rect class="d d-9" x="58.32" y="6.49" width="5.18" height="5.18" style="fill: #4a494a"/>
    <rect class="d d-10" x="51.8" y="6.48" width="5.18" height="5.18" style="fill: #4a494a"/>
    <rect class="d d-11" x="45.36" y="6.49" width="5.18" height="5.18" style="fill: #4a494a"/>
    <rect class="d d-12" x="38.87" y="6.47" width="5.18" height="5.18" transform="translate(82.93 18.12) rotate(-180)" style="fill: #3f3f3f"/>
    <rect class="d d-13" x="32.39" y="6.47" width="5.18" height="5.18" transform="translate(69.95 18.12) rotate(-180)" style="fill: #3f3f3f"/>
    <rect class="d d-14" x="25.91" y="6.47" width="5.18" height="5.18" transform="translate(57 18.12) rotate(-180)" style="fill: #3f3f3f"/>
    <rect class="d d-15" x="19.43" y="6.48" width="5.18" height="5.18" transform="translate(44.05 18.13) rotate(-180)" style="fill: #3f3f3f"/>
    <rect class="d d-16" x="12.96" y="6.48" width="5.18" height="5.18" transform="translate(31.09 18.13) rotate(-180)" style="fill: #3f3f3f"/>
  </g>
  <g id="label-11">
    <polygon class="d d-11" points="51.84 0.01 57.02 5.19 51.84 5.19 51.84 0.01" style="fill: #4a494a"/>
    <rect class="d d-12" x="45.36" y="0.02" width="5.18" height="5.18" style="fill: #4a494a"/>
    <rect class="d d-13" x="38.87" width="5.18" height="5.18" transform="translate(82.93 5.18) rotate(-180)" style="fill: #3f3f3f"/>
    <rect class="d d-14" x="32.39" width="5.18" height="5.18" transform="translate(69.95 5.18) rotate(-180)" style="fill: #3f3f3f"/>
    <rect class="d d-15" x="25.91" width="5.18" height="5.18" transform="translate(57 5.18) rotate(-180)" style="fill: #3f3f3f"/>
    <polygon class="d d-16" points="24.61 0 19.43 5.18 24.61 5.18 24.61 0" style="fill: #3f3f3f"/>
  </g>
</svg>
