<svg class="label" xmlns="http://www.w3.org/2000/svg" viewBox="0 0 76.44 82.91">
  <g id="label-0">
    <polygon class="d d-0" points="38.87 82.91 38.87 77.74 44.05 77.74 38.87 82.91" style="fill: #3d4143"/>
    <polygon class="d d-1" points="37.57 82.91 32.39 77.74 37.57 77.74 37.57 82.91" style="fill: #3d4143"/>
  </g>
  <g id="label-1">
    <polygon class="d d-0" points="45.35 76.44 45.35 71.26 50.52 71.26 45.35 76.44" style="fill: #3d4143"/>
    <rect class="d d-1" x="38.87" y="71.26" width="5.18" height="5.18" style="fill: #3d4143"/>
    <rect class="d d-2" x="32.39" y="71.26" width="5.18" height="5.18" style="fill: #3d4143"/>
    <polygon class="d d-3" points="31.09 76.44 25.91 71.26 31.09 71.26 31.09 76.44" style="fill: #3d4143"/>
  </g>
  <g id="label-2">
    <polygon class="d d-0" points="51.82 69.96 51.82 64.78 57 64.78 51.82 69.96" style="fill: #3d4143"/>
    <rect class="d d-1" x="45.35" y="64.78" width="5.18" height="5.18" style="fill: #3d4143"/>
    <rect class="d d-2" x="38.87" y="64.78" width="5.18" height="5.18" style="fill: #3d4143"/>
    <rect class="d d-3" x="32.4" y="64.78" width="5.18" height="5.18" style="fill: #3d4143"/>
    <rect class="d d-4" x="25.92" y="64.78" width="5.18" height="5.18" style="fill: #3d4143"/>
    <polygon class="d d-5" points="24.61 69.96 19.43 64.78 24.61 64.78 24.61 69.96" style="fill: #3d4143"/>
  </g>
  <g id="label-3">
    <polygon class="d d-0" points="58.3 63.48 58.3 58.3 63.48 58.3 58.3 63.48" style="fill: #3d4143"/>
    <rect class="d d-1" x="51.83" y="58.3" width="5.18" height="5.18" style="fill: #3d4143"/>
    <rect class="d d-2" x="45.36" y="58.3" width="5.18" height="5.18" style="fill: #3d4143"/>
    <polygon class="d d-3" points="44.05 63.48 38.87 63.48 44.05 58.3 44.05 63.48" style="fill: #3d4143"/>
    <polygon class="d d-3" points="38.87 63.48 38.87 58.3 44.05 58.3 38.87 63.48" style="fill: #cfcece"/>
    <polygon class="d d-4" points="37.57 63.48 32.39 58.3 37.57 58.3 37.57 63.48" style="fill: #888989"/>
    <polygon class="d d-4" points="37.57 63.48 32.39 63.48 32.39 58.3 37.57 63.48" style="fill: #3d4143"/>
    <rect class="d d-5" x="25.93" y="58.3" width="5.18" height="5.18" style="fill: #3d4143"/>
    <rect class="d d-6" x="19.45" y="58.3" width="5.18" height="5.18" style="fill: #3d4143"/>
    <polygon class="d d-7" points="18.13 63.48 12.96 58.3 18.13 58.3 18.13 63.48" style="fill: #3d4143"/>
  </g>
  <g id="label-4">
    <polygon class="d d-0" points="64.78 57 64.78 51.82 69.96 51.82 64.78 57" style="fill: #3d4143"/>
    <rect class="d d-1" x="58.3" y="51.82" width="5.18" height="5.18" style="fill: #3d4143"/>
    <rect class="d d-2" x="51.82" y="51.82" width="5.18" height="5.18" style="fill: #3d4143"/>
    <polygon class="d d-3" points="50.52 57 45.35 57 50.52 51.82 50.52 57" style="fill: #3d4143"/>
    <polygon class="d d-3" points="45.35 57 45.35 51.82 50.52 51.82 45.35 57" style="fill: #cfcece"/>
    <polygon class="d d-4" points="44.05 57 38.87 57 44.05 51.82 44.05 57" style="fill: #cfcece"/>
    <polygon class="d d-4" points="38.87 57 38.87 51.82 44.05 51.82 38.87 57" style="fill: #888989"/>
    <polygon class="d d-5" points="37.57 57 32.39 51.82 37.57 51.82 37.57 57" style="fill: #717070"/>
    <polygon class="d d-5" points="37.57 57 32.39 57 32.39 51.82 37.57 57" style="fill: #888989"/>
    <polygon class="d d-6" points="31.09 57 25.91 51.82 31.09 51.82 31.09 57" style="fill: #888989"/>
    <polygon class="d d-6" points="31.09 57 25.91 57 25.91 51.82 31.09 57" style="fill: #3d4143"/>
    <rect class="d d-7" x="19.45" y="51.82" width="5.18" height="5.18" style="fill: #3d4143"/>
    <rect class="d d-8" x="12.98" y="51.82" width="5.18" height="5.18" style="fill: #3d4143"/>
    <polygon class="d d-9" points="11.66 57 6.48 51.82 11.66 51.82 11.66 57" style="fill: #3d4143"/>
  </g>
  <g id="label-5">
    <polygon class="d d-0" points="71.26 50.52 71.26 45.35 76.44 45.35 71.26 50.52" style="fill: #3d4143"/>
    <rect class="d d-1" x="64.78" y="45.35" width="5.18" height="5.18" style="fill: #3d4143"/>
    <rect class="d d-2" x="58.3" y="45.35" width="5.18" height="5.18" style="fill: #3d4143"/>
    <polygon class="d d-3" points="57 50.52 51.82 50.52 57 45.35 57 50.52" style="fill: #3d4143"/>
    <polygon class="d d-3" points="51.82 50.52 51.82 45.35 57 45.35 51.82 50.52" style="fill: #cfcece"/>
    <polygon class="d d-4" points="50.52 50.52 45.35 50.52 50.52 45.35 50.52 50.52" style="fill: #cfcece"/>
    <polygon class="d d-4" points="45.35 50.52 45.35 45.35 50.52 45.35 45.35 50.52" style="fill: #888989"/>
    <rect class="d d-5" x="38.87" y="45.35" width="5.18" height="5.18" style="fill: #888989"/>
    <rect class="d d-6" x="32.35" y="45.35" width="5.18" height="5.18" style="fill: #717070"/>
    <polygon class="d d-7" points="31.09 50.52 25.91 45.35 31.09 45.35 31.09 50.52" style="fill: #717070"/>
    <polygon class="d d-7" points="31.09 50.52 25.91 50.52 25.91 45.35 31.09 50.52" style="fill: #888989"/>
    <polygon class="d d-8" points="24.61 50.52 19.43 45.35 24.61 45.35 24.61 50.52" style="fill: #888989"/>
    <polygon class="d d-8" points="24.61 50.52 19.43 50.52 19.43 45.35 24.61 50.52" style="fill: #3d4143"/>
    <rect class="d d-9" x="12.96" y="45.35" width="5.18" height="5.18" style="fill: #3d4143"/>
    <rect class="d d-9" x="6.48" y="45.35" width="5.18" height="5.18" style="fill: #3d4143"/>
    <polygon class="d d-10" points="5.18 50.52 0 45.35 5.18 45.35 5.18 50.52" style="fill: #3d4143"/>
  </g>
  <g id="label-6">
    <rect class="d d-1" x="71.26" y="38.87" width="5.18" height="5.18" style="fill: #3d4143"/>
    <rect class="d d-2" x="64.78" y="38.87" width="5.18" height="5.18" style="fill: #3d4143"/>
    <rect class="d d-3" x="58.3" y="38.87" width="5.18" height="5.18" style="fill: #3d4143"/>
    <rect class="d d-4" x="51.82" y="38.87" width="5.18" height="5.18" style="fill: #cfcece"/>
    <rect class="d d-5" x="45.35" y="38.87" width="5.18" height="5.18" style="fill: #888989"/>
    <rect class="d d-6" x="38.87" y="38.87" width="5.18" height="5.18" style="fill: #888989"/>
    <rect class="d d-7" x="32.35" y="38.87" width="5.18" height="5.18" style="fill: #717070"/>
    <rect class="d d-8" x="25.87" y="38.87" width="5.18" height="5.18" style="fill: #717070"/>
    <rect class="d d-9" x="19.43" y="38.87" width="5.18" height="5.18" style="fill: #b3b2b2"/>
    <rect class="d d-10" x="12.96" y="38.87" width="5.18" height="5.18" style="fill: #3d4143"/>
    <rect class="d d-11" x="6.48" y="38.87" width="5.18" height="5.18" style="fill: #3d4143"/>
    <rect class="d d-12" y="38.87" width="5.18" height="5.18" style="fill: #3d4143"/>
  </g>
  <g id="label-7">
    <polygon class="d d-2" points="76.44 37.57 71.26 37.57 71.26 32.39 76.44 37.57" style="fill: #3d4143"/>
    <rect class="d d-3" x="64.78" y="32.39" width="5.18" height="5.18" style="fill: #3d4143"/>
    <rect class="d d-4" x="58.3" y="32.39" width="5.18" height="5.18" style="fill: #3d4143"/>
    <polygon class="d d-5" points="57 37.57 51.82 32.39 57 32.39 57 37.57" style="fill: #3d4143"/>
    <polygon class="d d-5" points="57 37.57 51.82 37.57 51.82 32.39 57 37.57" style="fill: #cfcece"/>
    <polygon class="d d-6" points="50.52 37.57 45.35 32.39 50.52 32.39 50.52 37.57" style="fill: #cfcece"/>
    <polygon class="d d-6" points="50.52 37.57 45.35 37.57 45.35 32.39 50.52 37.57" style="fill: #888989"/>
    <rect class="d d-7" x="38.87" y="32.39" width="5.18" height="5.18" style="fill: #888989"/>
    <rect class="d d-8" x="32.35" y="32.39" width="5.18" height="5.18" style="fill: #717070"/>
    <polygon class="d d-9" points="31.05 37.57 25.87 37.57 31.05 32.39 31.05 37.57" style="fill: #717070"/>
    <polygon class="d d-9" points="25.91 37.57 25.91 32.39 31.09 32.39 25.91 37.57" style="fill: #b3b2b2"/>
    <polygon class="d d-10" points="24.61 37.57 19.43 37.57 24.61 32.39 24.61 37.57" style="fill: #b3b2b2"/>
    <polygon class="d d-10" points="19.43 37.57 19.43 32.39 24.61 32.39 19.43 37.57" style="fill: #3d4143"/>
    <rect class="d d-11" x="12.96" y="32.39" width="5.18" height="5.18" style="fill: #3d4143"/>
    <rect class="d d-12" x="6.48" y="32.39" width="5.18" height="5.18" style="fill: #3d4143"/>
    <polygon class="d d-13" points="5.18 37.57 0 37.57 5.18 32.39 5.18 37.57" style="fill: #3d4143"/>
  </g>
  <g id="label-8">
    <polygon class="d d-4" points="69.96 31.09 64.78 31.09 64.78 25.91 69.96 31.09" style="fill: #3d4143"/>
    <rect class="d d-5" x="58.3" y="25.91" width="5.18" height="5.18" style="fill: #3d4143"/>
    <rect class="d d-6" x="51.82" y="25.91" width="5.18" height="5.18" style="fill: #3d4143"/>
    <polygon class="d d-7" points="50.52 31.09 45.35 25.91 50.52 25.91 50.52 31.09" style="fill: #3d4143"/>
    <polygon class="d d-7" points="50.52 31.09 45.35 31.09 45.35 25.91 50.52 31.09" style="fill: #cfcece"/>
    <polygon class="d d-8" points="44.05 31.09 38.87 25.91 44.05 25.91 44.05 31.09" style="fill: #cfcece"/>
    <polygon class="d d-8" points="44.05 31.09 38.87 31.09 38.87 25.91 44.05 31.09" style="fill: #888989"/>
    <polygon class="d d-9" points="37.57 31.09 32.39 31.09 37.57 25.91 37.57 31.09" style="fill: #717070"/>
    <polygon class="d d-9" points="32.39 31.09 32.39 25.91 37.57 25.91 32.39 31.09" style="fill: #b3b2b2"/>
    <polygon class="d d-10" points="31.09 31.09 25.91 31.09 31.09 25.91 31.09 31.09" style="fill: #b3b2b2"/>
    <polygon class="d d-10" points="25.91 31.09 25.91 25.91 31.09 25.91 25.91 31.09" style="fill: #3d4143"/>
    <rect class="d d-11" x="19.45" y="25.91" width="5.18" height="5.18" style="fill: #3d4143"/>
    <rect class="d d-12" x="12.98" y="25.91" width="5.18" height="5.18" style="fill: #3d4143"/>
    <polygon class="d d-13" points="11.66 31.09 6.48 31.09 11.66 25.91 11.66 31.09" style="fill: #3d4143"/>
  </g>
  <g id="label-9">
    <polygon class="d d-6" points="63.48 24.61 58.3 24.61 58.3 19.43 63.48 24.61" style="fill: #3d4143"/>
    <rect class="d d-7" x="51.82" y="19.43" width="5.18" height="5.18" style="fill: #3d4143"/>
    <rect class="d d-8" x="45.35" y="19.43" width="5.18" height="5.18" style="fill: #3d4143"/>
    <polygon class="d d-9" points="44.05 24.61 38.87 19.43 44.05 19.43 44.05 24.61" style="fill: #3d4143"/>
    <polygon class="d d-9" points="44.05 24.61 38.87 24.61 38.87 19.43 44.05 24.61" style="fill: #cfcece"/>
    <polygon class="d d-10" points="37.57 24.61 32.39 24.61 37.57 19.43 37.57 24.61" style="fill: #b3b2b2"/>
    <polygon class="d d-10" points="32.39 24.61 32.39 19.43 37.57 19.43 32.39 24.61" style="fill: #3d4143"/>
    <rect class="d d-11" x="25.93" y="19.43" width="5.18" height="5.18" style="fill: #3d4143"/>
    <rect class="d d-12" x="19.45" y="19.43" width="5.18" height="5.18" style="fill: #3d4143"/>
    <polygon class="d d-13" points="18.13 24.61 12.96 24.61 18.13 19.43 18.13 24.61" style="fill: #3d4143"/>
  </g>
  <g id="label-10">
    <polygon class="d d-8" points="57 18.13 51.82 18.13 51.82 12.96 57 18.13" style="fill: #3d4143"/>
    <rect class="d d-9" x="45.36" y="12.96" width="5.18" height="5.18" style="fill: #3d4143"/>
    <rect class="d d-10" x="38.88" y="12.96" width="5.18" height="5.18" style="fill: #3d4143"/>
    <rect class="d d-11" x="32.41" y="12.96" width="5.18" height="5.18" style="fill: #3d4143"/>
    <rect class="d d-12" x="25.93" y="12.96" width="5.18" height="5.18" style="fill: #3d4143"/>
    <polygon class="d d-13" points="24.61 18.13 19.43 18.13 24.61 12.96 24.61 18.13" style="fill: #3d4143"/>
  </g>
  <g id="label-11">
    <polygon class="d d-10" points="50.52 11.66 45.35 11.66 45.35 6.48 50.52 11.66" style="fill: #3d4143"/>
    <rect class="d d-11" x="38.89" y="6.48" width="5.18" height="5.18" style="fill: #3d4143"/>
    <rect class="d d-12" x="32.41" y="6.48" width="5.18" height="5.18" style="fill: #3d4143"/>
    <polygon class="d d-13" points="31.09 11.66 25.91 11.66 31.09 6.48 31.09 11.66" style="fill: #3d4143"/>
  </g>
  <g id="label-12">
    <polygon class="d d-12" points="44.05 5.18 38.87 5.18 38.87 0 44.05 5.18" style="fill: #3d4143"/>
    <polygon class="d d-13" points="37.57 5.18 32.39 5.18 37.57 0 37.57 5.18" style="fill: #3d4143"/>
  </g>
</svg>
