<svg width="18" height="18" viewBox="0 0 18 18" fill="none" xmlns="http://www.w3.org/2000/svg">
<path d="M15.4297 12.4102C15.818 12.4102 16.1329 12.0954 16.1329 11.707V4.57031C16.1329 3.01945 14.8711 1.75781 13.3204 1.75781H11.1055V0.703125C11.1055 0.314758 10.7906 0 10.4024 0H7.5899C7.20154 0 6.88678 0.314758 6.88678 0.703125V1.75781H4.67578C3.12492 1.75781 1.86328 3.01945 1.86328 4.57031V15.1875C1.86328 16.7384 3.12492 18 4.67578 18H13.3204C14.8711 18 16.1329 16.7384 16.1329 15.1875C16.1329 14.7991 15.818 14.4844 15.4297 14.4844C15.0414 14.4844 14.7266 14.7991 14.7266 15.1875C14.7266 15.9629 14.0957 16.5938 13.3204 16.5938H4.67578C3.90042 16.5938 3.26953 15.9629 3.26953 15.1875V4.57031C3.26953 3.79495 3.90042 3.16406 4.67578 3.16406H6.88678V3.51562C6.88678 4.6788 7.83298 5.625 8.99615 5.625C10.1592 5.625 11.1055 4.6788 11.1055 3.51562V3.16406H13.3204C14.0957 3.16406 14.7266 3.79495 14.7266 4.57031V11.707C14.7266 12.0954 15.0414 12.4102 15.4297 12.4102ZM9.69928 3.51562C9.69928 3.90331 9.38383 4.21875 8.99615 4.21875C8.60834 4.21875 8.29303 3.90331 8.29303 3.51562V1.40625H9.69928V3.51562ZM5.69147 13.7461C5.69147 14.1345 6.00623 14.4492 6.39459 14.4492H11.5977C11.9859 14.4492 12.3008 14.1345 12.3008 13.7461C12.3008 12.5759 11.6893 11.5458 10.7692 10.9586C11.0465 10.5886 11.211 10.1297 11.211 9.63281C11.211 8.41154 10.2174 7.41797 8.99615 7.41797C7.77489 7.41797 6.78131 8.41154 6.78131 9.63281C6.78131 10.1295 6.94569 10.5886 7.22296 10.9586C6.30286 11.5458 5.69147 12.5759 5.69147 13.7461ZM7.23257 13.043C7.51259 12.3433 8.19759 11.8477 8.99615 11.8477C9.79459 11.8477 10.4796 12.3433 10.7596 13.043H7.23257ZM8.18756 9.63281C8.18756 9.1869 8.55025 8.82422 8.99615 8.82422C9.44193 8.82422 9.80475 9.1869 9.80475 9.63281C9.80475 10.0787 9.44193 10.4414 8.99615 10.4414C8.55025 10.4414 8.18756 10.0787 8.18756 9.63281Z" fill="white"/>
</svg>
