<svg width="66" height="51" viewBox="0 0 66 51" fill="none" xmlns="http://www.w3.org/2000/svg">
<g opacity="0.5" clip-path="url(#clip0_1_3168)">
<path d="M12.0103 50.8871V47.5022C12.0103 46.2046 11.2172 45.3584 9.85755 45.3584C9.17772 45.3584 8.44125 45.584 7.93137 46.3174C7.53481 45.6969 6.96828 45.3584 6.11849 45.3584C5.55197 45.3584 4.98545 45.5276 4.53223 46.1482V45.4712H3.34253V50.8871H4.53223V47.8971C4.53223 46.938 5.0421 46.4867 5.83523 46.4867C6.62836 46.4867 7.02493 46.9944 7.02493 47.8971V50.8871H8.21464V47.8971C8.21464 46.938 8.78115 46.4867 9.51763 46.4867C10.3108 46.4867 10.7073 46.9944 10.7073 47.8971V50.8871H12.0103V50.8871ZM29.6292 45.4712H27.703V43.8351H26.5133V45.4712H25.437V46.5431H26.5133V49.0254C26.5133 50.2665 27.0232 50.9999 28.3829 50.9999C28.8927 50.9999 29.4593 50.8307 29.8558 50.605L29.5159 49.5895C29.176 49.8152 28.7794 49.8716 28.4962 49.8716C27.9297 49.8716 27.703 49.5331 27.703 48.969V46.5431H29.6292V45.4712V45.4712ZM39.7133 45.3584C39.0335 45.3584 38.5803 45.6969 38.297 46.1482V45.4712H37.1073V50.8871H38.297V47.8407C38.297 46.938 38.6936 46.4303 39.4301 46.4303C39.6567 46.4303 39.94 46.4867 40.1666 46.5431L40.5065 45.4148C40.2799 45.3584 39.94 45.3584 39.7133 45.3584V45.3584ZM24.4739 45.9225C23.9073 45.5276 23.1142 45.3584 22.2644 45.3584C20.9048 45.3584 19.9983 46.0353 19.9983 47.1073C19.9983 48.0099 20.6781 48.5177 21.8678 48.6869L22.4344 48.7433C23.0575 48.8561 23.3975 49.0254 23.3975 49.3075C23.3975 49.7024 22.9442 49.9845 22.1511 49.9845C21.358 49.9845 20.7348 49.7024 20.3382 49.4203L19.7717 50.323C20.3949 50.7743 21.2447 50.9999 22.0945 50.9999C23.6807 50.9999 24.5872 50.2666 24.5872 49.2511C24.5872 48.292 23.8507 47.7842 22.7176 47.615L22.1511 47.5586C21.6412 47.5022 21.2447 47.3893 21.2447 47.0508C21.2447 46.6559 21.6412 46.4303 22.2644 46.4303C22.9442 46.4303 23.6241 46.7123 23.964 46.8816L24.4739 45.9225V45.9225ZM56.0859 45.3584C55.4061 45.3584 54.9528 45.6969 54.6696 46.1482V45.4712H53.4799V50.8871H54.6696V47.8407C54.6696 46.938 55.0661 46.4303 55.8026 46.4303C56.0292 46.4303 56.3125 46.4867 56.5391 46.5431L56.879 45.4148C56.6524 45.3584 56.3125 45.3584 56.0859 45.3584V45.3584ZM40.903 48.1791C40.903 49.8152 42.0361 50.9999 43.7923 50.9999C44.5855 50.9999 45.152 50.8307 45.7185 50.3794L45.152 49.4203C44.6988 49.7588 44.2455 49.928 43.7357 49.928C42.7726 49.928 42.0927 49.2511 42.0927 48.1791C42.0927 47.1637 42.7726 46.4867 43.7357 46.4303C44.2455 46.4303 44.6988 46.5995 45.152 46.938L45.7185 45.9789C45.152 45.5276 44.5855 45.3584 43.7923 45.3584C42.0361 45.3584 40.903 46.5431 40.903 48.1791V48.1791ZM51.8936 48.1791V45.4712H50.7039V46.1482C50.3074 45.6404 49.7408 45.3584 49.0043 45.3584C47.4747 45.3584 46.285 46.5431 46.285 48.1791C46.285 49.8152 47.4747 50.9999 49.0043 50.9999C49.7975 50.9999 50.364 50.7179 50.7039 50.2101V50.8871H51.8936V48.1791ZM47.5314 48.1791C47.5314 47.2201 48.1546 46.4303 49.1743 46.4303C50.1374 46.4303 50.8172 47.1637 50.8172 48.1791C50.8172 49.1382 50.1374 49.928 49.1743 49.928C48.1546 49.8716 47.5314 49.1382 47.5314 48.1791ZM33.3116 45.3584C31.7254 45.3584 30.5923 46.4867 30.5923 48.1791C30.5923 49.8716 31.7254 50.9999 33.3683 50.9999C34.1614 50.9999 34.9546 50.7743 35.5777 50.2665L35.0112 49.4203C34.558 49.7588 33.9915 49.9845 33.4249 49.9845C32.6885 49.9845 31.952 49.646 31.782 48.6869H35.8043C35.8043 48.5177 35.8043 48.4048 35.8043 48.2356C35.861 46.4867 34.8412 45.3584 33.3116 45.3584V45.3584ZM33.3116 46.3738C34.0481 46.3738 34.558 46.8252 34.6713 47.6714H31.8387C31.952 46.938 32.4618 46.3738 33.3116 46.3738ZM62.8275 48.1791V43.3274H61.6378V46.1482C61.2413 45.6404 60.6747 45.3584 59.9382 45.3584C58.4086 45.3584 57.2189 46.5431 57.2189 48.1791C57.2189 49.8152 58.4086 50.9999 59.9382 50.9999C60.7314 50.9999 61.2979 50.7179 61.6378 50.2101V50.8871H62.8275V48.1791ZM58.4653 48.1791C58.4653 47.2201 59.0885 46.4303 60.1082 46.4303C61.0713 46.4303 61.7511 47.1637 61.7511 48.1791C61.7511 49.1382 61.0713 49.928 60.1082 49.928C59.0885 49.8716 58.4653 49.1382 58.4653 48.1791ZM18.6953 48.1791V45.4712H17.5056V46.1482C17.1091 45.6404 16.5425 45.3584 15.8061 45.3584C14.2764 45.3584 13.0867 46.5431 13.0867 48.1791C13.0867 49.8152 14.2764 50.9999 15.8061 50.9999C16.5992 50.9999 17.1657 50.7179 17.5056 50.2101V50.8871H18.6953V48.1791ZM14.2764 48.1791C14.2764 47.2201 14.8996 46.4303 15.9193 46.4303C16.8824 46.4303 17.5623 47.1637 17.5623 48.1791C17.5623 49.1382 16.8824 49.928 15.9193 49.928C14.8996 49.8716 14.2764 49.1382 14.2764 48.1791Z" fill="white"/>
<path d="M41.9228 4.34399H24.0773V36.2754H41.9228V4.34399Z" fill="#D1D1D1"/>
<path d="M25.2103 20.3097C25.2103 13.8219 28.2695 8.06749 32.9717 4.34403C29.5159 1.63607 25.1537 0 20.3949 0C9.12103 0 0 9.08297 0 20.3097C0 31.5365 9.12103 40.6195 20.3949 40.6195C25.1537 40.6195 29.5159 38.9834 32.9717 36.2755C28.2695 32.6084 25.2103 26.7976 25.2103 20.3097Z" fill="#A6A0A1"/>
<path d="M66 20.3097C66 31.5365 56.879 40.6195 45.6051 40.6195C40.8463 40.6195 36.4841 38.9834 33.0283 36.2755C37.7871 32.552 40.7897 26.7976 40.7897 20.3097C40.7897 13.8219 37.7305 8.06749 33.0283 4.34403C36.4841 1.63607 40.8463 0 45.6051 0C56.879 0 66 9.13938 66 20.3097Z" fill="white"/>
</g>
<defs>
<clipPath id="clip0_1_3168">
<rect width="66" height="51" fill="white"/>
</clipPath>
</defs>
</svg>
