<svg width="18" height="18" viewBox="0 0 18 18" fill="none" xmlns="http://www.w3.org/2000/svg">
<g clip-path="url(#clip0_17_14908)">
<path d="M17.4245 16.3956L13.1405 11.94C14.242 10.6306 14.8455 8.98311 14.8455 7.26798C14.8455 3.26075 11.5853 0.000488281 7.57804 0.000488281C3.57081 0.000488281 0.310547 3.26075 0.310547 7.26798C0.310547 11.2752 3.57081 14.5355 7.57804 14.5355C9.08241 14.5355 10.516 14.0817 11.7417 13.2204L16.0583 17.7098C16.2387 17.8972 16.4813 18.0005 16.7414 18.0005C16.9875 18.0005 17.2211 17.9066 17.3983 17.736C17.775 17.3736 17.787 16.7726 17.4245 16.3956ZM7.57804 1.89636C10.54 1.89636 12.9497 4.306 12.9497 7.26798C12.9497 10.23 10.54 12.6396 7.57804 12.6396C4.61606 12.6396 2.20641 10.23 2.20641 7.26798C2.20641 4.306 4.61606 1.89636 7.57804 1.89636Z" fill="white"/>
</g>
<defs>
<clipPath id="clip0_17_14908">
<rect width="18" height="18" fill="white" transform="translate(0 0.000488281)"/>
</clipPath>
</defs>
</svg>
