<svg width="20" height="20" viewBox="0 0 20 20" fill="none" xmlns="http://www.w3.org/2000/svg">
<path d="M2.00012 12.6665V15.3808C2.70711 15.3816 3.3849 15.6679 3.88481 16.1767C4.38473 16.6856 4.66595 17.2802 4.66679 17.9998H7.33346C7.33187 16.5606 6.76945 15.276 5.7696 14.2583C4.76975 13.2406 3.41412 12.6681 2.00012 12.6665Z" fill="#FFF"/>
<path d="M2.00012 7.3335V10.0238C4.12112 10.0262 6.15457 10.8772 7.65435 12.3903C9.15412 13.9033 9.99774 15.8604 10.0001 18.0002H12.6668C12.6636 15.1471 11.5388 12.5063 9.53909 10.4889C7.53939 8.47148 4.82812 7.3367 2.00012 7.3335Z" fill="#FFF"/>
<path d="M2.00012 2V4.68238C5.53511 4.68642 8.92417 6.10076 11.4238 8.6151C13.9234 11.1295 15.3294 14.4442 15.3335 18H18.0001C17.9954 13.733 16.3081 9.73643 13.3086 6.71921C10.309 3.70198 6.24212 2.00479 2.00012 2Z" fill="#FFF"/>
</svg>
