<svg width="20" height="20" viewBox="0 0 20 20" fill="none" xmlns="http://www.w3.org/2000/svg">
<path d="M13.6364 9.09078C15.1818 9.09078 16.3636 7.90896 16.3636 6.3635C16.3636 4.81805 15.1818 3.63623 13.6364 3.63623C12.0909 3.63623 10.9091 4.81805 10.9091 6.3635C10.9091 7.90896 12.0909 9.09078 13.6364 9.09078ZM6.36364 9.09078C7.90909 9.09078 9.09091 7.90896 9.09091 6.3635C9.09091 4.81805 7.90909 3.63623 6.36364 3.63623C4.81818 3.63623 3.63636 4.81805 3.63636 6.3635C3.63636 7.90896 4.81818 9.09078 6.36364 9.09078ZM6.36364 10.2423C3.33333 10.2423 0 11.9999 0 14.0908V16.3635H12.7273V14.0908C12.7273 11.9999 10 10.2423 6.36364 10.2423ZM13.6364 10.2423C13.3636 10.2423 12.0303 10.2423 11.6667 10.3332C13 10.9998 14.5455 12.3332 14.5455 14.0908V16.3635H20V14.0908C20 11.9999 16.6667 10.2423 13.6364 10.2423Z" fill="#FFF"/>
</svg>
