<svg width="39" height="40" viewBox="0 0 39 40" fill="none" xmlns="http://www.w3.org/2000/svg">
<path fill-rule="evenodd" clip-rule="evenodd" d="M0 0H2V2H0V0ZM8 0H10V2H8V0ZM24 3H20V7H24V3ZM25 8H29V12H25V8ZM30 13H34V17H30V13ZM30 23H34V27H30V23ZM29 18H25V22H29V18ZM15 18H19V22H15V18ZM39 18H35V22H39V18ZM24 13H20V17H24V13ZM20 23H24V27H20V23ZM29 28H25V32H29V28ZM15 28H19V32H15V28ZM24 33H20V37H24V33ZM15 8H19V12H15V8ZM18 0H16V2H18V0ZM14 4H12V6H14V4ZM4 4H6V6H4V4ZM10 9H8V11H10V9ZM16 38H18V40H16V38ZM14 34H12V36H14V34ZM8 29H10V31H8V29ZM14 14H12V16H14V14ZM12 24H14V26H12V24ZM10 38H8V40H10V38ZM0 38H2V40H0V38ZM6 34H4V36H6V34Z" fill="url(#paint0_radial_37_17761)"/>
<defs>
<radialGradient id="paint0_radial_37_17761" cx="0" cy="0" r="1" gradientUnits="userSpaceOnUse" gradientTransform="translate(8.5 20) rotate(180) scale(15 15.7895)">
<stop stop-color="#FF4654" stop-opacity="0.2"/>
<stop offset="1" stop-color="#FF4654"/>
</radialGradient>
</defs>
</svg>
